<?xml version="1.0" standalone="no"?>
<!DOCTYPE svg PUBLIC "-//W3C//DTD SVG 20010904//EN"
 "http://www.w3.org/TR/2001/REC-SVG-20010904/DTD/svg10.dtd">
<svg version="1.0" xmlns="http://www.w3.org/2000/svg"
 width="700.000000pt" height="700.000000pt" viewBox="0 0 700.000000 700.000000"
 preserveAspectRatio="xMidYMid meet">
<metadata>
Created by potrace 1.11, written by Peter Selinger 2001-2013
</metadata>
<g transform="translate(0.000000,700.000000) scale(0.100000,-0.100000)"
fill="#000000" stroke="none">
<path d="M49 6906 c0 -1 -2 -437 -2 -970 -2 -678 1 -973 9 -980 7 -8 161 -11
491 -10 l480 1 0 -486 c0 -267 -4 -488 -8 -491 -4 -3 -224 -5 -488 -4 -265 0
-481 -2 -482 -5 0 -3 -2 -444 -2 -978 -1 -641 1 -974 8 -976 9 -2 949 0 966 2
3 1 6 220 6 489 l0 487 979 0 979 0 1 -488 c0 -340 -3 -487 -10 -488 -6 0
-226 -1 -488 -1 -431 -1 -478 -3 -479 -17 0 -9 -2 -229 -2 -489 l-2 -472 25
-1 c14 0 234 -1 490 -2 l465 -2 2 -480 c1 -264 2 -484 2 -490 1 -7 168 -9 483
-9 266 1 486 2 489 3 3 1 5 219 5 486 -1 316 2 486 9 487 6 1 222 2 480 4 259
1 475 3 481 3 8 1 11 143 10 489 l-1 487 -483 1 c-265 1 -485 4 -489 8 -3 3
-7 222 -7 486 -1 419 1 481 14 484 8 2 449 3 980 3 l965 -2 1 -482 c0 -266 3
-486 7 -489 4 -4 223 -8 487 -8 419 -1 481 1 484 14 2 8 3 449 3 980 l-2 965
-488 0 c-426 0 -487 2 -488 15 -1 8 -2 228 -2 488 -2 412 0 473 13 476 8 2
233 3 500 2 267 -1 492 2 500 5 13 6 15 123 14 971 -1 529 -2 968 -3 974 -1 8
-140 11 -488 10 l-488 -1 -2 -465 c-1 -256 -2 -476 -2 -490 l-1 -25 -477 2
c-263 1 -483 2 -489 2 -8 1 -11 131 -12 459 0 251 -1 471 -1 488 l-1 31 -512
-1 -512 -1 0 -968 c-1 -532 1 -973 4 -980 4 -9 119 -12 490 -12 l485 0 1 -480
c1 -264 -1 -484 -3 -490 -2 -7 -497 -9 -1461 -8 -801 0 -1461 2 -1467 2 -7 1
-9 163 -8 469 0 257 2 476 2 488 l1 21 488 -1 489 -1 0 981 0 981 -486 0
c-267 0 -488 -4 -491 -8 -3 -4 -5 -224 -4 -488 0 -335 -3 -481 -10 -482 -62
-5 -958 -1 -963 4 -3 4 -7 224 -7 490 l-1 482 -487 1 c-269 0 -488 0 -489 0z"/>
<path d="M49 1021 c0 -3 -2 -223 -2 -488 -1 -316 1 -483 8 -484 41 -4 959 -3
964 1 5 3 8 224 8 491 l0 486 -489 0 c-268 0 -488 -3 -489 -6z"/>
<path d="M5982 1021 c-10 -6 -13 -970 -3 -972 3 -1 223 -2 489 -3 422 -1 482
1 483 14 4 63 3 954 -1 959 -6 9 -955 11 -968 2z"/>
</g>
</svg>
