<svg xmlns="http://www.w3.org/2000/svg" width="35.295" height="34.86" viewBox="0 0 35.295 34.86">
  <g id="globe_1_" data-name="globe (1)" transform="translate(0 -3.15)">
    <path id="Path_11894" data-name="Path 11894" d="M147.469,152.569v-5.183a19.435,19.435,0,0,1-5.857-1.249,28.018,28.018,0,0,0-.953,6.432Z" transform="translate(-130.948 -133.116)"/>
    <path id="Path_11895" data-name="Path 11895" d="M147.469,277.131v-5.183h-6.81a28.017,28.017,0,0,0,.953,6.432A19.432,19.432,0,0,1,147.469,277.131Z" transform="translate(-130.948 -250.241)"/>
    <path id="Path_11896" data-name="Path 11896" d="M164.714,33.129a17.288,17.288,0,0,0,5.149,1.126V27.043C167.388,27.784,165.661,30.717,164.714,33.129Z" transform="translate(-153.343 -22.244)"/>
    <path id="Path_11897" data-name="Path 11897" d="M277.1,380.859a17.289,17.289,0,0,0-5.149-1.126v7.212C274.423,386.2,276.15,383.272,277.1,380.859Z" transform="translate(-253.174 -350.585)"/>
    <path id="Path_11898" data-name="Path 11898" d="M7.456,98.678a30.144,30.144,0,0,1,1.131-7.363A19.525,19.525,0,0,1,4.26,88.25,17.528,17.528,0,0,0,0,98.678Z" transform="translate(0 -79.225)"/>
    <path id="Path_11899" data-name="Path 11899" d="M388,271.947a30.145,30.145,0,0,1-1.131,7.363,19.524,19.524,0,0,1,4.327,3.065,17.528,17.528,0,0,0,4.26-10.428Z" transform="translate(-360.158 -250.24)"/>
    <path id="Path_11900" data-name="Path 11900" d="M7.456,271.947H0a17.528,17.528,0,0,0,4.26,10.428,19.528,19.528,0,0,1,4.327-3.065A30.144,30.144,0,0,1,7.456,271.947Z" transform="translate(0 -250.24)"/>
    <path id="Path_11901" data-name="Path 11901" d="M169.864,386.945v-7.212a17.284,17.284,0,0,0-5.149,1.126C165.664,383.275,167.391,386.2,169.864,386.945Z" transform="translate(-153.344 -350.585)"/>
    <path id="Path_11902" data-name="Path 11902" d="M304.528,409.821c-1.065,2.667-2.8,5.449-5.313,6.785a17.523,17.523,0,0,0,8.8-4.267A17.393,17.393,0,0,0,304.528,409.821Z" transform="translate(-278.558 -378.596)"/>
    <path id="Path_11903" data-name="Path 11903" d="M88.064,409.821a17.392,17.392,0,0,0-3.486,2.518,17.523,17.523,0,0,0,8.8,4.267C90.861,415.27,89.129,412.488,88.064,409.821Z" transform="translate(-78.739 -378.596)"/>
    <path id="Path_11904" data-name="Path 11904" d="M88.064,9.935c1.065-2.667,2.8-5.449,5.313-6.785a17.523,17.523,0,0,0-8.8,4.267,17.392,17.392,0,0,0,3.486,2.518Z" transform="translate(-78.739 0)"/>
    <path id="Path_11905" data-name="Path 11905" d="M271.947,271.947v5.183a19.435,19.435,0,0,1,5.857,1.249,28.017,28.017,0,0,0,.953-6.432Z" transform="translate(-253.173 -250.24)"/>
    <path id="Path_11906" data-name="Path 11906" d="M386.866,91.315A30.142,30.142,0,0,1,388,98.678h7.456a17.528,17.528,0,0,0-4.26-10.428A19.526,19.526,0,0,1,386.866,91.315Z" transform="translate(-360.158 -79.225)"/>
    <path id="Path_11907" data-name="Path 11907" d="M271.947,147.385v5.183h6.81a28.017,28.017,0,0,0-.953-6.432A19.433,19.433,0,0,1,271.947,147.385Z" transform="translate(-253.173 -133.115)"/>
    <path id="Path_11908" data-name="Path 11908" d="M271.947,27.043v7.212a17.284,17.284,0,0,0,5.149-1.126C276.148,30.713,274.42,27.783,271.947,27.043Z" transform="translate(-253.173 -22.244)"/>
    <path id="Path_11909" data-name="Path 11909" d="M299.215,3.15c2.516,1.336,4.248,4.118,5.313,6.785a17.39,17.39,0,0,0,3.486-2.518,17.524,17.524,0,0,0-8.8-4.267Z" transform="translate(-278.558)"/>
  </g>
</svg>
