<svg xmlns="http://www.w3.org/2000/svg" width="20" height="20" viewBox="0 0 20 20">
  <path id="Path_14201" data-name="Path 14201" d="M-1275.958,1060.7h-1.666v-1.334a1.333,1.333,0,0,0-1.334-1.333,1.333,1.333,0,0,0-1.333,1.333v1.334h-8v-1.334a1.333,1.333,0,0,0-1.333-1.333,1.333,1.333,0,0,0-1.333,1.333v1.334h-1.667a1.668,1.668,0,0,0-1.667,1.666v14a1.668,1.668,0,0,0,1.667,1.667h16.666a1.669,1.669,0,0,0,1.667-1.667v-14A1.67,1.67,0,0,0-1275.958,1060.7Zm-3-2a.667.667,0,0,1,.668.666v2.667a.668.668,0,0,1-.641.641.667.667,0,0,1-.692-.641v-2.667h0A.666.666,0,0,1-1278.959,1058.7Zm-11.332.666a.667.667,0,0,1,.64-.641.669.669,0,0,1,.693.641v2.667a.668.668,0,0,1-.641.641.667.667,0,0,1-.692-.641Zm15.333,17a1,1,0,0,1-1,1h-16.666a1,1,0,0,1-1-1v-11h18.666Zm0-11.667h-18.666v-2.333a1,1,0,0,1,1-1h1.667v.666a1.333,1.333,0,0,0,1.333,1.333,1.333,1.333,0,0,0,1.333-1.333v-.666h8v.666a1.334,1.334,0,0,0,1.333,1.334,1.334,1.334,0,0,0,1.334-1.334v-.667h1.666a1,1,0,0,1,1,1Z" transform="translate(1294.291 -1058.038)" fill="#686983"/>
</svg>
