<svg xmlns="http://www.w3.org/2000/svg" width="312.329" height="312.324" viewBox="0 0 312.329 312.324">
  <g id="Group_398" data-name="Group 398" opacity="0.11">
    <path id="Path_311" data-name="Path 311" d="M3.893,0A3.756,3.756,0,0,0,0,3.869a3.769,3.769,0,0,0,3.873,3.9A3.746,3.746,0,0,0,7.754,3.889,3.736,3.736,0,0,0,3.893,0Z" transform="translate(60.226 65.719) rotate(-135)"/>
    <path id="Path_14177" data-name="Path 14177" d="M3.893,0A3.756,3.756,0,0,0,0,3.869a3.769,3.769,0,0,0,3.873,3.9A3.746,3.746,0,0,0,7.754,3.889,3.736,3.736,0,0,0,3.893,0Z" transform="translate(60.226 230.209) rotate(-135)"/>
    <path id="Path_14093" data-name="Path 14093" d="M3.893,0A3.756,3.756,0,0,0,0,3.869a3.769,3.769,0,0,0,3.873,3.9A3.746,3.746,0,0,0,7.754,3.889,3.736,3.736,0,0,0,3.893,0Z" transform="translate(224.716 65.719) rotate(-135)"/>
    <path id="Path_14131" data-name="Path 14131" d="M3.893,0A3.756,3.756,0,0,0,0,3.869a3.769,3.769,0,0,0,3.873,3.9A3.746,3.746,0,0,0,7.754,3.889,3.736,3.736,0,0,0,3.893,0Z" transform="translate(224.716 230.209) rotate(-135)"/>
    <path id="Path_312" data-name="Path 312" d="M3.978,0A3.763,3.763,0,0,0,0,3.785a3.78,3.78,0,0,0,3.79,3.982A3.758,3.758,0,0,0,7.757,3.972,3.744,3.744,0,0,0,3.978,0Z" transform="translate(32.856 38.35) rotate(-135)"/>
    <path id="Path_14183" data-name="Path 14183" d="M3.978,0A3.763,3.763,0,0,0,0,3.785a3.78,3.78,0,0,0,3.79,3.982A3.758,3.758,0,0,0,7.757,3.972,3.744,3.744,0,0,0,3.978,0Z" transform="translate(32.856 202.84) rotate(-135)"/>
    <path id="Path_14088" data-name="Path 14088" d="M3.978,0A3.763,3.763,0,0,0,0,3.785a3.78,3.78,0,0,0,3.79,3.982A3.758,3.758,0,0,0,7.757,3.972,3.744,3.744,0,0,0,3.978,0Z" transform="translate(197.346 38.35) rotate(-135)"/>
    <path id="Path_14143" data-name="Path 14143" d="M3.978,0A3.763,3.763,0,0,0,0,3.785a3.78,3.78,0,0,0,3.79,3.982A3.758,3.758,0,0,0,7.757,3.972,3.744,3.744,0,0,0,3.978,0Z" transform="translate(197.346 202.84) rotate(-135)"/>
    <path id="Path_313" data-name="Path 313" d="M3.925,0A3.761,3.761,0,0,0,0,3.839,3.773,3.773,0,0,0,3.845,7.764,3.751,3.751,0,0,0,7.756,3.919,3.738,3.738,0,0,0,3.925,0Z" transform="translate(5.485 10.977) rotate(-135)"/>
    <path id="Path_14189" data-name="Path 14189" d="M3.925,0A3.761,3.761,0,0,0,0,3.839,3.773,3.773,0,0,0,3.845,7.764,3.751,3.751,0,0,0,7.756,3.919,3.738,3.738,0,0,0,3.925,0Z" transform="translate(5.485 175.467) rotate(-135)"/>
    <path id="Path_14087" data-name="Path 14087" d="M3.925,0A3.761,3.761,0,0,0,0,3.839,3.773,3.773,0,0,0,3.845,7.764,3.751,3.751,0,0,0,7.756,3.919,3.738,3.738,0,0,0,3.925,0Z" transform="translate(169.975 10.977) rotate(-135)"/>
    <path id="Path_14153" data-name="Path 14153" d="M3.925,0A3.761,3.761,0,0,0,0,3.839,3.773,3.773,0,0,0,3.845,7.764,3.751,3.751,0,0,0,7.756,3.919,3.738,3.738,0,0,0,3.925,0Z" transform="translate(169.975 175.467) rotate(-135)"/>
    <path id="Path_314" data-name="Path 314" d="M3.871,7.764A3.748,3.748,0,0,0,7.754,3.891,3.736,3.736,0,0,0,3.9,0,3.758,3.758,0,0,0,0,3.865,3.769,3.769,0,0,0,3.871,7.764Z" transform="translate(142.341 120.462) rotate(-135)"/>
    <path id="Path_14159" data-name="Path 14159" d="M3.871,7.764A3.748,3.748,0,0,0,7.754,3.891,3.736,3.736,0,0,0,3.9,0,3.758,3.758,0,0,0,0,3.865,3.769,3.769,0,0,0,3.871,7.764Z" transform="translate(142.341 284.952) rotate(-135)"/>
    <path id="Path_14117" data-name="Path 14117" d="M3.871,7.764A3.748,3.748,0,0,0,7.754,3.891,3.736,3.736,0,0,0,3.9,0,3.758,3.758,0,0,0,0,3.865,3.769,3.769,0,0,0,3.871,7.764Z" transform="translate(306.831 120.462) rotate(-135)"/>
    <path id="Path_14123" data-name="Path 14123" d="M3.871,7.764A3.748,3.748,0,0,0,7.754,3.891,3.736,3.736,0,0,0,3.9,0,3.758,3.758,0,0,0,0,3.865,3.769,3.769,0,0,0,3.871,7.764Z" transform="translate(306.831 284.952) rotate(-135)"/>
    <path id="Path_315" data-name="Path 315" d="M3.817,7.768A3.756,3.756,0,0,0,7.756,3.95,3.744,3.744,0,0,0,3.954,0,3.765,3.765,0,0,0,0,3.811,3.779,3.779,0,0,0,3.817,7.768Z" transform="translate(114.97 93.094) rotate(-135)"/>
    <path id="Path_14165" data-name="Path 14165" d="M3.817,7.768A3.756,3.756,0,0,0,7.756,3.95,3.744,3.744,0,0,0,3.954,0,3.765,3.765,0,0,0,0,3.811,3.779,3.779,0,0,0,3.817,7.768Z" transform="translate(114.97 257.584) rotate(-135)"/>
    <path id="Path_14107" data-name="Path 14107" d="M3.817,7.768A3.756,3.756,0,0,0,7.756,3.95,3.744,3.744,0,0,0,3.954,0,3.765,3.765,0,0,0,0,3.811,3.779,3.779,0,0,0,3.817,7.768Z" transform="translate(279.46 93.094) rotate(-135)"/>
    <path id="Path_14125" data-name="Path 14125" d="M3.817,7.768A3.756,3.756,0,0,0,7.756,3.95,3.744,3.744,0,0,0,3.954,0,3.765,3.765,0,0,0,0,3.811,3.779,3.779,0,0,0,3.817,7.768Z" transform="translate(279.46 257.584) rotate(-135)"/>
    <path id="Path_316" data-name="Path 316" d="M3.841,0A3.758,3.758,0,0,0,0,3.922,3.765,3.765,0,0,0,3.926,7.762,3.746,3.746,0,0,0,7.754,3.835,3.738,3.738,0,0,0,3.841,0Z" transform="translate(87.598 65.719) rotate(-135)"/>
    <path id="Path_14171" data-name="Path 14171" d="M3.841,0A3.758,3.758,0,0,0,0,3.922,3.765,3.765,0,0,0,3.926,7.762,3.746,3.746,0,0,0,7.754,3.835,3.738,3.738,0,0,0,3.841,0Z" transform="translate(87.598 230.209) rotate(-135)"/>
    <path id="Path_14099" data-name="Path 14099" d="M3.841,0A3.758,3.758,0,0,0,0,3.922,3.765,3.765,0,0,0,3.926,7.762,3.746,3.746,0,0,0,7.754,3.835,3.738,3.738,0,0,0,3.841,0Z" transform="translate(252.088 65.719) rotate(-135)"/>
    <path id="Path_14132" data-name="Path 14132" d="M3.841,0A3.758,3.758,0,0,0,0,3.922,3.765,3.765,0,0,0,3.926,7.762,3.746,3.746,0,0,0,7.754,3.835,3.738,3.738,0,0,0,3.841,0Z" transform="translate(252.088 230.209) rotate(-135)"/>
    <path id="Path_317" data-name="Path 317" d="M4.046,0A3.773,3.773,0,0,0,0,3.724,3.792,3.792,0,0,0,3.732,7.77,3.767,3.767,0,0,0,7.76,4.038,3.747,3.747,0,0,0,4.046,0Z" transform="translate(60.229 38.353) rotate(-135)"/>
    <path id="Path_14178" data-name="Path 14178" d="M4.046,0A3.773,3.773,0,0,0,0,3.724,3.792,3.792,0,0,0,3.732,7.77,3.767,3.767,0,0,0,7.76,4.038,3.747,3.747,0,0,0,4.046,0Z" transform="translate(60.229 202.843) rotate(-135)"/>
    <path id="Path_14094" data-name="Path 14094" d="M4.046,0A3.773,3.773,0,0,0,0,3.724,3.792,3.792,0,0,0,3.732,7.77,3.767,3.767,0,0,0,7.76,4.038,3.747,3.747,0,0,0,4.046,0Z" transform="translate(224.719 38.353) rotate(-135)"/>
    <path id="Path_14133" data-name="Path 14133" d="M4.046,0A3.773,3.773,0,0,0,0,3.724,3.792,3.792,0,0,0,3.732,7.77,3.767,3.767,0,0,0,7.76,4.038,3.747,3.747,0,0,0,4.046,0Z" transform="translate(224.719 202.843) rotate(-135)"/>
    <path id="Path_318" data-name="Path 318" d="M3.95,0A3.761,3.761,0,0,0,0,3.813,3.779,3.779,0,0,0,3.819,7.766,3.758,3.758,0,0,0,7.756,3.944,3.742,3.742,0,0,0,3.95,0Z" transform="translate(32.856 10.978) rotate(-135)"/>
    <path id="Path_14184" data-name="Path 14184" d="M3.95,0A3.761,3.761,0,0,0,0,3.813,3.779,3.779,0,0,0,3.819,7.766,3.758,3.758,0,0,0,7.756,3.944,3.742,3.742,0,0,0,3.95,0Z" transform="translate(32.856 175.468) rotate(-135)"/>
    <path id="Path_14089" data-name="Path 14089" d="M3.95,0A3.761,3.761,0,0,0,0,3.813,3.779,3.779,0,0,0,3.819,7.766,3.758,3.758,0,0,0,7.756,3.944,3.742,3.742,0,0,0,3.95,0Z" transform="translate(197.346 10.978) rotate(-135)"/>
    <path id="Path_14144" data-name="Path 14144" d="M3.95,0A3.761,3.761,0,0,0,0,3.813,3.779,3.779,0,0,0,3.819,7.766,3.758,3.758,0,0,0,7.756,3.944,3.742,3.742,0,0,0,3.95,0Z" transform="translate(197.346 175.468) rotate(-135)"/>
    <path id="Path_319" data-name="Path 319" d="M3.9,7.764A3.748,3.748,0,0,0,7.748,3.859,3.736,3.736,0,0,0,3.859,0,3.746,3.746,0,0,0,0,3.9,3.757,3.757,0,0,0,3.9,7.764Z" transform="translate(142.337 93.086) rotate(-135)"/>
    <path id="Path_14160" data-name="Path 14160" d="M3.9,7.764A3.748,3.748,0,0,0,7.748,3.859,3.736,3.736,0,0,0,3.859,0,3.746,3.746,0,0,0,0,3.9,3.757,3.757,0,0,0,3.9,7.764Z" transform="translate(142.337 257.576) rotate(-135)"/>
    <path id="Path_14118" data-name="Path 14118" d="M3.9,7.764A3.748,3.748,0,0,0,7.748,3.859,3.736,3.736,0,0,0,3.859,0,3.746,3.746,0,0,0,0,3.9,3.757,3.757,0,0,0,3.9,7.764Z" transform="translate(306.827 93.086) rotate(-135)"/>
    <path id="Path_14126" data-name="Path 14126" d="M3.9,7.764A3.748,3.748,0,0,0,7.748,3.859,3.736,3.736,0,0,0,3.859,0,3.746,3.746,0,0,0,0,3.9,3.757,3.757,0,0,0,3.9,7.764Z" transform="translate(306.827 257.576) rotate(-135)"/>
    <path id="Path_320" data-name="Path 320" d="M.007,3.6A3.781,3.781,0,0,0,3.6,7.763,3.777,3.777,0,0,0,7.749,4.158,3.765,3.765,0,0,0,4.158.007,3.769,3.769,0,0,0,.007,3.6Z" transform="translate(114.965 65.719) rotate(-135)"/>
    <path id="Path_14166" data-name="Path 14166" d="M.007,3.6A3.781,3.781,0,0,0,3.6,7.763,3.777,3.777,0,0,0,7.749,4.158,3.765,3.765,0,0,0,4.158.007,3.769,3.769,0,0,0,.007,3.6Z" transform="translate(114.965 230.209) rotate(-135)"/>
    <path id="Path_14108" data-name="Path 14108" d="M.007,3.6A3.781,3.781,0,0,0,3.6,7.763,3.777,3.777,0,0,0,7.749,4.158,3.765,3.765,0,0,0,4.158.007,3.769,3.769,0,0,0,.007,3.6Z" transform="translate(279.455 65.719) rotate(-135)"/>
    <path id="Path_14127" data-name="Path 14127" d="M.007,3.6A3.781,3.781,0,0,0,3.6,7.763,3.777,3.777,0,0,0,7.749,4.158,3.765,3.765,0,0,0,4.158.007,3.769,3.769,0,0,0,.007,3.6Z" transform="translate(279.455 230.209) rotate(-135)"/>
    <path id="Path_321" data-name="Path 321" d="M4.036,0A3.757,3.757,0,0,0,0,3.724a3.773,3.773,0,0,0,3.72,4.044A3.764,3.764,0,0,0,7.75,4.038,3.747,3.747,0,0,0,4.036,0Z" transform="translate(87.594 38.346) rotate(-135)"/>
    <path id="Path_14172" data-name="Path 14172" d="M4.036,0A3.757,3.757,0,0,0,0,3.724a3.773,3.773,0,0,0,3.72,4.044A3.764,3.764,0,0,0,7.75,4.038,3.747,3.747,0,0,0,4.036,0Z" transform="translate(87.594 202.836) rotate(-135)"/>
    <path id="Path_14100" data-name="Path 14100" d="M4.036,0A3.757,3.757,0,0,0,0,3.724a3.773,3.773,0,0,0,3.72,4.044A3.764,3.764,0,0,0,7.75,4.038,3.747,3.747,0,0,0,4.036,0Z" transform="translate(252.084 38.346) rotate(-135)"/>
    <path id="Path_14134" data-name="Path 14134" d="M4.036,0A3.757,3.757,0,0,0,0,3.724a3.773,3.773,0,0,0,3.72,4.044A3.764,3.764,0,0,0,7.75,4.038,3.747,3.747,0,0,0,4.036,0Z" transform="translate(252.084 202.836) rotate(-135)"/>
    <path id="Path_322" data-name="Path 322" d="M3.815,0A3.749,3.749,0,0,0,0,3.942,3.758,3.758,0,0,0,3.942,7.762,3.749,3.749,0,0,0,7.748,3.815,3.74,3.74,0,0,0,3.815,0Z" transform="translate(60.222 10.972) rotate(-135)"/>
    <path id="Path_14179" data-name="Path 14179" d="M3.815,0A3.749,3.749,0,0,0,0,3.942,3.758,3.758,0,0,0,3.942,7.762,3.749,3.749,0,0,0,7.748,3.815,3.74,3.74,0,0,0,3.815,0Z" transform="translate(60.222 175.462) rotate(-135)"/>
    <path id="Path_14095" data-name="Path 14095" d="M3.815,0A3.749,3.749,0,0,0,0,3.942,3.758,3.758,0,0,0,3.942,7.762,3.749,3.749,0,0,0,7.748,3.815,3.74,3.74,0,0,0,3.815,0Z" transform="translate(224.712 10.972) rotate(-135)"/>
    <path id="Path_14145" data-name="Path 14145" d="M3.815,0A3.749,3.749,0,0,0,0,3.942,3.758,3.758,0,0,0,3.942,7.762,3.749,3.749,0,0,0,7.748,3.815,3.74,3.74,0,0,0,3.815,0Z" transform="translate(224.712 175.462) rotate(-135)"/>
    <path id="Path_323" data-name="Path 323" d="M3.873,7.764A3.746,3.746,0,0,0,7.754,3.889,3.735,3.735,0,0,0,3.893,0,3.757,3.757,0,0,0,0,3.867,3.769,3.769,0,0,0,3.873,7.764Z" transform="translate(142.341 65.719) rotate(-135)"/>
    <path id="Path_14161" data-name="Path 14161" d="M3.873,7.764A3.746,3.746,0,0,0,7.754,3.889,3.735,3.735,0,0,0,3.893,0,3.757,3.757,0,0,0,0,3.867,3.769,3.769,0,0,0,3.873,7.764Z" transform="translate(142.341 230.209) rotate(-135)"/>
    <path id="Path_14119" data-name="Path 14119" d="M3.873,7.764A3.746,3.746,0,0,0,7.754,3.889,3.735,3.735,0,0,0,3.893,0,3.757,3.757,0,0,0,0,3.867,3.769,3.769,0,0,0,3.873,7.764Z" transform="translate(306.831 65.719) rotate(-135)"/>
    <path id="Path_14128" data-name="Path 14128" d="M3.873,7.764A3.746,3.746,0,0,0,7.754,3.889,3.735,3.735,0,0,0,3.893,0,3.757,3.757,0,0,0,0,3.867,3.769,3.769,0,0,0,3.873,7.764Z" transform="translate(306.831 230.209) rotate(-135)"/>
    <path id="Path_324" data-name="Path 324" d="M3.8,0A3.759,3.759,0,0,0,0,3.962a3.766,3.766,0,0,0,3.963,3.8A3.751,3.751,0,0,0,7.753,3.8,3.744,3.744,0,0,0,3.8,0Z" transform="translate(114.967 38.348) rotate(-135)"/>
    <path id="Path_14167" data-name="Path 14167" d="M3.8,0A3.759,3.759,0,0,0,0,3.962a3.766,3.766,0,0,0,3.963,3.8A3.751,3.751,0,0,0,7.753,3.8,3.744,3.744,0,0,0,3.8,0Z" transform="translate(114.967 202.838) rotate(-135)"/>
    <path id="Path_14109" data-name="Path 14109" d="M3.8,0A3.759,3.759,0,0,0,0,3.962a3.766,3.766,0,0,0,3.963,3.8A3.751,3.751,0,0,0,7.753,3.8,3.744,3.744,0,0,0,3.8,0Z" transform="translate(279.457 38.348) rotate(-135)"/>
    <path id="Path_14135" data-name="Path 14135" d="M3.8,0A3.759,3.759,0,0,0,0,3.962a3.766,3.766,0,0,0,3.963,3.8A3.751,3.751,0,0,0,7.753,3.8,3.744,3.744,0,0,0,3.8,0Z" transform="translate(279.457 202.838) rotate(-135)"/>
    <path id="Path_325" data-name="Path 325" d="M3.952,0A3.762,3.762,0,0,0,0,3.813,3.775,3.775,0,0,0,3.819,7.764,3.754,3.754,0,0,0,7.756,3.946,3.742,3.742,0,0,0,3.952,0Z" transform="translate(87.599 10.978) rotate(-135)"/>
    <path id="Path_14173" data-name="Path 14173" d="M3.952,0A3.762,3.762,0,0,0,0,3.813,3.775,3.775,0,0,0,3.819,7.764,3.754,3.754,0,0,0,7.756,3.946,3.742,3.742,0,0,0,3.952,0Z" transform="translate(87.599 175.468) rotate(-135)"/>
    <path id="Path_14101" data-name="Path 14101" d="M3.952,0A3.762,3.762,0,0,0,0,3.813,3.775,3.775,0,0,0,3.819,7.764,3.754,3.754,0,0,0,7.756,3.946,3.742,3.742,0,0,0,3.952,0Z" transform="translate(252.089 10.978) rotate(-135)"/>
    <path id="Path_14146" data-name="Path 14146" d="M3.952,0A3.762,3.762,0,0,0,0,3.813,3.775,3.775,0,0,0,3.819,7.764,3.754,3.754,0,0,0,7.756,3.946,3.742,3.742,0,0,0,3.952,0Z" transform="translate(252.089 175.468) rotate(-135)"/>
    <path id="Path_326" data-name="Path 326" d="M3.732,7.77A3.764,3.764,0,0,0,7.76,4.04,3.749,3.749,0,0,0,4.046,0,3.776,3.776,0,0,0,0,3.726,3.79,3.79,0,0,0,3.732,7.77Z" transform="translate(142.343 38.354) rotate(-135)"/>
    <path id="Path_14162" data-name="Path 14162" d="M3.732,7.77A3.764,3.764,0,0,0,7.76,4.04,3.749,3.749,0,0,0,4.046,0,3.776,3.776,0,0,0,0,3.726,3.79,3.79,0,0,0,3.732,7.77Z" transform="translate(142.343 202.844) rotate(-135)"/>
    <path id="Path_14120" data-name="Path 14120" d="M3.732,7.77A3.764,3.764,0,0,0,7.76,4.04,3.749,3.749,0,0,0,4.046,0,3.776,3.776,0,0,0,0,3.726,3.79,3.79,0,0,0,3.732,7.77Z" transform="translate(306.833 38.354) rotate(-135)"/>
    <path id="Path_14136" data-name="Path 14136" d="M3.732,7.77A3.764,3.764,0,0,0,7.76,4.04,3.749,3.749,0,0,0,4.046,0,3.776,3.776,0,0,0,0,3.726,3.79,3.79,0,0,0,3.732,7.77Z" transform="translate(306.833 202.844) rotate(-135)"/>
    <path id="Path_327" data-name="Path 327" d="M3.982,0A3.767,3.767,0,0,0,0,3.785,3.781,3.781,0,0,0,3.789,7.769,3.758,3.758,0,0,0,7.757,3.976,3.745,3.745,0,0,0,3.982,0Z" transform="translate(114.97 10.979) rotate(-135)"/>
    <path id="Path_14168" data-name="Path 14168" d="M3.982,0A3.767,3.767,0,0,0,0,3.785,3.781,3.781,0,0,0,3.789,7.769,3.758,3.758,0,0,0,7.757,3.976,3.745,3.745,0,0,0,3.982,0Z" transform="translate(114.97 175.469) rotate(-135)"/>
    <path id="Path_14110" data-name="Path 14110" d="M3.982,0A3.767,3.767,0,0,0,0,3.785,3.781,3.781,0,0,0,3.789,7.769,3.758,3.758,0,0,0,7.757,3.976,3.745,3.745,0,0,0,3.982,0Z" transform="translate(279.46 10.979) rotate(-135)"/>
    <path id="Path_14147" data-name="Path 14147" d="M3.982,0A3.767,3.767,0,0,0,0,3.785,3.781,3.781,0,0,0,3.789,7.769,3.758,3.758,0,0,0,7.757,3.976,3.745,3.745,0,0,0,3.982,0Z" transform="translate(279.46 175.469) rotate(-135)"/>
    <path id="Path_328" data-name="Path 328" d="M3.813,0A3.758,3.758,0,0,0,0,3.95,3.764,3.764,0,0,0,3.95,7.764a3.748,3.748,0,0,0,3.8-3.952A3.743,3.743,0,0,0,3.813,0Z" transform="translate(142.338 10.976) rotate(-135)"/>
    <path id="Path_14163" data-name="Path 14163" d="M3.813,0A3.758,3.758,0,0,0,0,3.95,3.764,3.764,0,0,0,3.95,7.764a3.748,3.748,0,0,0,3.8-3.952A3.743,3.743,0,0,0,3.813,0Z" transform="translate(142.338 175.466) rotate(-135)"/>
    <path id="Path_14121" data-name="Path 14121" d="M3.813,0A3.758,3.758,0,0,0,0,3.95,3.764,3.764,0,0,0,3.95,7.764a3.748,3.748,0,0,0,3.8-3.952A3.743,3.743,0,0,0,3.813,0Z" transform="translate(306.828 10.976) rotate(-135)"/>
    <path id="Path_14148" data-name="Path 14148" d="M3.813,0A3.758,3.758,0,0,0,0,3.95,3.764,3.764,0,0,0,3.95,7.764a3.748,3.748,0,0,0,3.8-3.952A3.743,3.743,0,0,0,3.813,0Z" transform="translate(306.828 175.466) rotate(-135)"/>
    <path id="Path_329" data-name="Path 329" d="M3.9,7.764a3.75,3.75,0,0,0,3.859-3.9A3.735,3.735,0,0,0,3.871,0,3.757,3.757,0,0,0,0,3.891,3.768,3.768,0,0,0,3.9,7.764Z" transform="translate(60.226 147.833) rotate(-135)"/>
    <path id="Path_14180" data-name="Path 14180" d="M3.9,7.764a3.75,3.75,0,0,0,3.859-3.9A3.735,3.735,0,0,0,3.871,0,3.757,3.757,0,0,0,0,3.891,3.768,3.768,0,0,0,3.9,7.764Z" transform="translate(60.226 312.324) rotate(-135)"/>
    <path id="Path_14112" data-name="Path 14112" d="M3.9,7.764a3.75,3.75,0,0,0,3.859-3.9A3.735,3.735,0,0,0,3.871,0,3.757,3.757,0,0,0,0,3.891,3.768,3.768,0,0,0,3.9,7.764Z" transform="translate(224.716 147.833) rotate(-135)"/>
    <path id="Path_14137" data-name="Path 14137" d="M3.9,7.764a3.75,3.75,0,0,0,3.859-3.9A3.735,3.735,0,0,0,3.871,0,3.757,3.757,0,0,0,0,3.891,3.768,3.768,0,0,0,3.9,7.764Z" transform="translate(224.716 312.324) rotate(-135)"/>
    <path id="Path_330" data-name="Path 330" d="M7.757,4.158A3.766,3.766,0,0,0,4.164.007a3.78,3.78,0,0,0-4.157,3.6,3.8,3.8,0,0,0,3.6,4.159A3.779,3.779,0,0,0,7.757,4.158Z" transform="translate(32.856 120.468) rotate(-135)"/>
    <path id="Path_14185" data-name="Path 14185" d="M7.757,4.158A3.766,3.766,0,0,0,4.164.007a3.78,3.78,0,0,0-4.157,3.6,3.8,3.8,0,0,0,3.6,4.159A3.779,3.779,0,0,0,7.757,4.158Z" transform="translate(32.856 284.958) rotate(-135)"/>
    <path id="Path_14103" data-name="Path 14103" d="M7.757,4.158A3.766,3.766,0,0,0,4.164.007a3.78,3.78,0,0,0-4.157,3.6,3.8,3.8,0,0,0,3.6,4.159A3.779,3.779,0,0,0,7.757,4.158Z" transform="translate(197.346 120.468) rotate(-135)"/>
    <path id="Path_14149" data-name="Path 14149" d="M7.757,4.158A3.766,3.766,0,0,0,4.164.007a3.78,3.78,0,0,0-4.157,3.6,3.8,3.8,0,0,0,3.6,4.159A3.779,3.779,0,0,0,7.757,4.158Z" transform="translate(197.346 284.958) rotate(-135)"/>
    <path id="Path_11892" data-name="Path 11892" d="M7.757,4.158A3.766,3.766,0,0,0,4.164.007a3.78,3.78,0,0,0-4.157,3.6,3.8,3.8,0,0,0,3.6,4.159A3.779,3.779,0,0,0,7.757,4.158Z" transform="translate(32.856 147.544) rotate(-135)"/>
    <path id="Path_14186" data-name="Path 14186" d="M7.757,4.158A3.766,3.766,0,0,0,4.164.007a3.78,3.78,0,0,0-4.157,3.6,3.8,3.8,0,0,0,3.6,4.159A3.779,3.779,0,0,0,7.757,4.158Z" transform="translate(32.856 312.034) rotate(-135)"/>
    <path id="Path_14113" data-name="Path 14113" d="M7.757,4.158A3.766,3.766,0,0,0,4.164.007a3.78,3.78,0,0,0-4.157,3.6,3.8,3.8,0,0,0,3.6,4.159A3.779,3.779,0,0,0,7.757,4.158Z" transform="translate(197.346 147.544) rotate(-135)"/>
    <path id="Path_14150" data-name="Path 14150" d="M7.757,4.158A3.766,3.766,0,0,0,4.164.007a3.78,3.78,0,0,0-4.157,3.6,3.8,3.8,0,0,0,3.6,4.159A3.779,3.779,0,0,0,7.757,4.158Z" transform="translate(197.346 312.034) rotate(-135)"/>
    <path id="Path_11890" data-name="Path 11890" d="M7.757,4.158A3.766,3.766,0,0,0,4.164.007a3.78,3.78,0,0,0-4.157,3.6,3.8,3.8,0,0,0,3.6,4.159A3.779,3.779,0,0,0,7.757,4.158Z" transform="translate(7.126 120.468) rotate(-135)"/>
    <path id="Path_14190" data-name="Path 14190" d="M7.757,4.158A3.766,3.766,0,0,0,4.164.007a3.78,3.78,0,0,0-4.157,3.6,3.8,3.8,0,0,0,3.6,4.159A3.779,3.779,0,0,0,7.757,4.158Z" transform="translate(7.126 284.958) rotate(-135)"/>
    <path id="Path_14104" data-name="Path 14104" d="M7.757,4.158A3.766,3.766,0,0,0,4.164.007a3.78,3.78,0,0,0-4.157,3.6,3.8,3.8,0,0,0,3.6,4.159A3.779,3.779,0,0,0,7.757,4.158Z" transform="translate(171.616 120.468) rotate(-135)"/>
    <path id="Path_14154" data-name="Path 14154" d="M7.757,4.158A3.766,3.766,0,0,0,4.164.007a3.78,3.78,0,0,0-4.157,3.6,3.8,3.8,0,0,0,3.6,4.159A3.779,3.779,0,0,0,7.757,4.158Z" transform="translate(171.616 284.958) rotate(-135)"/>
    <path id="Path_11891" data-name="Path 11891" d="M7.757,4.158A3.766,3.766,0,0,0,4.164.007a3.78,3.78,0,0,0-4.157,3.6,3.8,3.8,0,0,0,3.6,4.159A3.779,3.779,0,0,0,7.757,4.158Z" transform="translate(7.126 147.544) rotate(-135)"/>
    <path id="Path_14191" data-name="Path 14191" d="M7.757,4.158A3.766,3.766,0,0,0,4.164.007a3.78,3.78,0,0,0-4.157,3.6,3.8,3.8,0,0,0,3.6,4.159A3.779,3.779,0,0,0,7.757,4.158Z" transform="translate(7.126 312.034) rotate(-135)"/>
    <path id="Path_14114" data-name="Path 14114" d="M7.757,4.158A3.766,3.766,0,0,0,4.164.007a3.78,3.78,0,0,0-4.157,3.6,3.8,3.8,0,0,0,3.6,4.159A3.779,3.779,0,0,0,7.757,4.158Z" transform="translate(171.616 147.544) rotate(-135)"/>
    <path id="Path_14155" data-name="Path 14155" d="M7.757,4.158A3.766,3.766,0,0,0,4.164.007a3.78,3.78,0,0,0-4.157,3.6,3.8,3.8,0,0,0,3.6,4.159A3.779,3.779,0,0,0,7.757,4.158Z" transform="translate(171.616 312.034) rotate(-135)"/>
    <path id="Path_331" data-name="Path 331" d="M3.952,0A3.762,3.762,0,0,0,0,3.813,3.778,3.778,0,0,0,3.819,7.766,3.756,3.756,0,0,0,7.756,3.946,3.742,3.742,0,0,0,3.952,0Z" transform="translate(5.485 93.092) rotate(-135)"/>
    <path id="Path_14192" data-name="Path 14192" d="M3.952,0A3.762,3.762,0,0,0,0,3.813,3.778,3.778,0,0,0,3.819,7.766,3.756,3.756,0,0,0,7.756,3.946,3.742,3.742,0,0,0,3.952,0Z" transform="translate(5.485 257.582) rotate(-135)"/>
    <path id="Path_14096" data-name="Path 14096" d="M3.952,0A3.762,3.762,0,0,0,0,3.813,3.778,3.778,0,0,0,3.819,7.766,3.756,3.756,0,0,0,7.756,3.946,3.742,3.742,0,0,0,3.952,0Z" transform="translate(169.975 93.092) rotate(-135)"/>
    <path id="Path_14156" data-name="Path 14156" d="M3.952,0A3.762,3.762,0,0,0,0,3.813,3.778,3.778,0,0,0,3.819,7.766,3.756,3.756,0,0,0,7.756,3.946,3.742,3.742,0,0,0,3.952,0Z" transform="translate(169.975 257.582) rotate(-135)"/>
    <path id="Path_332" data-name="Path 332" d="M3.946,7.762a3.749,3.749,0,0,0,3.8-3.952A3.74,3.74,0,0,0,3.809,0,3.75,3.75,0,0,0,0,3.948,3.758,3.758,0,0,0,3.946,7.762Z" transform="translate(87.594 147.83) rotate(-135)"/>
    <path id="Path_14174" data-name="Path 14174" d="M3.946,7.762a3.749,3.749,0,0,0,3.8-3.952A3.74,3.74,0,0,0,3.809,0,3.75,3.75,0,0,0,0,3.948,3.758,3.758,0,0,0,3.946,7.762Z" transform="translate(87.594 312.32) rotate(-135)"/>
    <path id="Path_14115" data-name="Path 14115" d="M3.946,7.762a3.749,3.749,0,0,0,3.8-3.952A3.74,3.74,0,0,0,3.809,0,3.75,3.75,0,0,0,0,3.948,3.758,3.758,0,0,0,3.946,7.762Z" transform="translate(252.084 147.83) rotate(-135)"/>
    <path id="Path_14138" data-name="Path 14138" d="M3.946,7.762a3.749,3.749,0,0,0,3.8-3.952A3.74,3.74,0,0,0,3.809,0,3.75,3.75,0,0,0,0,3.948,3.758,3.758,0,0,0,3.946,7.762Z" transform="translate(252.084 312.32) rotate(-135)"/>
    <path id="Path_333" data-name="Path 333" d="M3.946,0A3.749,3.749,0,0,0,0,3.811,3.764,3.764,0,0,0,3.811,7.766,3.756,3.756,0,0,0,7.748,3.946,3.739,3.739,0,0,0,3.946,0Z" transform="translate(60.222 120.458) rotate(-135)"/>
    <path id="Path_14181" data-name="Path 14181" d="M3.946,0A3.749,3.749,0,0,0,0,3.811,3.764,3.764,0,0,0,3.811,7.766,3.756,3.756,0,0,0,7.748,3.946,3.739,3.739,0,0,0,3.946,0Z" transform="translate(60.222 284.948) rotate(-135)"/>
    <path id="Path_14105" data-name="Path 14105" d="M3.946,0A3.749,3.749,0,0,0,0,3.811,3.764,3.764,0,0,0,3.811,7.766,3.756,3.756,0,0,0,7.748,3.946,3.739,3.739,0,0,0,3.946,0Z" transform="translate(224.712 120.458) rotate(-135)"/>
    <path id="Path_14139" data-name="Path 14139" d="M3.946,0A3.749,3.749,0,0,0,0,3.811,3.764,3.764,0,0,0,3.811,7.766,3.756,3.756,0,0,0,7.748,3.946,3.739,3.739,0,0,0,3.946,0Z" transform="translate(224.712 284.948) rotate(-135)"/>
    <path id="Path_334" data-name="Path 334" d="M3.913,0A3.747,3.747,0,0,0,0,3.843,3.759,3.759,0,0,0,3.841,7.764,3.75,3.75,0,0,0,7.748,3.915,3.737,3.737,0,0,0,3.913,0Z" transform="translate(32.851 93.086) rotate(-135)"/>
    <path id="Path_14187" data-name="Path 14187" d="M3.913,0A3.747,3.747,0,0,0,0,3.843,3.759,3.759,0,0,0,3.841,7.764,3.75,3.75,0,0,0,7.748,3.915,3.737,3.737,0,0,0,3.913,0Z" transform="translate(32.851 257.576) rotate(-135)"/>
    <path id="Path_14097" data-name="Path 14097" d="M3.913,0A3.747,3.747,0,0,0,0,3.843,3.759,3.759,0,0,0,3.841,7.764,3.75,3.75,0,0,0,7.748,3.915,3.737,3.737,0,0,0,3.913,0Z" transform="translate(197.341 93.086) rotate(-135)"/>
    <path id="Path_14151" data-name="Path 14151" d="M3.913,0A3.747,3.747,0,0,0,0,3.843,3.759,3.759,0,0,0,3.841,7.764,3.75,3.75,0,0,0,7.748,3.915,3.737,3.737,0,0,0,3.913,0Z" transform="translate(197.341 257.576) rotate(-135)"/>
    <path id="Path_335" data-name="Path 335" d="M3.865,0A3.747,3.747,0,0,0,0,3.891,3.759,3.759,0,0,0,3.889,7.764a3.749,3.749,0,0,0,3.859-3.9A3.737,3.737,0,0,0,3.865,0Z" transform="translate(5.479 65.715) rotate(-135)"/>
    <path id="Path_14193" data-name="Path 14193" d="M3.865,0A3.747,3.747,0,0,0,0,3.891,3.759,3.759,0,0,0,3.889,7.764a3.749,3.749,0,0,0,3.859-3.9A3.737,3.737,0,0,0,3.865,0Z" transform="translate(5.479 230.205) rotate(-135)"/>
    <path id="Path_14091" data-name="Path 14091" d="M3.865,0A3.747,3.747,0,0,0,0,3.891,3.759,3.759,0,0,0,3.889,7.764a3.749,3.749,0,0,0,3.859-3.9A3.737,3.737,0,0,0,3.865,0Z" transform="translate(169.969 65.715) rotate(-135)"/>
    <path id="Path_14157" data-name="Path 14157" d="M3.865,0A3.747,3.747,0,0,0,0,3.891,3.759,3.759,0,0,0,3.889,7.764a3.749,3.749,0,0,0,3.859-3.9A3.737,3.737,0,0,0,3.865,0Z" transform="translate(169.969 230.205) rotate(-135)"/>
    <path id="Path_336" data-name="Path 336" d="M3.843,7.764A3.752,3.752,0,0,0,7.754,3.919,3.738,3.738,0,0,0,3.923,0,3.758,3.758,0,0,0,0,3.839,3.772,3.772,0,0,0,3.843,7.764Z" transform="translate(114.97 147.834) rotate(-135)"/>
    <path id="Path_14169" data-name="Path 14169" d="M3.843,7.764A3.752,3.752,0,0,0,7.754,3.919,3.738,3.738,0,0,0,3.923,0,3.758,3.758,0,0,0,0,3.839,3.772,3.772,0,0,0,3.843,7.764Z" transform="translate(114.97 312.324) rotate(-135)"/>
    <path id="Path_14116" data-name="Path 14116" d="M3.843,7.764A3.752,3.752,0,0,0,7.754,3.919,3.738,3.738,0,0,0,3.923,0,3.758,3.758,0,0,0,0,3.839,3.772,3.772,0,0,0,3.843,7.764Z" transform="translate(279.46 147.834) rotate(-135)"/>
    <path id="Path_14129" data-name="Path 14129" d="M3.843,7.764A3.752,3.752,0,0,0,7.754,3.919,3.738,3.738,0,0,0,3.923,0,3.758,3.758,0,0,0,0,3.839,3.772,3.772,0,0,0,3.843,7.764Z" transform="translate(279.46 312.324) rotate(-135)"/>
    <path id="Path_337" data-name="Path 337" d="M3.845,7.764A3.749,3.749,0,0,0,7.756,3.919,3.737,3.737,0,0,0,3.925,0,3.762,3.762,0,0,0,0,3.839,3.772,3.772,0,0,0,3.845,7.764Z" transform="translate(87.599 120.464) rotate(-135)"/>
    <path id="Path_14175" data-name="Path 14175" d="M3.845,7.764A3.749,3.749,0,0,0,7.756,3.919,3.737,3.737,0,0,0,3.925,0,3.762,3.762,0,0,0,0,3.839,3.772,3.772,0,0,0,3.845,7.764Z" transform="translate(87.599 284.954) rotate(-135)"/>
    <path id="Path_14106" data-name="Path 14106" d="M3.845,7.764A3.749,3.749,0,0,0,7.756,3.919,3.737,3.737,0,0,0,3.925,0,3.762,3.762,0,0,0,0,3.839,3.772,3.772,0,0,0,3.845,7.764Z" transform="translate(252.089 120.464) rotate(-135)"/>
    <path id="Path_14140" data-name="Path 14140" d="M3.845,7.764A3.749,3.749,0,0,0,7.756,3.919,3.737,3.737,0,0,0,3.925,0,3.762,3.762,0,0,0,0,3.839,3.772,3.772,0,0,0,3.845,7.764Z" transform="translate(252.089 284.954) rotate(-135)"/>
    <path id="Path_338" data-name="Path 338" d="M4.048,0A3.773,3.773,0,0,0,0,3.722,3.791,3.791,0,0,0,3.73,7.77,3.767,3.767,0,0,0,7.76,4.04,3.746,3.746,0,0,0,4.048,0Z" transform="translate(60.229 93.096) rotate(-135)"/>
    <path id="Path_14182" data-name="Path 14182" d="M4.048,0A3.773,3.773,0,0,0,0,3.722,3.791,3.791,0,0,0,3.73,7.77,3.767,3.767,0,0,0,7.76,4.04,3.746,3.746,0,0,0,4.048,0Z" transform="translate(60.229 257.586) rotate(-135)"/>
    <path id="Path_14098" data-name="Path 14098" d="M4.048,0A3.773,3.773,0,0,0,0,3.722,3.791,3.791,0,0,0,3.73,7.77,3.767,3.767,0,0,0,7.76,4.04,3.746,3.746,0,0,0,4.048,0Z" transform="translate(224.719 93.096) rotate(-135)"/>
    <path id="Path_14141" data-name="Path 14141" d="M4.048,0A3.773,3.773,0,0,0,0,3.722,3.791,3.791,0,0,0,3.73,7.77,3.767,3.767,0,0,0,7.76,4.04,3.746,3.746,0,0,0,4.048,0Z" transform="translate(224.719 257.586) rotate(-135)"/>
    <path id="Path_339" data-name="Path 339" d="M3.9,0A3.756,3.756,0,0,0,0,3.865a3.769,3.769,0,0,0,3.871,3.9A3.747,3.747,0,0,0,7.754,3.891,3.736,3.736,0,0,0,3.9,0Z" transform="translate(32.855 65.719) rotate(-135)"/>
    <path id="Path_14188" data-name="Path 14188" d="M3.9,0A3.756,3.756,0,0,0,0,3.865a3.769,3.769,0,0,0,3.871,3.9A3.747,3.747,0,0,0,7.754,3.891,3.736,3.736,0,0,0,3.9,0Z" transform="translate(32.855 230.209) rotate(-135)"/>
    <path id="Path_14092" data-name="Path 14092" d="M3.9,0A3.756,3.756,0,0,0,0,3.865a3.769,3.769,0,0,0,3.871,3.9A3.747,3.747,0,0,0,7.754,3.891,3.736,3.736,0,0,0,3.9,0Z" transform="translate(197.345 65.719) rotate(-135)"/>
    <path id="Path_14152" data-name="Path 14152" d="M3.9,0A3.756,3.756,0,0,0,0,3.865a3.769,3.769,0,0,0,3.871,3.9A3.747,3.747,0,0,0,7.754,3.891,3.736,3.736,0,0,0,3.9,0Z" transform="translate(197.345 230.209) rotate(-135)"/>
    <path id="Path_340" data-name="Path 340" d="M3.921,0A3.761,3.761,0,0,0,0,3.841,3.774,3.774,0,0,0,3.847,7.764,3.751,3.751,0,0,0,7.756,3.915,3.737,3.737,0,0,0,3.921,0Z" transform="translate(5.485 38.349) rotate(-135)"/>
    <path id="Path_14194" data-name="Path 14194" d="M3.921,0A3.761,3.761,0,0,0,0,3.841,3.774,3.774,0,0,0,3.847,7.764,3.751,3.751,0,0,0,7.756,3.915,3.737,3.737,0,0,0,3.921,0Z" transform="translate(5.485 202.839) rotate(-135)"/>
    <path id="Path_14090" data-name="Path 14090" d="M3.921,0A3.761,3.761,0,0,0,0,3.841,3.774,3.774,0,0,0,3.847,7.764,3.751,3.751,0,0,0,7.756,3.915,3.737,3.737,0,0,0,3.921,0Z" transform="translate(169.975 38.349) rotate(-135)"/>
    <path id="Path_14158" data-name="Path 14158" d="M3.921,0A3.761,3.761,0,0,0,0,3.841,3.774,3.774,0,0,0,3.847,7.764,3.751,3.751,0,0,0,7.756,3.915,3.737,3.737,0,0,0,3.921,0Z" transform="translate(169.975 202.839) rotate(-135)"/>
    <path id="Path_341" data-name="Path 341" d="M3.847,7.764A3.75,3.75,0,0,0,7.754,3.915,3.736,3.736,0,0,0,3.921,0,3.759,3.759,0,0,0,0,3.841,3.771,3.771,0,0,0,3.847,7.764Z" transform="translate(142.341 147.834) rotate(-135)"/>
    <path id="Path_14164" data-name="Path 14164" d="M3.847,7.764A3.75,3.75,0,0,0,7.754,3.915,3.736,3.736,0,0,0,3.921,0,3.759,3.759,0,0,0,0,3.841,3.771,3.771,0,0,0,3.847,7.764Z" transform="translate(142.341 312.324) rotate(-135)"/>
    <path id="Path_14122" data-name="Path 14122" d="M3.847,7.764A3.75,3.75,0,0,0,7.754,3.915,3.736,3.736,0,0,0,3.921,0,3.759,3.759,0,0,0,0,3.841,3.771,3.771,0,0,0,3.847,7.764Z" transform="translate(306.831 147.834) rotate(-135)"/>
    <path id="Path_14124" data-name="Path 14124" d="M3.847,7.764A3.75,3.75,0,0,0,7.754,3.915,3.736,3.736,0,0,0,3.921,0,3.759,3.759,0,0,0,0,3.841,3.771,3.771,0,0,0,3.847,7.764Z" transform="translate(306.831 312.324) rotate(-135)"/>
    <path id="Path_342" data-name="Path 342" d="M3.73,7.77A3.767,3.767,0,0,0,7.76,4.04,3.746,3.746,0,0,0,4.048,0,3.773,3.773,0,0,0,0,3.722,3.791,3.791,0,0,0,3.73,7.77Z" transform="translate(114.972 120.468) rotate(-135)"/>
    <path id="Path_14170" data-name="Path 14170" d="M3.73,7.77A3.767,3.767,0,0,0,7.76,4.04,3.746,3.746,0,0,0,4.048,0,3.773,3.773,0,0,0,0,3.722,3.791,3.791,0,0,0,3.73,7.77Z" transform="translate(114.972 284.958) rotate(-135)"/>
    <path id="Path_14111" data-name="Path 14111" d="M3.73,7.77A3.767,3.767,0,0,0,7.76,4.04,3.746,3.746,0,0,0,4.048,0,3.773,3.773,0,0,0,0,3.722,3.791,3.791,0,0,0,3.73,7.77Z" transform="translate(279.462 120.468) rotate(-135)"/>
    <path id="Path_14130" data-name="Path 14130" d="M3.73,7.77A3.767,3.767,0,0,0,7.76,4.04,3.746,3.746,0,0,0,4.048,0,3.773,3.773,0,0,0,0,3.722,3.791,3.791,0,0,0,3.73,7.77Z" transform="translate(279.462 284.958) rotate(-135)"/>
    <path id="Path_343" data-name="Path 343" d="M3.944,0A3.763,3.763,0,0,0,0,3.821,3.775,3.775,0,0,0,3.827,7.764,3.751,3.751,0,0,0,7.756,3.938,3.738,3.738,0,0,0,3.944,0Z" transform="translate(87.599 93.092) rotate(-135)"/>
    <path id="Path_14176" data-name="Path 14176" d="M3.944,0A3.763,3.763,0,0,0,0,3.821,3.775,3.775,0,0,0,3.827,7.764,3.751,3.751,0,0,0,7.756,3.938,3.738,3.738,0,0,0,3.944,0Z" transform="translate(87.599 257.582) rotate(-135)"/>
    <path id="Path_14102" data-name="Path 14102" d="M3.944,0A3.763,3.763,0,0,0,0,3.821,3.775,3.775,0,0,0,3.827,7.764,3.751,3.751,0,0,0,7.756,3.938,3.738,3.738,0,0,0,3.944,0Z" transform="translate(252.089 93.092) rotate(-135)"/>
    <path id="Path_14142" data-name="Path 14142" d="M3.944,0A3.763,3.763,0,0,0,0,3.821,3.775,3.775,0,0,0,3.827,7.764,3.751,3.751,0,0,0,7.756,3.938,3.738,3.738,0,0,0,3.944,0Z" transform="translate(252.089 257.582) rotate(-135)"/>
  </g>
</svg>
