<svg id="mail_5_" data-name="mail (5)" xmlns="http://www.w3.org/2000/svg" width="30.933" height="23.2" viewBox="0 0 30.933 23.2">
  <g id="Group_207" data-name="Group 207">
    <g id="Group_206" data-name="Group 206" transform="translate(0 0)">
      <path id="Path_11910" data-name="Path 11910" d="M7.142,65.882c4.245,3.6,11.695,9.921,13.884,11.893a1.293,1.293,0,0,0,1.871,0c2.191-1.974,9.641-8.3,13.886-11.9a.644.644,0,0,0,.091-.889A2.559,2.559,0,0,0,34.851,64H9.074a2.559,2.559,0,0,0-2.023.993A.644.644,0,0,0,7.142,65.882Z" transform="translate(-6.496 -64)" fill="#fff"/>
      <path id="Path_11911" data-name="Path 11911" d="M30.559,126.472a.642.642,0,0,0-.687.093c-4.708,3.991-10.717,9.107-12.608,10.811a2.61,2.61,0,0,1-3.6,0c-2.015-1.816-8.763-7.552-12.606-10.809A.644.644,0,0,0,0,127.056v16.207a2.58,2.58,0,0,0,2.578,2.578H28.355a2.58,2.58,0,0,0,2.578-2.578V127.056A.644.644,0,0,0,30.559,126.472Z" transform="translate(0 -122.641)" fill="#fff"/>
    </g>
  </g>
</svg>
