<svg xmlns="http://www.w3.org/2000/svg" width="30.295" height="30.295" viewBox="0 0 30.295 30.295">
  <path id="phone-solid_2_" data-name="phone-solid (2)" d="M1.09,1.445,7.244.025A1.429,1.429,0,0,1,8.871.848l2.84,6.627A1.416,1.416,0,0,1,11.3,9.131L7.717,12.066A21.928,21.928,0,0,0,18.2,22.551l2.935-3.586a1.419,1.419,0,0,1,1.657-.408L29.42,21.4a1.437,1.437,0,0,1,.828,1.633l-1.42,6.153a1.42,1.42,0,0,1-1.385,1.1A27.451,27.451,0,0,1-.01,2.83,1.418,1.418,0,0,1,1.09,1.445Z" transform="translate(0.01 0.011)" fill="#fff"/>
</svg>
