<svg xmlns="http://www.w3.org/2000/svg" width="12.188" height="20" viewBox="0 0 12.188 20">
  <path id="Union_2" data-name="Union 2" d="M.938,20A.938.938,0,0,1,0,19.063v-.156a.938.938,0,0,1,.938-.937h0V15.117a3.77,3.77,0,0,1,1.387-2.739l2.988-2.194V9.815L2.326,7.622A3.767,3.767,0,0,1,.941,4.883l0-2.852A.938.938,0,0,1,0,1.094V.937A.938.938,0,0,1,.938,0H11.252a.936.936,0,0,1,.936.937v.156a.936.936,0,0,1-.936.937h0V4.883a3.789,3.789,0,0,1-1.4,2.741L6.875,9.814v.372l2.979,2.19a3.789,3.789,0,0,1,1.4,2.741v2.852h0a.936.936,0,0,1,.935.937v.156a.936.936,0,0,1-.935.937Zm5.35-8.376,2.535,1.87a2.785,2.785,0,0,1,1.021,2.024v2.451h.781V15.117a3.2,3.2,0,0,0-1.141-2.238L6.377,10.6a.312.312,0,0,1-.127-.251V9.656A.314.314,0,0,1,6.382,9.4l3.1-2.283a3.2,3.2,0,0,0,1.141-2.238V2.031H1.563V4.883A3.174,3.174,0,0,0,2.7,7.118L5.811,9.405a.311.311,0,0,1,.126.252v.685a.309.309,0,0,1-.127.252L2.7,12.882a3.172,3.172,0,0,0-1.134,2.235v2.852h.781V15.518A2.783,2.783,0,0,1,3.367,13.5l2.549-1.872a.313.313,0,0,1,.371,0Zm-.37-3.247L3.367,6.5a.312.312,0,0,1,.185-.564l5.088,0a.312.312,0,0,1,.185.564L6.287,8.376a.312.312,0,0,1-.37,0Z" fill="#e61c3c"/>
</svg>
