<svg xmlns="http://www.w3.org/2000/svg" xmlns:xlink="http://www.w3.org/1999/xlink" width="188.604" height="198.6" viewBox="0 0 188.604 198.6">
  <defs>
    <clipPath id="clip-path">
      <rect width="188.604" height="198.6" fill="none"/>
    </clipPath>
  </defs>
  <g id="Repeat_Grid_4" data-name="Repeat Grid 4" clip-path="url(#clip-path)">
    <g transform="translate(-610.999 -822.262)">
      <g id="Group_585" data-name="Group 585" transform="translate(-9595.24 -3742.241)" opacity="0.3">
        <path id="Path_311" data-name="Path 311" d="M2.787,0A2.689,2.689,0,0,0,0,2.77,2.7,2.7,0,0,0,2.773,5.558,2.682,2.682,0,0,0,5.551,2.784,2.675,2.675,0,0,0,2.787,0Z" transform="translate(10249.357 4611.553) rotate(-135)" fill="#fff"/>
        <path id="Path_14177" data-name="Path 14177" d="M2.787,0A2.689,2.689,0,0,0,0,2.77,2.7,2.7,0,0,0,2.773,5.558,2.682,2.682,0,0,0,5.551,2.784,2.675,2.675,0,0,0,2.787,0Z" transform="translate(10249.357 4729.316) rotate(-135)" fill="#fff"/>
        <path id="Path_14093" data-name="Path 14093" d="M2.787,0A2.689,2.689,0,0,0,0,2.77,2.7,2.7,0,0,0,2.773,5.558,2.682,2.682,0,0,0,5.551,2.784,2.675,2.675,0,0,0,2.787,0Z" transform="translate(10367.121 4611.553) rotate(-135)" fill="#fff"/>
        <path id="Path_14131" data-name="Path 14131" d="M2.787,0A2.689,2.689,0,0,0,0,2.77,2.7,2.7,0,0,0,2.773,5.558,2.682,2.682,0,0,0,5.551,2.784,2.675,2.675,0,0,0,2.787,0Z" transform="translate(10367.121 4729.316) rotate(-135)" fill="#fff"/>
        <path id="Path_312" data-name="Path 312" d="M2.848,0A2.694,2.694,0,0,0,0,2.71,2.706,2.706,0,0,0,2.714,5.561,2.691,2.691,0,0,0,5.553,2.844,2.68,2.68,0,0,0,2.848,0Z" transform="translate(10229.763 4591.959) rotate(-135)" fill="#fff"/>
        <path id="Path_14183" data-name="Path 14183" d="M2.848,0A2.694,2.694,0,0,0,0,2.71,2.706,2.706,0,0,0,2.714,5.561,2.691,2.691,0,0,0,5.553,2.844,2.68,2.68,0,0,0,2.848,0Z" transform="translate(10229.763 4709.722) rotate(-135)" fill="#fff"/>
        <path id="Path_14088" data-name="Path 14088" d="M2.848,0A2.694,2.694,0,0,0,0,2.71,2.706,2.706,0,0,0,2.714,5.561,2.691,2.691,0,0,0,5.553,2.844,2.68,2.68,0,0,0,2.848,0Z" transform="translate(10347.524 4591.959) rotate(-135)" fill="#fff"/>
        <path id="Path_14143" data-name="Path 14143" d="M2.848,0A2.694,2.694,0,0,0,0,2.71,2.706,2.706,0,0,0,2.714,5.561,2.691,2.691,0,0,0,5.553,2.844,2.68,2.68,0,0,0,2.848,0Z" transform="translate(10347.524 4709.722) rotate(-135)" fill="#fff"/>
        <path id="Path_313" data-name="Path 313" d="M2.81,0A2.692,2.692,0,0,0,0,2.748a2.7,2.7,0,0,0,2.752,2.81,2.686,2.686,0,0,0,2.8-2.753A2.676,2.676,0,0,0,2.81,0Z" transform="translate(10210.167 4572.362) rotate(-135)" fill="#fff"/>
        <path id="Path_14189" data-name="Path 14189" d="M2.81,0A2.692,2.692,0,0,0,0,2.748a2.7,2.7,0,0,0,2.752,2.81,2.686,2.686,0,0,0,2.8-2.753A2.676,2.676,0,0,0,2.81,0Z" transform="translate(10210.167 4690.125) rotate(-135)" fill="#fff"/>
        <path id="Path_14087" data-name="Path 14087" d="M2.81,0A2.692,2.692,0,0,0,0,2.748a2.7,2.7,0,0,0,2.752,2.81,2.686,2.686,0,0,0,2.8-2.753A2.676,2.676,0,0,0,2.81,0Z" transform="translate(10327.93 4572.362) rotate(-135)" fill="#fff"/>
        <path id="Path_14153" data-name="Path 14153" d="M2.81,0A2.692,2.692,0,0,0,0,2.748a2.7,2.7,0,0,0,2.752,2.81,2.686,2.686,0,0,0,2.8-2.753A2.676,2.676,0,0,0,2.81,0Z" transform="translate(10327.93 4690.125) rotate(-135)" fill="#fff"/>
        <path id="Path_314" data-name="Path 314" d="M2.771,5.558a2.683,2.683,0,0,0,2.78-2.773A2.675,2.675,0,0,0,2.79,0,2.69,2.69,0,0,0,0,2.767,2.7,2.7,0,0,0,2.771,5.558Z" transform="translate(10308.146 4650.745) rotate(-135)" fill="#fff"/>
        <path id="Path_14159" data-name="Path 14159" d="M2.771,5.558a2.683,2.683,0,0,0,2.78-2.773A2.675,2.675,0,0,0,2.79,0,2.69,2.69,0,0,0,0,2.767,2.7,2.7,0,0,0,2.771,5.558Z" transform="translate(10308.146 4768.508) rotate(-135)" fill="#fff"/>
        <path id="Path_14117" data-name="Path 14117" d="M2.771,5.558a2.683,2.683,0,0,0,2.78-2.773A2.675,2.675,0,0,0,2.79,0,2.69,2.69,0,0,0,0,2.767,2.7,2.7,0,0,0,2.771,5.558Z" transform="translate(10425.908 4650.745) rotate(-135)" fill="#fff"/>
        <path id="Path_14123" data-name="Path 14123" d="M2.771,5.558a2.683,2.683,0,0,0,2.78-2.773A2.675,2.675,0,0,0,2.79,0,2.69,2.69,0,0,0,0,2.767,2.7,2.7,0,0,0,2.771,5.558Z" transform="translate(10425.908 4768.508) rotate(-135)" fill="#fff"/>
        <path id="Path_315" data-name="Path 315" d="M2.733,5.562a2.689,2.689,0,0,0,2.82-2.734A2.68,2.68,0,0,0,2.831,0,2.7,2.7,0,0,0,0,2.728,2.705,2.705,0,0,0,2.733,5.562Z" transform="translate(10288.549 4631.151) rotate(-135)" fill="#fff"/>
        <path id="Path_14165" data-name="Path 14165" d="M2.733,5.562a2.689,2.689,0,0,0,2.82-2.734A2.68,2.68,0,0,0,2.831,0,2.7,2.7,0,0,0,0,2.728,2.705,2.705,0,0,0,2.733,5.562Z" transform="translate(10288.549 4748.914) rotate(-135)" fill="#fff"/>
        <path id="Path_14107" data-name="Path 14107" d="M2.733,5.562a2.689,2.689,0,0,0,2.82-2.734A2.68,2.68,0,0,0,2.831,0,2.7,2.7,0,0,0,0,2.728,2.705,2.705,0,0,0,2.733,5.562Z" transform="translate(10406.313 4631.151) rotate(-135)" fill="#fff"/>
        <path id="Path_14125" data-name="Path 14125" d="M2.733,5.562a2.689,2.689,0,0,0,2.82-2.734A2.68,2.68,0,0,0,2.831,0,2.7,2.7,0,0,0,0,2.728,2.705,2.705,0,0,0,2.733,5.562Z" transform="translate(10406.313 4748.914) rotate(-135)" fill="#fff"/>
        <path id="Path_316" data-name="Path 316" d="M2.75,0A2.69,2.69,0,0,0,0,2.808a2.7,2.7,0,0,0,2.81,2.75A2.682,2.682,0,0,0,5.551,2.746,2.676,2.676,0,0,0,2.75,0Z" transform="translate(10268.954 4611.553) rotate(-135)" fill="#fff"/>
        <path id="Path_14171" data-name="Path 14171" d="M2.75,0A2.69,2.69,0,0,0,0,2.808a2.7,2.7,0,0,0,2.81,2.75A2.682,2.682,0,0,0,5.551,2.746,2.676,2.676,0,0,0,2.75,0Z" transform="translate(10268.954 4729.316) rotate(-135)" fill="#fff"/>
        <path id="Path_14099" data-name="Path 14099" d="M2.75,0A2.69,2.69,0,0,0,0,2.808a2.7,2.7,0,0,0,2.81,2.75A2.682,2.682,0,0,0,5.551,2.746,2.676,2.676,0,0,0,2.75,0Z" transform="translate(10386.716 4611.553) rotate(-135)" fill="#fff"/>
        <path id="Path_14132" data-name="Path 14132" d="M2.75,0A2.69,2.69,0,0,0,0,2.808a2.7,2.7,0,0,0,2.81,2.75A2.682,2.682,0,0,0,5.551,2.746,2.676,2.676,0,0,0,2.75,0Z" transform="translate(10386.716 4729.316) rotate(-135)" fill="#fff"/>
        <path id="Path_317" data-name="Path 317" d="M2.9,0A2.7,2.7,0,0,0,0,2.666a2.715,2.715,0,0,0,2.67,2.9A2.7,2.7,0,0,0,5.556,2.891,2.683,2.683,0,0,0,2.9,0Z" transform="translate(10249.359 4591.961) rotate(-135)" fill="#fff"/>
        <path id="Path_14178" data-name="Path 14178" d="M2.9,0A2.7,2.7,0,0,0,0,2.666a2.715,2.715,0,0,0,2.67,2.9A2.7,2.7,0,0,0,5.556,2.891,2.683,2.683,0,0,0,2.9,0Z" transform="translate(10249.359 4709.724) rotate(-135)" fill="#fff"/>
        <path id="Path_14094" data-name="Path 14094" d="M2.9,0A2.7,2.7,0,0,0,0,2.666a2.715,2.715,0,0,0,2.67,2.9A2.7,2.7,0,0,0,5.556,2.891,2.683,2.683,0,0,0,2.9,0Z" transform="translate(10367.123 4591.961) rotate(-135)" fill="#fff"/>
        <path id="Path_14133" data-name="Path 14133" d="M2.9,0A2.7,2.7,0,0,0,0,2.666a2.715,2.715,0,0,0,2.67,2.9A2.7,2.7,0,0,0,5.556,2.891,2.683,2.683,0,0,0,2.9,0Z" transform="translate(10367.123 4709.724) rotate(-135)" fill="#fff"/>
        <path id="Path_318" data-name="Path 318" d="M2.828,0A2.692,2.692,0,0,0,0,2.73,2.706,2.706,0,0,0,2.734,5.56,2.69,2.69,0,0,0,5.553,2.823,2.679,2.679,0,0,0,2.828,0Z" transform="translate(10229.763 4572.363) rotate(-135)" fill="#fff"/>
        <path id="Path_14184" data-name="Path 14184" d="M2.828,0A2.692,2.692,0,0,0,0,2.73,2.706,2.706,0,0,0,2.734,5.56,2.69,2.69,0,0,0,5.553,2.823,2.679,2.679,0,0,0,2.828,0Z" transform="translate(10229.763 4690.126) rotate(-135)" fill="#fff"/>
        <path id="Path_14089" data-name="Path 14089" d="M2.828,0A2.692,2.692,0,0,0,0,2.73,2.706,2.706,0,0,0,2.734,5.56,2.69,2.69,0,0,0,5.553,2.823,2.679,2.679,0,0,0,2.828,0Z" transform="translate(10347.526 4572.363) rotate(-135)" fill="#fff"/>
        <path id="Path_14144" data-name="Path 14144" d="M2.828,0A2.692,2.692,0,0,0,0,2.73,2.706,2.706,0,0,0,2.734,5.56,2.69,2.69,0,0,0,5.553,2.823,2.679,2.679,0,0,0,2.828,0Z" transform="translate(10347.526 4690.126) rotate(-135)" fill="#fff"/>
        <path id="Path_319" data-name="Path 319" d="M2.79,5.558a2.683,2.683,0,0,0,2.757-2.8A2.675,2.675,0,0,0,2.763,0,2.682,2.682,0,0,0,0,2.792,2.69,2.69,0,0,0,2.79,5.558Z" transform="translate(10308.143 4631.146) rotate(-135)" fill="#fff"/>
        <path id="Path_14160" data-name="Path 14160" d="M2.79,5.558a2.683,2.683,0,0,0,2.757-2.8A2.675,2.675,0,0,0,2.763,0,2.682,2.682,0,0,0,0,2.792,2.69,2.69,0,0,0,2.79,5.558Z" transform="translate(10308.143 4748.909) rotate(-135)" fill="#fff"/>
        <path id="Path_14118" data-name="Path 14118" d="M2.79,5.558a2.683,2.683,0,0,0,2.757-2.8A2.675,2.675,0,0,0,2.763,0,2.682,2.682,0,0,0,0,2.792,2.69,2.69,0,0,0,2.79,5.558Z" transform="translate(10425.904 4631.146) rotate(-135)" fill="#fff"/>
        <path id="Path_14126" data-name="Path 14126" d="M2.79,5.558a2.683,2.683,0,0,0,2.757-2.8A2.675,2.675,0,0,0,2.763,0,2.682,2.682,0,0,0,0,2.792,2.69,2.69,0,0,0,2.79,5.558Z" transform="translate(10425.904 4748.909) rotate(-135)" fill="#fff"/>
        <path id="Path_320" data-name="Path 320" d="M.005,2.58A2.707,2.707,0,0,0,2.581,5.558,2.7,2.7,0,0,0,5.548,2.977,2.7,2.7,0,0,0,2.977.005,2.7,2.7,0,0,0,.005,2.58Z" transform="translate(10288.548 4611.554) rotate(-135)" fill="#fff"/>
        <path id="Path_14166" data-name="Path 14166" d="M.005,2.58A2.707,2.707,0,0,0,2.581,5.558,2.7,2.7,0,0,0,5.548,2.977,2.7,2.7,0,0,0,2.977.005,2.7,2.7,0,0,0,.005,2.58Z" transform="translate(10288.548 4729.316) rotate(-135)" fill="#fff"/>
        <path id="Path_14108" data-name="Path 14108" d="M.005,2.58A2.707,2.707,0,0,0,2.581,5.558,2.7,2.7,0,0,0,5.548,2.977,2.7,2.7,0,0,0,2.977.005,2.7,2.7,0,0,0,.005,2.58Z" transform="translate(10406.31 4611.554) rotate(-135)" fill="#fff"/>
        <path id="Path_14127" data-name="Path 14127" d="M.005,2.58A2.707,2.707,0,0,0,2.581,5.558,2.7,2.7,0,0,0,5.548,2.977,2.7,2.7,0,0,0,2.977.005,2.7,2.7,0,0,0,.005,2.58Z" transform="translate(10406.31 4729.316) rotate(-135)" fill="#fff"/>
        <path id="Path_321" data-name="Path 321" d="M2.89,0A2.69,2.69,0,0,0,0,2.666a2.7,2.7,0,0,0,2.663,2.9,2.7,2.7,0,0,0,2.884-2.67A2.683,2.683,0,0,0,2.89,0Z" transform="translate(10268.951 4591.957) rotate(-135)" fill="#fff"/>
        <path id="Path_14172" data-name="Path 14172" d="M2.89,0A2.69,2.69,0,0,0,0,2.666a2.7,2.7,0,0,0,2.663,2.9,2.7,2.7,0,0,0,2.884-2.67A2.683,2.683,0,0,0,2.89,0Z" transform="translate(10268.951 4709.719) rotate(-135)" fill="#fff"/>
        <path id="Path_14100" data-name="Path 14100" d="M2.89,0A2.69,2.69,0,0,0,0,2.666a2.7,2.7,0,0,0,2.663,2.9,2.7,2.7,0,0,0,2.884-2.67A2.683,2.683,0,0,0,2.89,0Z" transform="translate(10386.713 4591.957) rotate(-135)" fill="#fff"/>
        <path id="Path_14134" data-name="Path 14134" d="M2.89,0A2.69,2.69,0,0,0,0,2.666a2.7,2.7,0,0,0,2.663,2.9,2.7,2.7,0,0,0,2.884-2.67A2.683,2.683,0,0,0,2.89,0Z" transform="translate(10386.713 4709.719) rotate(-135)" fill="#fff"/>
        <path id="Path_322" data-name="Path 322" d="M2.731,0A2.684,2.684,0,0,0,0,2.822,2.691,2.691,0,0,0,2.822,5.557,2.684,2.684,0,0,0,5.547,2.731,2.677,2.677,0,0,0,2.731,0Z" transform="translate(10249.354 4572.359) rotate(-135)" fill="#fff"/>
        <path id="Path_14179" data-name="Path 14179" d="M2.731,0A2.684,2.684,0,0,0,0,2.822,2.691,2.691,0,0,0,2.822,5.557,2.684,2.684,0,0,0,5.547,2.731,2.677,2.677,0,0,0,2.731,0Z" transform="translate(10249.354 4690.121) rotate(-135)" fill="#fff"/>
        <path id="Path_14095" data-name="Path 14095" d="M2.731,0A2.684,2.684,0,0,0,0,2.822,2.691,2.691,0,0,0,2.822,5.557,2.684,2.684,0,0,0,5.547,2.731,2.677,2.677,0,0,0,2.731,0Z" transform="translate(10367.116 4572.359) rotate(-135)" fill="#fff"/>
        <path id="Path_14145" data-name="Path 14145" d="M2.731,0A2.684,2.684,0,0,0,0,2.822,2.691,2.691,0,0,0,2.822,5.557,2.684,2.684,0,0,0,5.547,2.731,2.677,2.677,0,0,0,2.731,0Z" transform="translate(10367.116 4690.121) rotate(-135)" fill="#fff"/>
        <path id="Path_323" data-name="Path 323" d="M2.773,5.558A2.681,2.681,0,0,0,5.551,2.784,2.674,2.674,0,0,0,2.787,0,2.69,2.69,0,0,0,0,2.768,2.7,2.7,0,0,0,2.773,5.558Z" transform="translate(10308.146 4611.553) rotate(-135)" fill="#fff"/>
        <path id="Path_14161" data-name="Path 14161" d="M2.773,5.558A2.681,2.681,0,0,0,5.551,2.784,2.674,2.674,0,0,0,2.787,0,2.69,2.69,0,0,0,0,2.768,2.7,2.7,0,0,0,2.773,5.558Z" transform="translate(10308.146 4729.316) rotate(-135)" fill="#fff"/>
        <path id="Path_14119" data-name="Path 14119" d="M2.773,5.558A2.681,2.681,0,0,0,5.551,2.784,2.674,2.674,0,0,0,2.787,0,2.69,2.69,0,0,0,0,2.768,2.7,2.7,0,0,0,2.773,5.558Z" transform="translate(10425.908 4611.553) rotate(-135)" fill="#fff"/>
        <path id="Path_14128" data-name="Path 14128" d="M2.773,5.558A2.681,2.681,0,0,0,5.551,2.784,2.674,2.674,0,0,0,2.787,0,2.69,2.69,0,0,0,0,2.768,2.7,2.7,0,0,0,2.773,5.558Z" transform="translate(10425.908 4729.316) rotate(-135)" fill="#fff"/>
        <path id="Path_324" data-name="Path 324" d="M2.72,0A2.691,2.691,0,0,0,0,2.837,2.7,2.7,0,0,0,2.838,5.559,2.686,2.686,0,0,0,5.55,2.72,2.68,2.68,0,0,0,2.72,0Z" transform="translate(10288.548 4591.958) rotate(-135)" fill="#fff"/>
        <path id="Path_14167" data-name="Path 14167" d="M2.72,0A2.691,2.691,0,0,0,0,2.837,2.7,2.7,0,0,0,2.838,5.559,2.686,2.686,0,0,0,5.55,2.72,2.68,2.68,0,0,0,2.72,0Z" transform="translate(10288.548 4709.721) rotate(-135)" fill="#fff"/>
        <path id="Path_14109" data-name="Path 14109" d="M2.72,0A2.691,2.691,0,0,0,0,2.837,2.7,2.7,0,0,0,2.838,5.559,2.686,2.686,0,0,0,5.55,2.72,2.68,2.68,0,0,0,2.72,0Z" transform="translate(10406.31 4591.958) rotate(-135)" fill="#fff"/>
        <path id="Path_14135" data-name="Path 14135" d="M2.72,0A2.691,2.691,0,0,0,0,2.837,2.7,2.7,0,0,0,2.838,5.559,2.686,2.686,0,0,0,5.55,2.72,2.68,2.68,0,0,0,2.72,0Z" transform="translate(10406.31 4709.721) rotate(-135)" fill="#fff"/>
        <path id="Path_325" data-name="Path 325" d="M2.829,0A2.693,2.693,0,0,0,0,2.73,2.7,2.7,0,0,0,2.734,5.559,2.688,2.688,0,0,0,5.553,2.825,2.679,2.679,0,0,0,2.829,0Z" transform="translate(10268.956 4572.363) rotate(-135)" fill="#fff"/>
        <path id="Path_14173" data-name="Path 14173" d="M2.829,0A2.693,2.693,0,0,0,0,2.73,2.7,2.7,0,0,0,2.734,5.559,2.688,2.688,0,0,0,5.553,2.825,2.679,2.679,0,0,0,2.829,0Z" transform="translate(10268.956 4690.126) rotate(-135)" fill="#fff"/>
        <path id="Path_14101" data-name="Path 14101" d="M2.829,0A2.693,2.693,0,0,0,0,2.73,2.7,2.7,0,0,0,2.734,5.559,2.688,2.688,0,0,0,5.553,2.825,2.679,2.679,0,0,0,2.829,0Z" transform="translate(10386.718 4572.363) rotate(-135)" fill="#fff"/>
        <path id="Path_14146" data-name="Path 14146" d="M2.829,0A2.693,2.693,0,0,0,0,2.73,2.7,2.7,0,0,0,2.734,5.559,2.688,2.688,0,0,0,5.553,2.825,2.679,2.679,0,0,0,2.829,0Z" transform="translate(10386.718 4690.126) rotate(-135)" fill="#fff"/>
        <path id="Path_326" data-name="Path 326" d="M2.672,5.563a2.7,2.7,0,0,0,2.884-2.67A2.684,2.684,0,0,0,2.9,0,2.7,2.7,0,0,0,0,2.668,2.713,2.713,0,0,0,2.672,5.563Z" transform="translate(10308.146 4591.962) rotate(-135)" fill="#fff"/>
        <path id="Path_14162" data-name="Path 14162" d="M2.672,5.563a2.7,2.7,0,0,0,2.884-2.67A2.684,2.684,0,0,0,2.9,0,2.7,2.7,0,0,0,0,2.668,2.713,2.713,0,0,0,2.672,5.563Z" transform="translate(10308.146 4709.725) rotate(-135)" fill="#fff"/>
        <path id="Path_14120" data-name="Path 14120" d="M2.672,5.563a2.7,2.7,0,0,0,2.884-2.67A2.684,2.684,0,0,0,2.9,0,2.7,2.7,0,0,0,0,2.668,2.713,2.713,0,0,0,2.672,5.563Z" transform="translate(10425.909 4591.962) rotate(-135)" fill="#fff"/>
        <path id="Path_14136" data-name="Path 14136" d="M2.672,5.563a2.7,2.7,0,0,0,2.884-2.67A2.684,2.684,0,0,0,2.9,0,2.7,2.7,0,0,0,0,2.668,2.713,2.713,0,0,0,2.672,5.563Z" transform="translate(10425.909 4709.725) rotate(-135)" fill="#fff"/>
        <path id="Path_327" data-name="Path 327" d="M2.851,0A2.7,2.7,0,0,0,0,2.71,2.707,2.707,0,0,0,2.713,5.562a2.691,2.691,0,0,0,2.84-2.715A2.681,2.681,0,0,0,2.851,0Z" transform="translate(10288.549 4572.364) rotate(-135)" fill="#fff"/>
        <path id="Path_14168" data-name="Path 14168" d="M2.851,0A2.7,2.7,0,0,0,0,2.71,2.707,2.707,0,0,0,2.713,5.562a2.691,2.691,0,0,0,2.84-2.715A2.681,2.681,0,0,0,2.851,0Z" transform="translate(10288.549 4690.126) rotate(-135)" fill="#fff"/>
        <path id="Path_14110" data-name="Path 14110" d="M2.851,0A2.7,2.7,0,0,0,0,2.71,2.707,2.707,0,0,0,2.713,5.562a2.691,2.691,0,0,0,2.84-2.715A2.681,2.681,0,0,0,2.851,0Z" transform="translate(10406.313 4572.364) rotate(-135)" fill="#fff"/>
        <path id="Path_14147" data-name="Path 14147" d="M2.851,0A2.7,2.7,0,0,0,0,2.71,2.707,2.707,0,0,0,2.713,5.562a2.691,2.691,0,0,0,2.84-2.715A2.681,2.681,0,0,0,2.851,0Z" transform="translate(10406.313 4690.126) rotate(-135)" fill="#fff"/>
        <path id="Path_328" data-name="Path 328" d="M2.73,0A2.69,2.69,0,0,0,0,2.828,2.7,2.7,0,0,0,2.828,5.559,2.684,2.684,0,0,0,5.55,2.73,2.68,2.68,0,0,0,2.73,0Z" transform="translate(10308.145 4572.361) rotate(-135)" fill="#fff"/>
        <path id="Path_14163" data-name="Path 14163" d="M2.73,0A2.69,2.69,0,0,0,0,2.828,2.7,2.7,0,0,0,2.828,5.559,2.684,2.684,0,0,0,5.55,2.73,2.68,2.68,0,0,0,2.73,0Z" transform="translate(10308.145 4690.124) rotate(-135)" fill="#fff"/>
        <path id="Path_14121" data-name="Path 14121" d="M2.73,0A2.69,2.69,0,0,0,0,2.828,2.7,2.7,0,0,0,2.828,5.559,2.684,2.684,0,0,0,5.55,2.73,2.68,2.68,0,0,0,2.73,0Z" transform="translate(10425.906 4572.361) rotate(-135)" fill="#fff"/>
        <path id="Path_14148" data-name="Path 14148" d="M2.73,0A2.69,2.69,0,0,0,0,2.828,2.7,2.7,0,0,0,2.828,5.559,2.684,2.684,0,0,0,5.55,2.73,2.68,2.68,0,0,0,2.73,0Z" transform="translate(10425.906 4690.124) rotate(-135)" fill="#fff"/>
        <path id="Path_329" data-name="Path 329" d="M2.789,5.558A2.684,2.684,0,0,0,5.551,2.767,2.674,2.674,0,0,0,2.771,0,2.69,2.69,0,0,0,0,2.786,2.7,2.7,0,0,0,2.789,5.558Z" transform="translate(10249.357 4670.342) rotate(-135)" fill="#fff"/>
        <path id="Path_14180" data-name="Path 14180" d="M2.789,5.558A2.684,2.684,0,0,0,5.551,2.767,2.674,2.674,0,0,0,2.771,0,2.69,2.69,0,0,0,0,2.786,2.7,2.7,0,0,0,2.789,5.558Z" transform="translate(10249.357 4788.104) rotate(-135)" fill="#fff"/>
        <path id="Path_14112" data-name="Path 14112" d="M2.789,5.558A2.684,2.684,0,0,0,5.551,2.767,2.674,2.674,0,0,0,2.771,0,2.69,2.69,0,0,0,0,2.786,2.7,2.7,0,0,0,2.789,5.558Z" transform="translate(10367.121 4670.342) rotate(-135)" fill="#fff"/>
        <path id="Path_14137" data-name="Path 14137" d="M2.789,5.558A2.684,2.684,0,0,0,5.551,2.767,2.674,2.674,0,0,0,2.771,0,2.69,2.69,0,0,0,0,2.786,2.7,2.7,0,0,0,2.789,5.558Z" transform="translate(10367.121 4788.104) rotate(-135)" fill="#fff"/>
        <path id="Path_330" data-name="Path 330" d="M5.554,2.977A2.7,2.7,0,0,0,2.981.005,2.706,2.706,0,0,0,.005,2.582,2.718,2.718,0,0,0,2.586,5.559,2.706,2.706,0,0,0,5.554,2.977Z" transform="translate(10229.763 4650.749) rotate(-135)" fill="#fff"/>
        <path id="Path_14185" data-name="Path 14185" d="M5.554,2.977A2.7,2.7,0,0,0,2.981.005,2.706,2.706,0,0,0,.005,2.582,2.718,2.718,0,0,0,2.586,5.559,2.706,2.706,0,0,0,5.554,2.977Z" transform="translate(10229.763 4768.512) rotate(-135)" fill="#fff"/>
        <path id="Path_14103" data-name="Path 14103" d="M5.554,2.977A2.7,2.7,0,0,0,2.981.005,2.706,2.706,0,0,0,.005,2.582,2.718,2.718,0,0,0,2.586,5.559,2.706,2.706,0,0,0,5.554,2.977Z" transform="translate(10347.526 4650.749) rotate(-135)" fill="#fff"/>
        <path id="Path_14149" data-name="Path 14149" d="M5.554,2.977A2.7,2.7,0,0,0,2.981.005,2.706,2.706,0,0,0,.005,2.582,2.718,2.718,0,0,0,2.586,5.559,2.706,2.706,0,0,0,5.554,2.977Z" transform="translate(10347.526 4768.512) rotate(-135)" fill="#fff"/>
        <path id="Path_11892" data-name="Path 11892" d="M5.554,2.977A2.7,2.7,0,0,0,2.981.005,2.706,2.706,0,0,0,.005,2.582,2.718,2.718,0,0,0,2.586,5.559,2.706,2.706,0,0,0,5.554,2.977Z" transform="translate(10229.763 4670.135) rotate(-135)" fill="#fff"/>
        <path id="Path_14186" data-name="Path 14186" d="M5.554,2.977A2.7,2.7,0,0,0,2.981.005,2.706,2.706,0,0,0,.005,2.582,2.718,2.718,0,0,0,2.586,5.559,2.706,2.706,0,0,0,5.554,2.977Z" transform="translate(10229.763 4787.896) rotate(-135)" fill="#fff"/>
        <path id="Path_14113" data-name="Path 14113" d="M5.554,2.977A2.7,2.7,0,0,0,2.981.005,2.706,2.706,0,0,0,.005,2.582,2.718,2.718,0,0,0,2.586,5.559,2.706,2.706,0,0,0,5.554,2.977Z" transform="translate(10347.526 4670.135) rotate(-135)" fill="#fff"/>
        <path id="Path_14150" data-name="Path 14150" d="M5.554,2.977A2.7,2.7,0,0,0,2.981.005,2.706,2.706,0,0,0,.005,2.582,2.718,2.718,0,0,0,2.586,5.559,2.706,2.706,0,0,0,5.554,2.977Z" transform="translate(10347.526 4787.896) rotate(-135)" fill="#fff"/>
        <path id="Path_11890" data-name="Path 11890" d="M5.554,2.977A2.7,2.7,0,0,0,2.981.005,2.706,2.706,0,0,0,.005,2.582,2.718,2.718,0,0,0,2.586,5.559,2.706,2.706,0,0,0,5.554,2.977Z" transform="translate(10211.343 4650.749) rotate(-135)" fill="#fff"/>
        <path id="Path_14190" data-name="Path 14190" d="M5.554,2.977A2.7,2.7,0,0,0,2.981.005,2.706,2.706,0,0,0,.005,2.582,2.718,2.718,0,0,0,2.586,5.559,2.706,2.706,0,0,0,5.554,2.977Z" transform="translate(10211.343 4768.512) rotate(-135)" fill="#fff"/>
        <path id="Path_14104" data-name="Path 14104" d="M5.554,2.977A2.7,2.7,0,0,0,2.981.005,2.706,2.706,0,0,0,.005,2.582,2.718,2.718,0,0,0,2.586,5.559,2.706,2.706,0,0,0,5.554,2.977Z" transform="translate(10329.104 4650.749) rotate(-135)" fill="#fff"/>
        <path id="Path_14154" data-name="Path 14154" d="M5.554,2.977A2.7,2.7,0,0,0,2.981.005,2.706,2.706,0,0,0,.005,2.582,2.718,2.718,0,0,0,2.586,5.559,2.706,2.706,0,0,0,5.554,2.977Z" transform="translate(10329.104 4768.512) rotate(-135)" fill="#fff"/>
        <path id="Path_11891" data-name="Path 11891" d="M5.554,2.977A2.7,2.7,0,0,0,2.981.005,2.706,2.706,0,0,0,.005,2.582,2.718,2.718,0,0,0,2.586,5.559,2.706,2.706,0,0,0,5.554,2.977Z" transform="translate(10211.343 4670.135) rotate(-135)" fill="#fff"/>
        <path id="Path_14191" data-name="Path 14191" d="M5.554,2.977A2.7,2.7,0,0,0,2.981.005,2.706,2.706,0,0,0,.005,2.582,2.718,2.718,0,0,0,2.586,5.559,2.706,2.706,0,0,0,5.554,2.977Z" transform="translate(10211.343 4787.896) rotate(-135)" fill="#fff"/>
        <path id="Path_14114" data-name="Path 14114" d="M5.554,2.977A2.7,2.7,0,0,0,2.981.005,2.706,2.706,0,0,0,.005,2.582,2.718,2.718,0,0,0,2.586,5.559,2.706,2.706,0,0,0,5.554,2.977Z" transform="translate(10329.104 4670.135) rotate(-135)" fill="#fff"/>
        <path id="Path_14155" data-name="Path 14155" d="M5.554,2.977A2.7,2.7,0,0,0,2.981.005,2.706,2.706,0,0,0,.005,2.582,2.718,2.718,0,0,0,2.586,5.559,2.706,2.706,0,0,0,5.554,2.977Z" transform="translate(10329.104 4787.896) rotate(-135)" fill="#fff"/>
        <path id="Path_331" data-name="Path 331" d="M2.829,0A2.694,2.694,0,0,0,0,2.73,2.7,2.7,0,0,0,2.734,5.56,2.689,2.689,0,0,0,5.553,2.825,2.679,2.679,0,0,0,2.829,0Z" transform="translate(10210.167 4631.151) rotate(-135)" fill="#fff"/>
        <path id="Path_14192" data-name="Path 14192" d="M2.829,0A2.694,2.694,0,0,0,0,2.73,2.7,2.7,0,0,0,2.734,5.56,2.689,2.689,0,0,0,5.553,2.825,2.679,2.679,0,0,0,2.829,0Z" transform="translate(10210.167 4748.914) rotate(-135)" fill="#fff"/>
        <path id="Path_14096" data-name="Path 14096" d="M2.829,0A2.694,2.694,0,0,0,0,2.73,2.7,2.7,0,0,0,2.734,5.56,2.689,2.689,0,0,0,5.553,2.825,2.679,2.679,0,0,0,2.829,0Z" transform="translate(10327.93 4631.151) rotate(-135)" fill="#fff"/>
        <path id="Path_14156" data-name="Path 14156" d="M2.829,0A2.694,2.694,0,0,0,0,2.73,2.7,2.7,0,0,0,2.734,5.56,2.689,2.689,0,0,0,5.553,2.825,2.679,2.679,0,0,0,2.829,0Z" transform="translate(10327.93 4748.914) rotate(-135)" fill="#fff"/>
        <path id="Path_332" data-name="Path 332" d="M2.825,5.557A2.684,2.684,0,0,0,5.547,2.728,2.678,2.678,0,0,0,2.727,0,2.685,2.685,0,0,0,0,2.826,2.69,2.69,0,0,0,2.825,5.557Z" transform="translate(10268.951 4670.338) rotate(-135)" fill="#fff"/>
        <path id="Path_14174" data-name="Path 14174" d="M2.825,5.557A2.684,2.684,0,0,0,5.547,2.728,2.678,2.678,0,0,0,2.727,0,2.685,2.685,0,0,0,0,2.826,2.69,2.69,0,0,0,2.825,5.557Z" transform="translate(10268.951 4788.101) rotate(-135)" fill="#fff"/>
        <path id="Path_14115" data-name="Path 14115" d="M2.825,5.557A2.684,2.684,0,0,0,5.547,2.728,2.678,2.678,0,0,0,2.727,0,2.685,2.685,0,0,0,0,2.826,2.69,2.69,0,0,0,2.825,5.557Z" transform="translate(10386.713 4670.338) rotate(-135)" fill="#fff"/>
        <path id="Path_14138" data-name="Path 14138" d="M2.825,5.557A2.684,2.684,0,0,0,5.547,2.728,2.678,2.678,0,0,0,2.727,0,2.685,2.685,0,0,0,0,2.826,2.69,2.69,0,0,0,2.825,5.557Z" transform="translate(10386.713 4788.101) rotate(-135)" fill="#fff"/>
        <path id="Path_333" data-name="Path 333" d="M2.825,0A2.684,2.684,0,0,0,0,2.728,2.7,2.7,0,0,0,2.728,5.56,2.689,2.689,0,0,0,5.547,2.825,2.677,2.677,0,0,0,2.825,0Z" transform="translate(10249.354 4650.743) rotate(-135)" fill="#fff"/>
        <path id="Path_14181" data-name="Path 14181" d="M2.825,0A2.684,2.684,0,0,0,0,2.728,2.7,2.7,0,0,0,2.728,5.56,2.689,2.689,0,0,0,5.547,2.825,2.677,2.677,0,0,0,2.825,0Z" transform="translate(10249.354 4768.505) rotate(-135)" fill="#fff"/>
        <path id="Path_14105" data-name="Path 14105" d="M2.825,0A2.684,2.684,0,0,0,0,2.728,2.7,2.7,0,0,0,2.728,5.56,2.689,2.689,0,0,0,5.547,2.825,2.677,2.677,0,0,0,2.825,0Z" transform="translate(10367.116 4650.743) rotate(-135)" fill="#fff"/>
        <path id="Path_14139" data-name="Path 14139" d="M2.825,0A2.684,2.684,0,0,0,0,2.728,2.7,2.7,0,0,0,2.728,5.56,2.689,2.689,0,0,0,5.547,2.825,2.677,2.677,0,0,0,2.825,0Z" transform="translate(10367.116 4768.505) rotate(-135)" fill="#fff"/>
        <path id="Path_334" data-name="Path 334" d="M2.8,0A2.683,2.683,0,0,0,0,2.751,2.691,2.691,0,0,0,2.75,5.559,2.685,2.685,0,0,0,5.547,2.8,2.676,2.676,0,0,0,2.8,0Z" transform="translate(10229.758 4631.146) rotate(-135)" fill="#fff"/>
        <path id="Path_14187" data-name="Path 14187" d="M2.8,0A2.683,2.683,0,0,0,0,2.751,2.691,2.691,0,0,0,2.75,5.559,2.685,2.685,0,0,0,5.547,2.8,2.676,2.676,0,0,0,2.8,0Z" transform="translate(10229.758 4748.909) rotate(-135)" fill="#fff"/>
        <path id="Path_14097" data-name="Path 14097" d="M2.8,0A2.683,2.683,0,0,0,0,2.751,2.691,2.691,0,0,0,2.75,5.559,2.685,2.685,0,0,0,5.547,2.8,2.676,2.676,0,0,0,2.8,0Z" transform="translate(10347.521 4631.146) rotate(-135)" fill="#fff"/>
        <path id="Path_14151" data-name="Path 14151" d="M2.8,0A2.683,2.683,0,0,0,0,2.751,2.691,2.691,0,0,0,2.75,5.559,2.685,2.685,0,0,0,5.547,2.8,2.676,2.676,0,0,0,2.8,0Z" transform="translate(10347.521 4748.909) rotate(-135)" fill="#fff"/>
        <path id="Path_335" data-name="Path 335" d="M2.767,0A2.683,2.683,0,0,0,0,2.786,2.691,2.691,0,0,0,2.784,5.558a2.684,2.684,0,0,0,2.763-2.79A2.676,2.676,0,0,0,2.767,0Z" transform="translate(10210.162 4611.55) rotate(-135)" fill="#fff"/>
        <path id="Path_14193" data-name="Path 14193" d="M2.767,0A2.683,2.683,0,0,0,0,2.786,2.691,2.691,0,0,0,2.784,5.558a2.684,2.684,0,0,0,2.763-2.79A2.676,2.676,0,0,0,2.767,0Z" transform="translate(10210.162 4729.313) rotate(-135)" fill="#fff"/>
        <path id="Path_14091" data-name="Path 14091" d="M2.767,0A2.683,2.683,0,0,0,0,2.786,2.691,2.691,0,0,0,2.784,5.558a2.684,2.684,0,0,0,2.763-2.79A2.676,2.676,0,0,0,2.767,0Z" transform="translate(10327.926 4611.55) rotate(-135)" fill="#fff"/>
        <path id="Path_14157" data-name="Path 14157" d="M2.767,0A2.683,2.683,0,0,0,0,2.786,2.691,2.691,0,0,0,2.784,5.558a2.684,2.684,0,0,0,2.763-2.79A2.676,2.676,0,0,0,2.767,0Z" transform="translate(10327.926 4729.313) rotate(-135)" fill="#fff"/>
        <path id="Path_336" data-name="Path 336" d="M2.751,5.559a2.686,2.686,0,0,0,2.8-2.753A2.676,2.676,0,0,0,2.809,0,2.69,2.69,0,0,0,0,2.748,2.7,2.7,0,0,0,2.751,5.559Z" transform="translate(10288.549 4670.342) rotate(-135)" fill="#fff"/>
        <path id="Path_14169" data-name="Path 14169" d="M2.751,5.559a2.686,2.686,0,0,0,2.8-2.753A2.676,2.676,0,0,0,2.809,0,2.69,2.69,0,0,0,0,2.748,2.7,2.7,0,0,0,2.751,5.559Z" transform="translate(10288.549 4788.104) rotate(-135)" fill="#fff"/>
        <path id="Path_14116" data-name="Path 14116" d="M2.751,5.559a2.686,2.686,0,0,0,2.8-2.753A2.676,2.676,0,0,0,2.809,0,2.69,2.69,0,0,0,0,2.748,2.7,2.7,0,0,0,2.751,5.559Z" transform="translate(10406.313 4670.342) rotate(-135)" fill="#fff"/>
        <path id="Path_14129" data-name="Path 14129" d="M2.751,5.559a2.686,2.686,0,0,0,2.8-2.753A2.676,2.676,0,0,0,2.809,0,2.69,2.69,0,0,0,0,2.748,2.7,2.7,0,0,0,2.751,5.559Z" transform="translate(10406.313 4788.104) rotate(-135)" fill="#fff"/>
        <path id="Path_337" data-name="Path 337" d="M2.753,5.559a2.684,2.684,0,0,0,2.8-2.753A2.675,2.675,0,0,0,2.81,0,2.693,2.693,0,0,0,0,2.748,2.7,2.7,0,0,0,2.753,5.559Z" transform="translate(10268.956 4650.746) rotate(-135)" fill="#fff"/>
        <path id="Path_14175" data-name="Path 14175" d="M2.753,5.559a2.684,2.684,0,0,0,2.8-2.753A2.675,2.675,0,0,0,2.81,0,2.693,2.693,0,0,0,0,2.748,2.7,2.7,0,0,0,2.753,5.559Z" transform="translate(10268.956 4768.508) rotate(-135)" fill="#fff"/>
        <path id="Path_14106" data-name="Path 14106" d="M2.753,5.559a2.684,2.684,0,0,0,2.8-2.753A2.675,2.675,0,0,0,2.81,0,2.693,2.693,0,0,0,0,2.748,2.7,2.7,0,0,0,2.753,5.559Z" transform="translate(10386.718 4650.746) rotate(-135)" fill="#fff"/>
        <path id="Path_14140" data-name="Path 14140" d="M2.753,5.559a2.684,2.684,0,0,0,2.8-2.753A2.675,2.675,0,0,0,2.81,0,2.693,2.693,0,0,0,0,2.748,2.7,2.7,0,0,0,2.753,5.559Z" transform="translate(10386.718 4768.508) rotate(-135)" fill="#fff"/>
        <path id="Path_338" data-name="Path 338" d="M2.9,0A2.7,2.7,0,0,0,0,2.665a2.714,2.714,0,0,0,2.669,2.9,2.7,2.7,0,0,0,2.885-2.67A2.682,2.682,0,0,0,2.9,0Z" transform="translate(10249.359 4631.153) rotate(-135)" fill="#fff"/>
        <path id="Path_14182" data-name="Path 14182" d="M2.9,0A2.7,2.7,0,0,0,0,2.665a2.714,2.714,0,0,0,2.669,2.9,2.7,2.7,0,0,0,2.885-2.67A2.682,2.682,0,0,0,2.9,0Z" transform="translate(10249.359 4748.916) rotate(-135)" fill="#fff"/>
        <path id="Path_14098" data-name="Path 14098" d="M2.9,0A2.7,2.7,0,0,0,0,2.665a2.714,2.714,0,0,0,2.669,2.9,2.7,2.7,0,0,0,2.885-2.67A2.682,2.682,0,0,0,2.9,0Z" transform="translate(10367.123 4631.153) rotate(-135)" fill="#fff"/>
        <path id="Path_14141" data-name="Path 14141" d="M2.9,0A2.7,2.7,0,0,0,0,2.665a2.714,2.714,0,0,0,2.669,2.9,2.7,2.7,0,0,0,2.885-2.67A2.682,2.682,0,0,0,2.9,0Z" transform="translate(10367.123 4748.916) rotate(-135)" fill="#fff"/>
        <path id="Path_339" data-name="Path 339" d="M2.789,0A2.689,2.689,0,0,0,0,2.767,2.7,2.7,0,0,0,2.771,5.558a2.682,2.682,0,0,0,2.78-2.773A2.675,2.675,0,0,0,2.789,0Z" transform="translate(10229.763 4611.553) rotate(-135)" fill="#fff"/>
        <path id="Path_14188" data-name="Path 14188" d="M2.789,0A2.689,2.689,0,0,0,0,2.767,2.7,2.7,0,0,0,2.771,5.558a2.682,2.682,0,0,0,2.78-2.773A2.675,2.675,0,0,0,2.789,0Z" transform="translate(10229.763 4729.316) rotate(-135)" fill="#fff"/>
        <path id="Path_14092" data-name="Path 14092" d="M2.789,0A2.689,2.689,0,0,0,0,2.767,2.7,2.7,0,0,0,2.771,5.558a2.682,2.682,0,0,0,2.78-2.773A2.675,2.675,0,0,0,2.789,0Z" transform="translate(10347.524 4611.553) rotate(-135)" fill="#fff"/>
        <path id="Path_14152" data-name="Path 14152" d="M2.789,0A2.689,2.689,0,0,0,0,2.767,2.7,2.7,0,0,0,2.771,5.558a2.682,2.682,0,0,0,2.78-2.773A2.675,2.675,0,0,0,2.789,0Z" transform="translate(10347.524 4729.316) rotate(-135)" fill="#fff"/>
        <path id="Path_340" data-name="Path 340" d="M2.807,0A2.693,2.693,0,0,0,0,2.75,2.7,2.7,0,0,0,2.754,5.559,2.685,2.685,0,0,0,5.553,2.8,2.675,2.675,0,0,0,2.807,0Z" transform="translate(10210.167 4591.958) rotate(-135)" fill="#fff"/>
        <path id="Path_14194" data-name="Path 14194" d="M2.807,0A2.693,2.693,0,0,0,0,2.75,2.7,2.7,0,0,0,2.754,5.559,2.685,2.685,0,0,0,5.553,2.8,2.675,2.675,0,0,0,2.807,0Z" transform="translate(10210.167 4709.721) rotate(-135)" fill="#fff"/>
        <path id="Path_14090" data-name="Path 14090" d="M2.807,0A2.693,2.693,0,0,0,0,2.75,2.7,2.7,0,0,0,2.754,5.559,2.685,2.685,0,0,0,5.553,2.8,2.675,2.675,0,0,0,2.807,0Z" transform="translate(10327.93 4591.958) rotate(-135)" fill="#fff"/>
        <path id="Path_14158" data-name="Path 14158" d="M2.807,0A2.693,2.693,0,0,0,0,2.75,2.7,2.7,0,0,0,2.754,5.559,2.685,2.685,0,0,0,5.553,2.8,2.675,2.675,0,0,0,2.807,0Z" transform="translate(10327.93 4709.721) rotate(-135)" fill="#fff"/>
        <path id="Path_341" data-name="Path 341" d="M2.754,5.558A2.685,2.685,0,0,0,5.551,2.8,2.675,2.675,0,0,0,2.807,0,2.691,2.691,0,0,0,0,2.75,2.7,2.7,0,0,0,2.754,5.558Z" transform="translate(10308.146 4670.342) rotate(-135)" fill="#fff"/>
        <path id="Path_14164" data-name="Path 14164" d="M2.754,5.558A2.685,2.685,0,0,0,5.551,2.8,2.675,2.675,0,0,0,2.807,0,2.691,2.691,0,0,0,0,2.75,2.7,2.7,0,0,0,2.754,5.558Z" transform="translate(10308.146 4788.104) rotate(-135)" fill="#fff"/>
        <path id="Path_14122" data-name="Path 14122" d="M2.754,5.558A2.685,2.685,0,0,0,5.551,2.8,2.675,2.675,0,0,0,2.807,0,2.691,2.691,0,0,0,0,2.75,2.7,2.7,0,0,0,2.754,5.558Z" transform="translate(10425.908 4670.342) rotate(-135)" fill="#fff"/>
        <path id="Path_14124" data-name="Path 14124" d="M2.754,5.558A2.685,2.685,0,0,0,5.551,2.8,2.675,2.675,0,0,0,2.807,0,2.691,2.691,0,0,0,0,2.75,2.7,2.7,0,0,0,2.754,5.558Z" transform="translate(10425.908 4788.104) rotate(-135)" fill="#fff"/>
        <path id="Path_342" data-name="Path 342" d="M2.671,5.563a2.7,2.7,0,0,0,2.885-2.67A2.682,2.682,0,0,0,2.9,0,2.7,2.7,0,0,0,0,2.665,2.714,2.714,0,0,0,2.671,5.563Z" transform="translate(10288.553 4650.749) rotate(-135)" fill="#fff"/>
        <path id="Path_14170" data-name="Path 14170" d="M2.671,5.563a2.7,2.7,0,0,0,2.885-2.67A2.682,2.682,0,0,0,2.9,0,2.7,2.7,0,0,0,0,2.665,2.714,2.714,0,0,0,2.671,5.563Z" transform="translate(10288.553 4768.512) rotate(-135)" fill="#fff"/>
        <path id="Path_14111" data-name="Path 14111" d="M2.671,5.563a2.7,2.7,0,0,0,2.885-2.67A2.682,2.682,0,0,0,2.9,0,2.7,2.7,0,0,0,0,2.665,2.714,2.714,0,0,0,2.671,5.563Z" transform="translate(10406.314 4650.749) rotate(-135)" fill="#fff"/>
        <path id="Path_14130" data-name="Path 14130" d="M2.671,5.563a2.7,2.7,0,0,0,2.885-2.67A2.682,2.682,0,0,0,2.9,0,2.7,2.7,0,0,0,0,2.665,2.714,2.714,0,0,0,2.671,5.563Z" transform="translate(10406.314 4768.512) rotate(-135)" fill="#fff"/>
        <path id="Path_343" data-name="Path 343" d="M2.823,0A2.694,2.694,0,0,0,0,2.735,2.7,2.7,0,0,0,2.74,5.559a2.685,2.685,0,0,0,2.813-2.74A2.676,2.676,0,0,0,2.823,0Z" transform="translate(10268.956 4631.151) rotate(-135)" fill="#fff"/>
        <path id="Path_14176" data-name="Path 14176" d="M2.823,0A2.694,2.694,0,0,0,0,2.735,2.7,2.7,0,0,0,2.74,5.559a2.685,2.685,0,0,0,2.813-2.74A2.676,2.676,0,0,0,2.823,0Z" transform="translate(10268.956 4748.914) rotate(-135)" fill="#fff"/>
        <path id="Path_14102" data-name="Path 14102" d="M2.823,0A2.694,2.694,0,0,0,0,2.735,2.7,2.7,0,0,0,2.74,5.559a2.685,2.685,0,0,0,2.813-2.74A2.676,2.676,0,0,0,2.823,0Z" transform="translate(10386.718 4631.151) rotate(-135)" fill="#fff"/>
        <path id="Path_14142" data-name="Path 14142" d="M2.823,0A2.694,2.694,0,0,0,0,2.735,2.7,2.7,0,0,0,2.74,5.559a2.685,2.685,0,0,0,2.813-2.74A2.676,2.676,0,0,0,2.823,0Z" transform="translate(10386.718 4748.914) rotate(-135)" fill="#fff"/>
      </g>
    </g>
  </g>
</svg>
