<svg xmlns="http://www.w3.org/2000/svg" width="679.719" height="681.468" viewBox="0 0 679.719 681.468">
  <path id="Path_14197" data-name="Path 14197" d="M-498.257,1428.619l-146.506-51.232V1264.777l146.5,59.318,8.475-11.166-79.143-30.074-3.694-104.361,68.369,20.879,15.7-19.031,3.262-72.7-16.306-5.256,12.366-14.492-72.147-24.478-24.931,26.258,25.775,7.364-64.106,73.4-74.182-25.657,5.086,96.632-119.111-44.667,68.593-71.374,41.672,14.414-.07-1.31-118.317-39.439-88.694,74.054,125.612,42.164,11.095,110.945-124.8-48.28,1.26-3.258,119.5,46.233-10.3-103.048-129.4-43.432,94.983-79.306,122.424,40.807.269,5.1,73.3,25.351,58.94-67.481-22.239-6.354-58.223,61.319-3.638-78.995-26.857-7.672-.122-13.184-45.913-13.272-72.244,62.561-9.934-107.146-27.564-8.6-101.512,72.508L-953.4,925.034l189.682-128.553,77.34,19.844-2.144-69.174,134.15,28.88-73.073,59.02-55.3-14.187,1.3,42.085,122.212,28.062-35.78,34.29,36.772,9.518-58.1,50.626,58.852,17.2-72.6,65.156-17.863-5.163.439,9.542,57.412,16.4,27.725-29.2,75.581,25.642,2.654-3.11.793-17.652,50.227-56.389-63.37-15.939,62.437-68.028,61.208,16.3,33.372-37.466-151.093-41.128,70.882-62.487,146,36.274-21.078,129.209-76.91-20.475L-426.68,1005.9l80.724,20.3-4.345,33.742,42.753,12.711-18.468,101.574-106.88-34.042-53.377,64.68,67.286,20.547-2.265,2.985,53.029,15.7-64.622,90.469-53.541-20.346-10.712,14.115-144.173-58.376v104.949l144.167,50.414Zm14.071-117.3,50.065,19.023,60.207-84.291-49.6-14.682Zm-81.339-30.91,77.936,29.615,60.5-79.715-82.535-24.434,2.96-3.589-62.3-19.026Zm-241.131-85.08,109.148,40.931-4.88-92.722-40.9-14.145Zm317.541,12.976,64.282,19.03.036-.048-63.884-19.51Zm-14.457-4.28,13.77,4.077.028-.657-13.274-4.053Zm2.93-3.55,11.031,3.369.794-17.7Zm15.521-18.814-.774,17.256,49.413-59.876-10.672-3.4Zm3.273-72.916-3.013,67.113,36.515-44.26,14.258,4.541,7.82-9.474Zm51.345,28.536,101.76,32.411,17.2-94.585-39.21-11.657-10.827,84.066-61.111-19.7Zm-216.841-61.421,3.206,69.634,51.324-54.054Zm227.044,49.058,55.791,17.985,10.364-80.461-86.773-25.8-39.788,46.626-.169,3.765,71.748,24.343Zm-61.387-19.789,57.809,18.637,8.835-10.707-66-22.39Zm-13.859-4.468,10.414,3.357.651-14.518-1.194-.405Zm-306.8-103.4,9.173,98.932,65.393-56.63-18.573-5.37-.932-19.751Zm322.428,68.4-.535,11.932,38.352-44.943,88.406,26.282,3.876-30.1-79.484-19.993Zm-194.359-1.127,23.219,6.634-.44-9.555-22.867-6.611Zm26.152-5.581,17.142,4.955,66.491-59.673-54.976-16.07-30.686,26.737Zm-26.274-7.6,22.731,6.571-2.051-44.553,30.271-26.375L-675.132,971.9Zm-275.25-124.653,17.3,127.129,98.214-70.152,27.832,8.685-2.6-28.09,57.271-42-.234-4.974,5.1,1.4,32.95-24.163.8.208,114.037,29.516,32.667-31.307-118.53-27.217-1.42-45.79-76.8-19.7ZM-720.628,1038l42.731,12.351-.769-83.123,58.348,17.056,54.8-47.741-32.446-8.4-28.506,27.317-.956-.263-118.636-32.668-1.992,1.46,4.15,87.853,39.316,12.268Zm-22.349-6.461,18.348,5.3,13.01-11.266-32.114-10.021Zm-59.714-38.04,55.234,17.237-3.981-84.269-53.81,39.461Zm312.738-3.516,59.453,14.955,55.053-61.808-57.464-15.3Zm120.888-48.768,71.482,19.032,19.937-122.232-141.1-35.055-64.646,56.99,150.28,40.9Zm-373.412-21.32,115.018,31.672,25.516-24.454-111.147-28.767Zm59.623-102.665,54.58,14,66.022-53.328-122.64-26.4Z" transform="translate(953.399 -747.151)"/>
</svg>
