<svg xmlns="http://www.w3.org/2000/svg" width="170.731" height="115.784" viewBox="0 0 170.731 115.784">
  <g id="Group_489" data-name="Group 489" transform="translate(-776.786 424.217)">
    <g id="Group_473" data-name="Group 473">
      <path id="Path_14272" data-name="Path 14272" d="M900.1-325.646a1.809,1.809,0,0,1-1.807,1.807H791.377a1.809,1.809,0,0,1-1.809-1.807v-69.2a1.81,1.81,0,0,1,1.809-1.807h71.1V-399.6h-71.1a4.76,4.76,0,0,0-4.753,4.752v69.2a4.686,4.686,0,0,0,.362,1.807h-8.727a1.472,1.472,0,0,0-1.473,1.471v0a13.95,13.95,0,0,0,13.937,13.933H898.945a13.949,13.949,0,0,0,13.935-13.933,1.473,1.473,0,0,0-1.471-1.473H902.68a4.722,4.722,0,0,0,.362-1.807v-39.891a29.735,29.735,0,0,1-2.945.818Zm9.741,4.752a11.007,11.007,0,0,1-10.893,9.517H790.722a11.008,11.008,0,0,1-10.894-9.517Z"/>
      <path id="Path_14273" data-name="Path 14273" d="M796.793-331.71v-57.07h65.683v-2.947H795.321a1.473,1.473,0,0,0-1.473,1.473h0v60.015a1.472,1.472,0,0,0,1.473,1.473h99.024a1.472,1.472,0,0,0,1.472-1.472h0v-33.853c-.771.059-1.541.119-2.327.119-.208,0-.41-.026-.618-.031v32.295Z"/>
      <g id="Group_472" data-name="Group 472">
        <g id="Group_458" data-name="Group 458">
          <path id="Path_14275" data-name="Path 14275" d="M873.987-336.623h-61.6v-43.815h1.62v42.2h59.974Z"/>
          <path id="Path_14276" data-name="Path 14276" d="M874.417-336.191H811.963v-44.68h2.474v42.2h59.974Zm-61.593-.862h60.732v-.758H813.581v-42.2h-.756Z"/>
        </g>
        <g id="Group_459" data-name="Group 459">
          <rect id="Rectangle_188" data-name="Rectangle 188" width="1.62" height="5.513" transform="translate(818.568 -347.026)"/>
          <path id="Path_14277" data-name="Path 14277" d="M820.618-341.082h-2.481v-6.374h2.481Zm-1.62-.862h.758V-346.6H819Z"/>
        </g>
        <g id="Group_460" data-name="Group 460">
          <rect id="Rectangle_189" data-name="Rectangle 189" width="1.62" height="10.587" transform="translate(824.633 -352.1)"/>
          <path id="Path_14278" data-name="Path 14278" d="M826.682-341.083H824.2v-11.446h2.479Zm-1.618-.862h.756v-9.725h-.756Z"/>
        </g>
        <g id="Group_461" data-name="Group 461">
          <rect id="Rectangle_190" data-name="Rectangle 190" width="1.62" height="26.686" transform="translate(830.477 -368.199)"/>
          <path id="Path_14279" data-name="Path 14279" d="M832.524-341.082h-2.48v-27.547h2.48Zm-1.62-.862h.758v-25.823H830.9Z"/>
        </g>
        <g id="Group_462" data-name="Group 462">
          <rect id="Rectangle_191" data-name="Rectangle 191" width="1.62" height="38.707" transform="translate(836.763 -380.22)"/>
          <path id="Path_14280" data-name="Path 14280" d="M838.812-341.083h-2.479v-39.568h2.479Zm-1.617-.862h.756v-37.846H837.2Z"/>
        </g>
        <g id="Group_463" data-name="Group 463">
          <rect id="Rectangle_192" data-name="Rectangle 192" width="1.62" height="27.238" transform="translate(842.608 -368.751)"/>
          <path id="Path_14281" data-name="Path 14281" d="M844.657-341.082h-2.479v-28.1h2.479Zm-1.617-.862h.756V-368.32h-.756Z"/>
        </g>
        <g id="Group_464" data-name="Group 464">
          <rect id="Rectangle_193" data-name="Rectangle 193" width="1.62" height="11.468" transform="translate(848.673 -352.981)"/>
          <path id="Path_14282" data-name="Path 14282" d="M850.723-341.082h-2.481v-12.33h2.481Zm-1.62-.862h.758V-352.55H849.1Z"/>
        </g>
        <g id="Group_465" data-name="Group 465">
          <rect id="Rectangle_194" data-name="Rectangle 194" width="1.62" height="11.468" transform="translate(860.108 -352.981)"/>
          <path id="Path_14283" data-name="Path 14283" d="M862.154-341.082h-2.48v-12.33h2.48Zm-1.62-.862h.759V-352.55h-.759Z"/>
        </g>
        <g id="Group_466" data-name="Group 466">
          <rect id="Rectangle_195" data-name="Rectangle 195" width="1.62" height="5.513" transform="translate(854.737 -347.026)"/>
          <path id="Path_14284" data-name="Path 14284" d="M856.788-341.082h-2.48v-6.374h2.48Zm-1.619-.862h.758V-346.6h-.758Z"/>
        </g>
        <g id="Group_467" data-name="Group 467">
          <path id="Path_14285" data-name="Path 14285" d="M801.873-344.937l-.938-1.32,15.7-11.18,16.584,7.029,28.729-26.768,1.1,1.185L833.553-348.5l-16.717-7.087Z"/>
          <path id="Path_14286" data-name="Path 14286" d="M801.771-344.332l-1.438-2.023,16.242-11.57,16.552,7.015,28.839-26.872,1.689,1.816L833.64-347.994l-16.753-7.1Zm-.238-1.821.442.618,14.8-10.545,16.684,7.072,28.976-27-.515-.553L833.3-349.9l-16.621-7.045Z"/>
        </g>
        <g id="Group_468" data-name="Group 468">
          <path id="Path_14287" data-name="Path 14287" d="M816.587-353.8a2.443,2.443,0,0,1-2.444-2.443,2.443,2.443,0,0,1,2.442-2.444,2.443,2.443,0,0,1,2.445,2.442v0A2.446,2.446,0,0,1,816.587-353.8Zm0-3.268a.824.824,0,0,0-.824.824.824.824,0,0,0,.824.824.823.823,0,0,0,.824-.823A.825.825,0,0,0,816.587-357.066Z"/>
          <path id="Path_14288" data-name="Path 14288" d="M816.588-353.367a2.874,2.874,0,0,1-2.876-2.874,2.874,2.874,0,0,1,2.873-2.875,2.875,2.875,0,0,1,2.876,2.873A2.879,2.879,0,0,1,816.588-353.367Zm0-4.888a2.015,2.015,0,0,0-2.015,2.012,2.013,2.013,0,0,0,2.012,2.014,2.013,2.013,0,0,0,2.015-2.012v0a2.017,2.017,0,0,0-2.012-2.014Zm0,3.267a1.251,1.251,0,0,1-1.252-1.252,1.251,1.251,0,0,1,1.252-1.251,1.251,1.251,0,0,1,1.251,1.251,1.251,1.251,0,0,1-1.251,1.251Zm0-1.647a.393.393,0,0,0-.394.393.394.394,0,0,0,.394.394.393.393,0,0,0,.393-.394.394.394,0,0,0-.392-.394h0Z"/>
        </g>
        <g id="Group_469" data-name="Group 469">
          <path id="Path_14289" data-name="Path 14289" d="M833.236-347.181a2.443,2.443,0,0,1-2.442-2.445,2.443,2.443,0,0,1,2.444-2.442,2.442,2.442,0,0,1,2.443,2.442A2.445,2.445,0,0,1,833.236-347.181Zm0-3.268a.824.824,0,0,0-.821.825.824.824,0,0,0,.826.821.822.822,0,0,0,.82-.823A.826.826,0,0,0,833.236-350.449Z"/>
          <path id="Path_14290" data-name="Path 14290" d="M833.237-346.75a2.875,2.875,0,0,1-2.873-2.876,2.874,2.874,0,0,1,2.875-2.873,2.875,2.875,0,0,1,2.874,2.873A2.878,2.878,0,0,1,833.237-346.75Zm0-4.888a2.015,2.015,0,0,0-2.012,2.014,2.014,2.014,0,0,0,2.015,2.012,2.012,2.012,0,0,0,2.011-2.014A2.016,2.016,0,0,0,833.237-351.638Zm0,3.267a1.251,1.251,0,0,1-1.251-1.252,1.251,1.251,0,0,1,1.251-1.251,1.251,1.251,0,0,1,1.252,1.251,1.252,1.252,0,0,1-1.252,1.251Zm0-1.647a.394.394,0,0,0-.392.394.394.394,0,0,0,.394.393.4.4,0,0,0,.393-.394.4.4,0,0,0-.4-.389Z"/>
        </g>
        <g id="Group_470" data-name="Group 470">
          <path id="Path_14291" data-name="Path 14291" d="M861.688-373.316a2.444,2.444,0,0,1-2.443-2.445,2.444,2.444,0,0,1,2.445-2.443,2.445,2.445,0,0,1,2.443,2.443A2.447,2.447,0,0,1,861.688-373.316Zm0-3.267a.824.824,0,0,0-.822.824.823.823,0,0,0,.824.822.822.822,0,0,0,.822-.824h0a.824.824,0,0,0-.824-.822Z"/>
          <path id="Path_14292" data-name="Path 14292" d="M861.69-372.885a2.875,2.875,0,0,1-2.875-2.874,2.873,2.873,0,0,1,2.873-2.875,2.875,2.875,0,0,1,2.876,2.873A2.879,2.879,0,0,1,861.69-372.885Zm0-4.888a2.013,2.013,0,0,0-2.014,2.012,2.013,2.013,0,0,0,2.012,2.014,2.012,2.012,0,0,0,2.014-2.012v0A2.015,2.015,0,0,0,861.69-377.773Zm0,3.267a1.252,1.252,0,0,1-1.251-1.252,1.251,1.251,0,0,1,1.251-1.251,1.252,1.252,0,0,1,1.252,1.251,1.252,1.252,0,0,1-1.252,1.248Zm0-1.645a.392.392,0,0,0-.393.391.391.391,0,0,0,.391.393.391.391,0,0,0,.393-.391v0a.392.392,0,0,0-.391-.392Z"/>
        </g>
        <g id="Group_471" data-name="Group 471">
          <path id="Path_14293" data-name="Path 14293" d="M802.064-343.57a2.443,2.443,0,0,1-2.444-2.443,2.444,2.444,0,0,1,2.442-2.445,2.444,2.444,0,0,1,2.445,2.443v0A2.446,2.446,0,0,1,802.064-343.57Zm0-3.268a.824.824,0,0,0-.824.824.824.824,0,0,0,.824.824.823.823,0,0,0,.824-.823A.826.826,0,0,0,802.064-346.838Z"/>
          <path id="Path_14294" data-name="Path 14294" d="M802.064-343.139a2.875,2.875,0,0,1-2.875-2.874,2.874,2.874,0,0,1,2.873-2.875,2.875,2.875,0,0,1,2.876,2.873A2.878,2.878,0,0,1,802.064-343.139Zm0-4.888a2.015,2.015,0,0,0-2.014,2.012A2.013,2.013,0,0,0,802.062-344a2.012,2.012,0,0,0,2.014-2.012v0a2.015,2.015,0,0,0-2.012-2.012Zm0,3.267a1.251,1.251,0,0,1-1.251-1.252,1.251,1.251,0,0,1,1.251-1.251,1.251,1.251,0,0,1,1.252,1.251,1.252,1.252,0,0,1-1.252,1.251Zm0-1.647a.393.393,0,0,0-.393.393.394.394,0,0,0,.393.394.394.394,0,0,0,.394-.394.394.394,0,0,0-.393-.394h0Z"/>
        </g>
      </g>
    </g>
    <g id="Group_485" data-name="Group 485">
      <path id="Path_14373" data-name="Path 14373" d="M866.908-396.448a27.8,27.8,0,0,0,27.769,27.769,27.625,27.625,0,0,0,16.781-5.659l5.625,5.625a1.459,1.459,0,0,0,.112.1,6.925,6.925,0,0,0-.146,1.415,6.832,6.832,0,0,0,2.014,4.863l16.714,16.713a6.833,6.833,0,0,0,4.863,2.015,6.835,6.835,0,0,0,4.863-2.015,6.828,6.828,0,0,0,2.014-4.862,6.832,6.832,0,0,0-2.014-4.863l-16.714-16.713a6.829,6.829,0,0,0-4.863-2.015,6.933,6.933,0,0,0-1.415.146,1.466,1.466,0,0,0-.1-.112l-5.625-5.625a27.625,27.625,0,0,0,5.659-16.781,27.8,27.8,0,0,0-27.769-27.769A27.8,27.8,0,0,0,866.908-396.448Zm55.622,33.885,6.032-6.032L943.656-353.5a4.233,4.233,0,0,1,1.249,3.016,4.233,4.233,0,0,1-1.249,3.015,4.238,4.238,0,0,1-3.016,1.25,4.238,4.238,0,0,1-3.017-1.25Zm-2.87-4.636a4.234,4.234,0,0,1,1.25-3.015,4.25,4.25,0,0,1,3.016-1.248,4.255,4.255,0,0,1,2.778,1.032l-6.012,6.011A4.231,4.231,0,0,1,919.66-367.2Zm-6.192-8.822q.85-.785,1.635-1.636l4.848,4.848a6.9,6.9,0,0,0-.888.748,6.976,6.976,0,0,0-.748.887ZM869.52-396.448a25.185,25.185,0,0,1,25.157-25.157,25.186,25.186,0,0,1,25.158,25.157,25.187,25.187,0,0,1-25.158,25.158A25.186,25.186,0,0,1,869.52-396.448Z"/>
      <path id="Path_14374" data-name="Path 14374" d="M872.48-396.448a22.222,22.222,0,0,0,22.2,22.2,22.223,22.223,0,0,0,22.2-22.2,22.223,22.223,0,0,0-22.2-22.2A22.222,22.222,0,0,0,872.48-396.448Zm2.611,0a19.608,19.608,0,0,1,19.586-19.586,19.609,19.609,0,0,1,19.587,19.586,19.61,19.61,0,0,1-19.587,19.587A19.609,19.609,0,0,1,875.091-396.448Z"/>
      <path id="Path_14375" data-name="Path 14375" d="M878.051-396.448a16.655,16.655,0,0,0,3.8,10.582,1.3,1.3,0,0,0,1.008.474,1.3,1.3,0,0,0,.83-.3,1.306,1.306,0,0,0,.176-1.838,14.035,14.035,0,0,1-3.2-8.919,13.983,13.983,0,0,1,6.374-11.751,1.306,1.306,0,0,0,.381-1.807,1.307,1.307,0,0,0-1.807-.381A16.587,16.587,0,0,0,878.051-396.448Z"/>
      <path id="Path_14376" data-name="Path 14376" d="M890.607-411.28a1.306,1.306,0,0,0,1.283,1.07,1.3,1.3,0,0,0,.238-.022,14.174,14.174,0,0,1,2.549-.231,1.305,1.305,0,0,0,1.306-1.306,1.3,1.3,0,0,0-1.306-1.3,16.756,16.756,0,0,0-3.021.274A1.306,1.306,0,0,0,890.607-411.28Z"/>
    </g>
  </g>
</svg>
