<svg xmlns="http://www.w3.org/2000/svg" width="144.105" height="113.274" viewBox="0 0 144.105 113.274">
  <g id="Group_491" data-name="Group 491" transform="translate(-447.935 441.111)">
    <g id="Group_473" data-name="Group 473">
      <path id="Path_14272" data-name="Path 14272" d="M571.245-345.05a1.809,1.809,0,0,1-1.807,1.807H462.526a1.809,1.809,0,0,1-1.809-1.807v-69.2a1.81,1.81,0,0,1,1.809-1.807h71.1V-419h-71.1a4.759,4.759,0,0,0-4.753,4.752v69.2a4.689,4.689,0,0,0,.362,1.807h-8.727a1.472,1.472,0,0,0-1.473,1.471v0a13.95,13.95,0,0,0,13.937,13.933H570.094a13.949,13.949,0,0,0,13.935-13.933,1.473,1.473,0,0,0-1.471-1.473h-8.729a4.726,4.726,0,0,0,.362-1.807v-39.891a29.73,29.73,0,0,1-2.945.818Zm9.741,4.752a11.008,11.008,0,0,1-10.893,9.517H461.871a11.007,11.007,0,0,1-10.894-9.517Z"/>
      <path id="Path_14273" data-name="Path 14273" d="M467.942-351.114v-57.07h65.683v-2.947H466.47A1.473,1.473,0,0,0,465-409.658h0v60.015a1.472,1.472,0,0,0,1.473,1.473h99.024a1.472,1.472,0,0,0,1.472-1.472h0V-383.5c-.771.059-1.541.119-2.327.119-.208,0-.41-.026-.618-.031v32.295Z"/>
      <path id="Path_14274" data-name="Path 14274" d="M564.64-441.111a27.393,27.393,0,0,0-27.388,27.4,27.394,27.394,0,0,0,27.4,27.388,27.394,27.394,0,0,0,27.388-27.388v-.02A27.426,27.426,0,0,0,564.64-441.111Zm0,12.25a15.146,15.146,0,0,1,15.146,15.146,15.146,15.146,0,0,1-15.146,15.146,15.146,15.146,0,0,1-15.146-15.146v0a15.162,15.162,0,0,1,15.147-15.144Zm0,39.594a24.433,24.433,0,0,1-24.455-24.413,24.433,24.433,0,0,1,22.985-24.412v6.357a18.083,18.083,0,0,0-16.557,19.49,18.083,18.083,0,0,0,19.49,16.557,18.083,18.083,0,0,0,16.557-16.559h6.357a24.461,24.461,0,0,1-24.377,22.98Zm21.43-25.921h-3.411a18.1,18.1,0,0,0-16.544-16.547V-438.1a24.446,24.446,0,0,1,22.9,22.9Z"/>
    </g>
    <path id="Path_14377" data-name="Path 14377" d="M484.2-398.569"/>
    <path id="Path_14378" data-name="Path 14378" d="M483.973-376.854a11.349,11.349,0,0,1-11.266-11.4,11.3,11.3,0,0,1,10.815-11.391l1.04-.042v10.433h10.677v1A11.348,11.348,0,0,1,483.973-376.854Zm-1.411-20.7a9.327,9.327,0,0,0-7.855,9.293,9.346,9.346,0,0,0,9.266,9.4,9.331,9.331,0,0,0,9.214-8.4H482.562Z"/>
    <path id="Path_14379" data-name="Path 14379" d="M499.984-391.364H487.308v-12.354l.961-.038c.149-.006.3-.011.45-.011a11.347,11.347,0,0,1,11.265,11.4Zm-10.676-2h8.625a9.346,9.346,0,0,0-8.625-8.385Z"/>
    <rect id="Rectangle_215" data-name="Rectangle 215" width="6.825" height="2.001" transform="matrix(0.869, -0.495, 0.495, 0.869, 500.863, -382.92)"/>
    <rect id="Rectangle_216" data-name="Rectangle 216" width="2" height="8.524" transform="translate(511.607 -384.819) rotate(-52.394)"/>
    <rect id="Rectangle_217" data-name="Rectangle 217" width="15.211" height="2" transform="translate(522.152 -381.691) rotate(-56.512)"/>
    <path id="Path_14380" data-name="Path 14380" d="M501.992-357.36h-7.566v-12.768h7.566Zm-5.566-2h3.566v-8.768h-3.566Z"/>
    <path id="Path_14381" data-name="Path 14381" d="M513.49-357.36h-7.2v-19.156h7.2Zm-5.2-2h3.2v-15.156h-3.2Z"/>
    <path id="Path_14382" data-name="Path 14382" d="M525.262-357.36H517.7v-11.308h7.567Zm-5.567-2h3.567v-7.308H519.7Z"/>
    <path id="Path_14383" data-name="Path 14383" d="M536.3-357.36h-6.745V-381.9H536.3Zm-4.745-2H534.3V-379.9h-2.745Z"/>
    <path id="Path_14384" data-name="Path 14384" d="M509.848-382.238c-.061,0-.121,0-.182-.005a3.35,3.35,0,0,1-2.329-1.112,3.352,3.352,0,0,1-.861-2.434,3.348,3.348,0,0,1,1.112-2.329,3.369,3.369,0,0,1,2.433-.861,3.349,3.349,0,0,1,2.33,1.112,3.354,3.354,0,0,1,.861,2.433h0a3.352,3.352,0,0,1-1.112,2.33A3.347,3.347,0,0,1,509.848-382.238Zm-.005-4.746a1.362,1.362,0,0,0-.917.353,1.354,1.354,0,0,0-.452.947,1.36,1.36,0,0,0,.349.991,1.365,1.365,0,0,0,.948.453,1.4,1.4,0,0,0,.991-.351,1.362,1.362,0,0,0,.452-.948h0a1.364,1.364,0,0,0-.35-.99,1.365,1.365,0,0,0-.948-.453Z"/>
    <path id="Path_14385" data-name="Path 14385" d="M521.072-376.672c-.06,0-.121,0-.181-.005a3.344,3.344,0,0,1-2.329-1.112,3.35,3.35,0,0,1-.862-2.433,3.357,3.357,0,0,1,1.112-2.33,3.385,3.385,0,0,1,2.434-.861,3.348,3.348,0,0,1,2.329,1.112,3.356,3.356,0,0,1,.862,2.433h0a3.354,3.354,0,0,1-1.113,2.33A3.347,3.347,0,0,1,521.072-376.672Zm-.005-4.745a1.362,1.362,0,0,0-.917.352,1.363,1.363,0,0,0-.452.948,1.366,1.366,0,0,0,.35.991,1.364,1.364,0,0,0,.948.452,1.394,1.394,0,0,0,.99-.35,1.358,1.358,0,0,0,.452-.948h0a1.361,1.361,0,0,0-.349-.99,1.369,1.369,0,0,0-.948-.453Z"/>
    <path id="Path_14386" data-name="Path 14386" d="M532.57-392.459c-.06,0-.121,0-.181,0a3.345,3.345,0,0,1-2.329-1.112,3.352,3.352,0,0,1-.862-2.433,3.354,3.354,0,0,1,1.113-2.33,3.353,3.353,0,0,1,2.433-.861,3.349,3.349,0,0,1,2.329,1.112,3.356,3.356,0,0,1,.862,2.433h0a3.354,3.354,0,0,1-1.113,2.33A3.347,3.347,0,0,1,532.57-392.459Zm-.005-4.746a1.363,1.363,0,0,0-.917.353,1.362,1.362,0,0,0-.452.948,1.364,1.364,0,0,0,.35.99,1.361,1.361,0,0,0,.948.453,1.391,1.391,0,0,0,.99-.351,1.358,1.358,0,0,0,.453-.947h0a1.364,1.364,0,0,0-.35-.99,1.369,1.369,0,0,0-.948-.453Z"/>
    <path id="Path_14387" data-name="Path 14387" d="M499.443-377.767c-.059,0-.119,0-.179-.005a3.379,3.379,0,0,1-3.192-3.545,3.371,3.371,0,0,1,3.546-3.191,3.379,3.379,0,0,1,3.192,3.545h0A3.379,3.379,0,0,1,499.443-377.767Zm0-4.746a1.375,1.375,0,0,0-1.37,1.3,1.375,1.375,0,0,0,1.3,1.443,1.363,1.363,0,0,0,1.443-1.3h0a1.375,1.375,0,0,0-1.3-1.444Z"/>
  </g>
</svg>
