<svg xmlns="http://www.w3.org/2000/svg" width="164.362" height="117.18" viewBox="0 0 164.362 117.18">
  <g id="Group_494" data-name="Group 494" transform="translate(-336.734 205.776)">
    <path id="Path_14336" data-name="Path 14336" d="M392.9-120.123c0-6.255.071-12.51-.032-18.763a6.949,6.949,0,0,1,3.371-6.278,26.446,26.446,0,0,1,10.025-3.771,56.975,56.975,0,0,1,27.589,1.055,29.264,29.264,0,0,1,6.445,3.068,6.284,6.284,0,0,1,2.981,5.844c-.056,12.509-.091,25.019.019,37.527a7.51,7.51,0,0,1-4.021,6.99,31.428,31.428,0,0,1-11.9,3.844,58.528,58.528,0,0,1-23.8-1.1,21.13,21.13,0,0,1-8.1-3.742,6.532,6.532,0,0,1-2.6-5.457C392.943-107.314,392.9-113.719,392.9-120.123ZM418.026-132.3c5.355-.132,10.69-.537,15.782-2.382a21.669,21.669,0,0,0,4.924-2.476c2.506-1.735,2.48-3.725-.013-5.525a15.313,15.313,0,0,0-4.087-2.153,52.8,52.8,0,0,0-32.306-.292,17.954,17.954,0,0,0-5.037,2.569c-2.346,1.65-2.309,3.644.024,5.344a18.279,18.279,0,0,0,4.069,2.194C406.721-132.923,412.345-132.456,418.026-132.3Zm22.562-2.273c-15.075,6.654-29.96,6.66-45.008.009a37.231,37.231,0,0,1-.049,5.553c-.52,3.53,1.4,5.292,4.209,6.573a22.328,22.328,0,0,0,2.356.961,54.246,54.246,0,0,0,27.111,1.31c3.306-.62,6.577-1.487,9.283-3.571a5.239,5.239,0,0,0,2.005-3.093A68.936,68.936,0,0,0,440.588-134.573ZM395.58-121.309c0,2.193.1,4.548-.031,6.89a4.021,4.021,0,0,0,2.117,3.994,26.411,26.411,0,0,0,5.121,2.416,54.026,54.026,0,0,0,25.064,1.361c3.613-.58,7.187-1.437,10.248-3.549,1.005-.693,2.225-1.838,2.35-2.894a69.218,69.218,0,0,0,.111-8.214C425.534-114.654,410.65-114.638,395.58-121.309Zm0,13.27c0,2.262.053,4.745-.021,7.224a3.243,3.243,0,0,0,1.451,3.1,28.407,28.407,0,0,0,5.683,2.916c8.306,2.669,16.8,2.753,25.346,1.373a24.159,24.159,0,0,0,10.094-3.528c.974-.669,2.189-1.757,2.3-2.764a73.96,73.96,0,0,0,.11-8.3C425.5-101.411,410.613-101.385,395.58-108.039Z"/>
    <path id="Path_14337" data-name="Path 14337" d="M371.095-91.7h-3v-49.548l53.348-34.667,24.823,16.344v-5.421H468.4v20.107l6.052,3.6v49.424h-3V-139.58l-6.052-3.6v-18.814H449.266V-154L421.431-172.33l-50.336,32.71Z"/>
    <path id="Path_14338" data-name="Path 14338" d="M363.871-99.848H342.093v-62.99h3v59.99h18.778Z"/>
    <path id="Path_14339" data-name="Path 14339" d="M381.533-153.488h-11.64V-190.64h3v34.151h8.64Z"/>
    <rect id="Rectangle_214" data-name="Rectangle 214" width="3" height="22.568" transform="translate(435.636 -193.91)"/>
    <path id="Path_14340" data-name="Path 14340" d="M495.22-112.572l-16.9-.36.064-3,13.84.294v-72.387h3Z"/>
    <path id="Path_14341" data-name="Path 14341" d="M343.724-160.9a7,7,0,0,1-6.99-6.99,7,7,0,0,1,6.99-6.989,7,7,0,0,1,6.989,6.989A7,7,0,0,1,343.724-160.9Zm0-10.979a3.994,3.994,0,0,0-3.99,3.989,4,4,0,0,0,3.99,3.99,3.994,3.994,0,0,0,3.989-3.99A3.994,3.994,0,0,0,343.724-171.883Z"/>
    <path id="Path_14342" data-name="Path 14342" d="M371.809-188.479a7,7,0,0,1-6.99-6.989,7,7,0,0,1,6.99-6.99,7,7,0,0,1,6.989,6.99A7,7,0,0,1,371.809-188.479Zm0-10.979a4,4,0,0,0-3.99,3.99,3.994,3.994,0,0,0,3.99,3.989,3.994,3.994,0,0,0,3.989-3.989A3.994,3.994,0,0,0,371.809-199.458Z"/>
    <path id="Path_14343" data-name="Path 14343" d="M437.681-191.8a7,7,0,0,1-6.99-6.989,7,7,0,0,1,6.99-6.989,7,7,0,0,1,6.989,6.989A7,7,0,0,1,437.681-191.8Zm0-10.978a3.994,3.994,0,0,0-3.99,3.989,3.994,3.994,0,0,0,3.99,3.989,3.994,3.994,0,0,0,3.989-3.989A3.994,3.994,0,0,0,437.681-202.776Z"/>
    <path id="Path_14344" data-name="Path 14344" d="M494.106-185.67a7,7,0,0,1-6.989-6.99,7,7,0,0,1,6.989-6.989,7,7,0,0,1,6.99,6.989A7,7,0,0,1,494.106-185.67Zm0-10.979a3.994,3.994,0,0,0-3.989,3.989,3.994,3.994,0,0,0,3.989,3.99,4,4,0,0,0,3.99-3.99A3.994,3.994,0,0,0,494.106-196.649Z"/>
    <path id="Path_14345" data-name="Path 14345" d="M445.251-125.992h-1.817v1.706a1.223,1.223,0,0,1-.336.828c.123-.088.25-.166.371-.258A5.967,5.967,0,0,0,445.251-125.992Z" fill="none"/>
    <path id="Path_14346" data-name="Path 14346" d="M452.254-108.532a6.663,6.663,0,0,0-4.029-6.114c.008,4.069.014,8.138.047,12.207A6.665,6.665,0,0,0,452.254-108.532Z" fill="none"/>
    <path id="Path_14347" data-name="Path 14347" d="M448.8-123.37a15.008,15.008,0,0,1,5.019,2.079.944.944,0,0,0,1.172-.124l1.418-1.419.107.105,3.376,3.375-1.42,1.42a.939.939,0,0,0-.124,1.17,15.057,15.057,0,0,1,2.079,5.021.942.942,0,0,0,.917.739h2.018v4.924h-2.018a.944.944,0,0,0-.917.74,15.017,15.017,0,0,1-2.079,5.018.943.943,0,0,0,.124,1.173l1.429,1.428-.106.106-3.375,3.376-1.429-1.428a.937.937,0,0,0-1.172-.125,15.029,15.029,0,0,1-5.019,2.079.942.942,0,0,0-.739.917v2.026h-4.925V-92.8a.941.941,0,0,0-.428-.783,25.2,25.2,0,0,1-2.665,1.152c.366.126.735.241,1.109.342l.111.029v2.223a.937.937,0,0,0,.937.936h6.8a.937.937,0,0,0,.937-.936v-2.223l.111-.029a16.894,16.894,0,0,0,4.044-1.677l.1-.058,1.57,1.57a.961.961,0,0,0,1.324,0l4.805-4.809a.927.927,0,0,0,.275-.663.926.926,0,0,0-.274-.661l-1.568-1.568.057-.1a16.87,16.87,0,0,0,1.677-4.044l.029-.111H464.3a.938.938,0,0,0,.937-.937v-6.8a.937.937,0,0,0-.937-.936H462.08l-.029-.112a16.888,16.888,0,0,0-1.676-4.044l-.057-.1,1.559-1.56a.941.941,0,0,0,.275-.663.939.939,0,0,0-.275-.662l-4.808-4.805a.933.933,0,0,0-.663-.275h0a.936.936,0,0,0-.662.274l-1.558,1.559-.1-.058A16.922,16.922,0,0,0,450.042-125l-.111-.03v-2.2a.937.937,0,0,0-.937-.936h-.767q-.006,2.187-.013,4.375A.928.928,0,0,0,448.8-123.37Z"/>
    <path id="Path_14348" data-name="Path 14348" d="M448.735-123.077a14.715,14.715,0,0,1,4.919,2.038,1.246,1.246,0,0,0,1.546-.163l1.206-1.208,3.059,3.056-1.209,1.207a1.245,1.245,0,0,0-.163,1.546,14.729,14.729,0,0,1,2.038,4.92,1.244,1.244,0,0,0,1.21.978h1.717v4.322h-1.717a1.245,1.245,0,0,0-1.21.978,14.7,14.7,0,0,1-2.038,4.919,1.247,1.247,0,0,0,.163,1.547l1.218,1.216-3.057,3.059L455.2-95.879a1.241,1.241,0,0,0-1.546-.165,14.757,14.757,0,0,1-4.919,2.038,1.245,1.245,0,0,0-.978,1.21v1.725h-4.323V-92.8a1.229,1.229,0,0,0-.446-.927c-.046.024-.091.051-.137.075a1.076,1.076,0,0,1,.433.852v1.875h4.623V-92.8a1.087,1.087,0,0,1,.859-1.063,14.9,14.9,0,0,0,4.969-2.059,1.085,1.085,0,0,1,1.359.144l1.324,1.323,3.267-3.27-1.322-1.322a1.087,1.087,0,0,1-.144-1.359,14.906,14.906,0,0,0,2.059-4.97,1.087,1.087,0,0,1,1.063-.858h1.868v-4.624h-1.868a1.086,1.086,0,0,1-1.063-.858,14.9,14.9,0,0,0-2.059-4.969,1.085,1.085,0,0,1,.144-1.359l1.314-1.314-3.27-3.268-1.313,1.313a1.088,1.088,0,0,1-1.359.144,14.88,14.88,0,0,0-4.969-2.059,1.07,1.07,0,0,1-.552-.322c0,.065,0,.13,0,.195A1.216,1.216,0,0,0,448.735-123.077Z"/>
    <path id="Path_14349" data-name="Path 14349" d="M464.3-113.178H462.31a17.209,17.209,0,0,0-1.617-3.9l1.4-1.4a1.248,1.248,0,0,0,.362-.876,1.249,1.249,0,0,0-.362-.875l-4.809-4.8a1.228,1.228,0,0,0-.875-.363h0a1.228,1.228,0,0,0-.875.363l-1.4,1.395a17.27,17.27,0,0,0-3.9-1.617v-1.975a1.24,1.24,0,0,0-1.238-1.237h-.767v.151h.767a1.086,1.086,0,0,1,1.087,1.087v2.088a16.97,16.97,0,0,1,4.08,1.691l1.477-1.477a1.086,1.086,0,0,1,1.537,0l4.808,4.8a1.089,1.089,0,0,1,.319.769,1.088,1.088,0,0,1-.318.769l-1.479,1.479a17.021,17.021,0,0,1,1.691,4.079h2.1a1.087,1.087,0,0,1,1.087,1.087v6.8a1.087,1.087,0,0,1-1.087,1.087h-2.1a16.988,16.988,0,0,1-1.691,4.08l1.487,1.486a1.089,1.089,0,0,1,0,1.538l-4.8,4.808a1.087,1.087,0,0,1-.768.318,1.088,1.088,0,0,1-.77-.318l-1.488-1.488a17.011,17.011,0,0,1-4.08,1.691v2.108a1.087,1.087,0,0,1-1.087,1.087h-6.8a1.087,1.087,0,0,1-1.087-1.087v-2.108c-.437-.118-.865-.258-1.29-.409-.075.027-.151.049-.227.075.45.166.9.321,1.366.449v1.993A1.24,1.24,0,0,0,442.2-88.6h6.8a1.24,1.24,0,0,0,1.238-1.237v-1.993a17.148,17.148,0,0,0,3.9-1.619l1.407,1.408a1.235,1.235,0,0,0,.875.362,1.242,1.242,0,0,0,.875-.363l4.8-4.808a1.234,1.234,0,0,0,.362-.876,1.229,1.229,0,0,0-.362-.874l-1.4-1.4a17.2,17.2,0,0,0,1.618-3.9H464.3a1.239,1.239,0,0,0,1.237-1.237v-6.8A1.239,1.239,0,0,0,464.3-113.178Z"/>
    <path id="Path_14350" data-name="Path 14350" d="M448.766-123.224a14.88,14.88,0,0,1,4.969,2.059,1.088,1.088,0,0,0,1.359-.144l1.313-1.313,3.27,3.268-1.314,1.314a1.085,1.085,0,0,0-.144,1.359,14.9,14.9,0,0,1,2.059,4.969,1.086,1.086,0,0,0,1.063.858h1.868v4.624h-1.868a1.087,1.087,0,0,0-1.063.858,14.906,14.906,0,0,1-2.059,4.97,1.087,1.087,0,0,0,.144,1.359l1.322,1.322-3.267,3.27-1.324-1.323a1.085,1.085,0,0,0-1.359-.144,14.9,14.9,0,0,1-4.969,2.059,1.087,1.087,0,0,0-.859,1.063v1.875h-4.623V-92.8a1.076,1.076,0,0,0-.433-.852c-.048.024-.1.044-.146.069a.941.941,0,0,1,.428.783v2.026h4.925V-92.8a.942.942,0,0,1,.739-.917,15.029,15.029,0,0,0,5.019-2.079.937.937,0,0,1,1.172.125l1.429,1.428,3.375-3.376.106-.106-1.429-1.428a.943.943,0,0,1-.124-1.173,15.017,15.017,0,0,0,2.079-5.018.944.944,0,0,1,.917-.74h2.018V-111h-2.018a.942.942,0,0,1-.917-.739,15.057,15.057,0,0,0-2.079-5.021.939.939,0,0,1,.124-1.17l1.42-1.42-3.376-3.375-.107-.105-1.418,1.419a.944.944,0,0,1-1.172.124,15.008,15.008,0,0,0-5.019-2.079.928.928,0,0,1-.583-.422v.246A1.07,1.07,0,0,0,448.766-123.224Z"/>
    <path id="Path_14351" data-name="Path 14351" d="M448.994-128.167a.937.937,0,0,1,.937.936v2.2l.111.03a16.922,16.922,0,0,1,4.044,1.675l.1.058,1.558-1.559a.936.936,0,0,1,.662-.274h0a.933.933,0,0,1,.663.275l4.808,4.805a.939.939,0,0,1,.275.662.941.941,0,0,1-.275.663l-1.559,1.56.057.1a16.888,16.888,0,0,1,1.676,4.044l.029.112H464.3a.937.937,0,0,1,.937.936v6.8a.938.938,0,0,1-.937.937h-2.215l-.029.111a16.87,16.87,0,0,1-1.677,4.044l-.057.1,1.568,1.568a.926.926,0,0,1,.274.661.927.927,0,0,1-.275.663L457.08-92.25a.961.961,0,0,1-1.324,0l-1.57-1.57-.1.058a16.894,16.894,0,0,1-4.044,1.677l-.111.029v2.223a.937.937,0,0,1-.937.936h-6.8a.937.937,0,0,1-.937-.936v-2.223l-.111-.029c-.374-.1-.743-.216-1.109-.342-.073.027-.147.051-.22.077.425.151.853.291,1.29.409v2.108a1.087,1.087,0,0,0,1.087,1.087h6.8a1.087,1.087,0,0,0,1.087-1.087v-2.108a17.011,17.011,0,0,0,4.08-1.691l1.488,1.488a1.088,1.088,0,0,0,.77.318,1.087,1.087,0,0,0,.768-.318l4.8-4.808a1.089,1.089,0,0,0,0-1.538l-1.487-1.486a16.988,16.988,0,0,0,1.691-4.08h2.1a1.087,1.087,0,0,0,1.087-1.087v-6.8a1.087,1.087,0,0,0-1.087-1.087h-2.1a17.021,17.021,0,0,0-1.691-4.079l1.479-1.479a1.088,1.088,0,0,0,.318-.769,1.089,1.089,0,0,0-.319-.769l-4.808-4.8a1.086,1.086,0,0,0-1.537,0l-1.477,1.477a16.97,16.97,0,0,0-4.08-1.691v-2.088a1.086,1.086,0,0,0-1.087-1.087h-.767v.15Z"/>
    <path id="Path_14352" data-name="Path 14352" d="M454.428-108.532a8.849,8.849,0,0,0-6.212-8.436c0,.666.007,1.331.008,2a6.967,6.967,0,0,1,4.331,6.439,6.969,6.969,0,0,1-4.281,6.422c0,.23,0,.46,0,.69a9.6,9.6,0,0,1-.085,1.33A8.847,8.847,0,0,0,454.428-108.532Z"/>
    <path id="Path_14353" data-name="Path 14353" d="M454.578-108.532a9,9,0,0,1-6.416,8.6c-.008.055-.02.108-.029.162a9.144,9.144,0,0,0,6.6-8.767,9.146,9.146,0,0,0-6.514-8.746c0,.052,0,.1,0,.156A9,9,0,0,1,454.578-108.532Z"/>
    <path id="Path_14354" data-name="Path 14354" d="M452.254-108.532a6.665,6.665,0,0,1-3.982,6.093c0,.055,0,.11,0,.165a6.816,6.816,0,0,0,4.131-6.258,6.818,6.818,0,0,0-4.179-6.279v.165A6.663,6.663,0,0,1,452.254-108.532Z"/>
    <path id="Path_14355" data-name="Path 14355" d="M452.4-108.532a6.816,6.816,0,0,1-4.131,6.258c0,.055,0,.11,0,.164a6.969,6.969,0,0,0,4.281-6.422,6.967,6.967,0,0,0-4.331-6.439c0,.053,0,.106,0,.16A6.818,6.818,0,0,1,452.4-108.532Z"/>
    <path id="Path_14356" data-name="Path 14356" d="M454.428-108.532a8.847,8.847,0,0,1-6.237,8.442c-.007.056-.021.107-.029.163a9,9,0,0,0,6.416-8.6,9,9,0,0,0-6.362-8.59v.154A8.849,8.849,0,0,1,454.428-108.532Z"/>
    <path id="Path_14357" data-name="Path 14357" d="M445.357-126.293h2.7v2.006a.921.921,0,0,0,.156.5q0-2.187.013-4.375h-2.658c-.025.453-.045.906-.1,1.358A2.745,2.745,0,0,1,445.357-126.293Z"/>
    <path id="Path_14358" data-name="Path 14358" d="M442.688-123.171a1.224,1.224,0,0,0,.41-.287C442.962-123.36,442.826-123.263,442.688-123.171Z"/>
    <path id="Path_14359" data-name="Path 14359" d="M445.579-128.317h2.648v-.151H445.59C445.587-128.418,445.581-128.368,445.579-128.317Z"/>
    <path id="Path_14360" data-name="Path 14360" d="M447.757-125.992v1.7a1.229,1.229,0,0,0,.456.936c0-.065,0-.13,0-.195a1.074,1.074,0,0,1-.307-.741v-1.856h-2.6c-.018.05-.032.1-.053.151Z"/>
    <path id="Path_14361" data-name="Path 14361" d="M445.569-128.167h2.658v-.15h-2.648C445.577-128.267,445.571-128.217,445.569-128.167Z"/>
    <path id="Path_14362" data-name="Path 14362" d="M447.907-126.143v1.856a1.074,1.074,0,0,0,.307.741v-.246a.921.921,0,0,1-.156-.5v-2.006h-2.7c-.016.05-.035.1-.053.15Z"/>
    <path id="Path_14363" data-name="Path 14363" d="M445.587-115.49h.009a6.908,6.908,0,0,1,2.628.52c0-.666-.007-1.331-.008-2a8.8,8.8,0,0,0-2.612-.4C445.611-116.744,445.6-116.118,445.587-115.49Z"/>
    <path id="Path_14364" data-name="Path 14364" d="M448.274-102.11a6.927,6.927,0,0,1-2.678.537l-.052,0c-.026.622-.063,1.245-.131,1.866.061,0,.121.009.183.009a8.8,8.8,0,0,0,2.6-.39,9.6,9.6,0,0,0,.085-1.33C448.274-101.65,448.276-101.88,448.274-102.11Z"/>
    <path id="Path_14365" data-name="Path 14365" d="M445.6-101.873l-.034,0c0,.05-.006.1-.008.15l.042,0a6.752,6.752,0,0,0,2.677-.551c0-.055,0-.11,0-.165A6.624,6.624,0,0,1,445.6-101.873Z"/>
    <path id="Path_14366" data-name="Path 14366" d="M445.6-99.549c-.073,0-.144-.009-.216-.011-.011.049-.021.1-.036.149.085,0,.167.012.252.012a9.088,9.088,0,0,0,2.537-.366c.009-.054.021-.107.029-.162A8.952,8.952,0,0,1,445.6-99.549Z"/>
    <path id="Path_14367" data-name="Path 14367" d="M448.216-117.122c0-.052,0-.1,0-.156a9.081,9.081,0,0,0-2.616-.387c0,.05,0,.1,0,.151A8.931,8.931,0,0,1,448.216-117.122Z"/>
    <path id="Path_14368" data-name="Path 14368" d="M445.6-115.19a6.605,6.605,0,0,1,2.629.544v-.165a6.777,6.777,0,0,0-2.629-.529h-.011c0,.051,0,.1,0,.151Z"/>
    <path id="Path_14369" data-name="Path 14369" d="M448.162-99.927c.008-.056.022-.107.029-.163a8.8,8.8,0,0,1-2.6.39c-.062,0-.122-.008-.183-.009v.013c0,.045-.023.091-.032.136.072,0,.143.011.216.011A8.952,8.952,0,0,0,448.162-99.927Z"/>
    <path id="Path_14370" data-name="Path 14370" d="M448.216-116.968v-.154a8.931,8.931,0,0,0-2.615-.392c0,.05,0,.1,0,.15A8.8,8.8,0,0,1,448.216-116.968Z"/>
    <path id="Path_14371" data-name="Path 14371" d="M445.587-115.49c0,.05,0,.1,0,.15h.011a6.777,6.777,0,0,1,2.629.529c0-.054,0-.107,0-.16a6.908,6.908,0,0,0-2.628-.52Z"/>
    <path id="Path_14372" data-name="Path 14372" d="M445.6-101.723l-.042,0c0,.05-.008.1-.01.15l.052,0a6.927,6.927,0,0,0,2.678-.537c0-.054,0-.109,0-.164A6.752,6.752,0,0,1,445.6-101.723Z"/>
  </g>
</svg>
