<svg xmlns="http://www.w3.org/2000/svg" width="137.226" height="136.495" viewBox="0 0 137.226 136.495">
  <g id="Group_490" data-name="Group 490" transform="translate(-889.916 -15.098)">
    <path id="Path_14295" data-name="Path 14295" d="M1026.839,99.042H891.711V58.828h135.128ZM894.914,95.535h128.418v-33.2H894.54Z" transform="translate(0.303 7.389)"/>
    <rect id="Rectangle_196" data-name="Rectangle 196" width="3.507" height="13.282" transform="translate(957.383 104.437)"/>
    <rect id="Rectangle_197" data-name="Rectangle 197" width="3.507" height="12.558" transform="translate(957.383 55.654)"/>
    <path id="Path_14296" data-name="Path 14296" d="M1012.5,52.877H901.769V39.049h3.507V49.37h103.718V40.74h3.507Z" transform="translate(2.003 4.047)"/>
    <path id="Path_14297" data-name="Path 14297" d="M919.875,44.043H889.916l15.578-28.461Zm-24.04-3.507h18.339l-8.8-17.424Z" transform="translate(0 0.082)"/>
    <path id="Path_14298" data-name="Path 14298" d="M949.039,45.822h-26.69v-27.9h26.69Zm-23.183-3.507h19.676V21.43H925.856Z" transform="translate(5.481 0.477)"/>
    <path id="Path_14299" data-name="Path 14299" d="M965.935,45.857A14.07,14.07,0,1,1,980,31.786,14.087,14.087,0,0,1,965.935,45.857Zm0-24.634A10.563,10.563,0,1,0,976.5,31.786,10.576,10.576,0,0,0,965.935,21.223Z" transform="translate(10.468 0.442)"/>
    <path id="Path_14300" data-name="Path 14300" d="M951.653,136.907a17.451,17.451,0,1,1,17.452-17.451A17.47,17.47,0,0,1,951.653,136.907Zm0-31.4A13.944,13.944,0,1,0,965.6,119.457,13.96,13.96,0,0,0,951.653,105.512Z" transform="translate(7.484 14.685)"/>
    <path id="Path_14301" data-name="Path 14301" d="M996.733,47.427l-14-8.082V23.18l14-8.082,14,8.082V39.345ZM986.24,37.32l10.493,6.059,10.493-6.059V25.2l-10.493-6.058L986.24,25.2Z" transform="translate(15.684)"/>
    <g id="Group_474" data-name="Group 474" transform="translate(902.979 74.51)">
      <path id="Path_14302" data-name="Path 14302" d="M923.293,87.151h-21.78l11.325-20.692ZM905.815,84.6h13.333l-6.4-12.668Z" transform="translate(-901.02 -65.831)"/>
      <path id="Path_14303" data-name="Path 14303" d="M923.839,87.534H901.091L912.92,65.922Zm-21.762-.584h20.811L912.9,67.177ZM919.7,84.985h-14.3L912.83,71.4ZM906.38,84.4h12.365l-5.936-11.748Z" transform="translate(-901.091 -65.922)"/>
    </g>
    <g id="Group_475" data-name="Group 475" transform="translate(932.857 76.834)">
      <path id="Path_14304" data-name="Path 14304" d="M946.3,88.444H926.9V68.16h19.4ZM929.45,85.893h14.3V70.71h-14.3Z" transform="translate(-926.608 -67.868)"/>
      <path id="Path_14305" data-name="Path 14305" d="M946.64,88.779H926.65V67.91h19.99Zm-19.405-.584h18.82v-19.7h-18.82Zm16.854-1.965H929.2V70.46h14.889Zm-14.3-.584H943.5v-14.6h-13.72Z" transform="translate(-926.65 -67.91)"/>
    </g>
    <g id="Group_476" data-name="Group 476" transform="translate(962.534 76.659)">
      <path id="Path_14306" data-name="Path 14306" d="M962.517,88.469a10.23,10.23,0,1,1,10.23-10.23A10.242,10.242,0,0,1,962.517,88.469Zm0-17.91a7.68,7.68,0,1,0,7.68,7.68A7.69,7.69,0,0,0,962.517,70.56Z" transform="translate(-951.995 -67.718)"/>
      <path id="Path_14307" data-name="Path 14307" d="M962.559,88.8a10.522,10.522,0,1,1,10.522-10.522A10.534,10.534,0,0,1,962.559,88.8Zm0-20.459a9.937,9.937,0,1,0,9.938,9.937A9.949,9.949,0,0,0,962.559,68.344Zm0,17.91a7.972,7.972,0,1,1,7.971-7.972A7.981,7.981,0,0,1,962.559,86.254Zm0-15.36a7.388,7.388,0,1,0,7.387,7.388A7.4,7.4,0,0,0,962.559,70.894Z" transform="translate(-952.037 -67.76)"/>
    </g>
    <g id="Group_477" data-name="Group 477" transform="translate(992.212 74.389)">
      <path id="Path_14308" data-name="Path 14308" d="M987.852,89.612l-10.177-5.876V71.982l10.177-5.876,10.178,5.876V83.735Zm-7.627-7.349,7.627,4.4,7.629-4.4V73.455l-7.629-4.4-7.627,4.4Z" transform="translate(-977.383 -65.769)"/>
      <path id="Path_14309" data-name="Path 14309" d="M987.9,90l-10.47-6.044V71.863l10.47-6.045,10.469,6.045V83.954Zm-9.886-6.383,9.886,5.708,9.885-5.708V72.2L987.9,66.492,978.009,72.2Zm9.886,3.439-7.922-4.573V73.335l7.922-4.573,7.92,4.573v9.146Zm-7.338-4.911,7.338,4.236,7.335-4.236v-8.47L987.9,69.436l-7.338,4.236Z" transform="translate(-977.425 -65.818)"/>
    </g>
    <path id="Path_14310" data-name="Path 14310" d="M947.933,125.484,946.7,124.41c-1.5-1.3-4.088-3.654-4.642-4.765l3.136-1.569-.02-.037a23.675,23.675,0,0,0,2.61,2.636l8.005-8,2.479,2.479Z" transform="translate(8.811 16.488)"/>
  </g>
</svg>
