<svg xmlns="http://www.w3.org/2000/svg" width="169.291" height="51.477" viewBox="0 0 169.291 51.477">
  <g id="Group_7" data-name="Group 7" transform="translate(0 0)">
    <g id="Group_6" data-name="Group 6" transform="translate(0 0)">
      <g id="Group_2" data-name="Group 2" transform="translate(0 0.37)">
        <path id="Path_1" data-name="Path 1" d="M118.23,91.487V77.814h-6.806v6.7h-6.813v-6.7H97.692V91.487h6.919V98.3H84.006V91.487h6.827V77.814H84.006v6.7H77.152v-6.7H70.341V91.487h6.811V98.3H70.341V111.97h6.811V105.1h13.68v6.865H84.006v6.837h6.827v6.846h6.86v-6.846h6.919V111.97H97.692V105.1h13.732v6.865h6.806V98.3h-6.806V91.487Z" transform="translate(-70.341 -77.814)" fill="#e61c3c"/>
        <rect id="Rectangle_2" data-name="Rectangle 2" width="6.811" height="6.846" transform="translate(0 40.992)" fill="#e61c3c"/>
        <rect id="Rectangle_3" data-name="Rectangle 3" width="6.806" height="6.846" transform="translate(41.083 40.992)" fill="#e61c3c"/>
      </g>
      <g id="Group_3" data-name="Group 3" transform="translate(53.263)">
        <path id="Path_2" data-name="Path 2" d="M127.376,80.235H123.6v-2.07h10.132v2.07h-3.758V88.88h-2.6Z" transform="translate(-123.604 -77.444)" fill="#fff"/>
        <path id="Path_3" data-name="Path 3" d="M138.22,77.553V82a2.873,2.873,0,0,1,2.607-1.2c1.94,0,3.084,1.105,3.084,3.357V88.88H141.4V84.439c0-1.005-.27-1.7-1.4-1.7-1.177,0-1.764.869-1.764,2.368V88.88h-2.486V77.553Z" transform="translate(-123.604 -77.444)" fill="#fff"/>
        <path id="Path_4" data-name="Path 4" d="M148.786,85.554a1.786,1.786,0,0,0,1.931,1.692,1.679,1.679,0,0,0,1.667-.77h2.486c-.474,1.393-1.656,2.617-4.179,2.617-3.219,0-4.38-2.135-4.38-4.133a4.035,4.035,0,0,1,4.361-4.154,3.959,3.959,0,0,1,4.293,4.154c0,.2,0,.342-.013.594Zm3.657-1.523a1.552,1.552,0,0,0-1.773-1.485c-1.306,0-1.78.712-1.854,1.485Z" transform="translate(-123.604 -77.444)" fill="#fff"/>
        <path id="Path_5" data-name="Path 5" d="M164.228,85.669c.307.925,1.047,1.533,2.826,1.533,1.665,0,2.147-.509,2.147-1.2,0-.738-.494-1.155-2.752-1.538-3.718-.636-4.394-1.843-4.394-3.281,0-2.14,2.06-3.233,4.593-3.233,3.677,0,4.675,1.891,4.8,3.136h-2.6c-.151-.531-.508-1.241-2.276-1.241-1.239,0-1.866.394-1.866,1.086,0,.62.441.931,2.453,1.292,4.071.731,4.708,1.959,4.708,3.514,0,1.857-1.457,3.358-5.051,3.358-3.352,0-4.862-1.5-5.187-3.426Z" transform="translate(-123.604 -77.444)" fill="#fff"/>
        <path id="Path_6" data-name="Path 6" d="M183.078,84.943c0,2.419-1.673,4.15-4.591,4.15a4.073,4.073,0,0,1-4.425-4.148c0-2.157,1.55-4.139,4.526-4.139A4.166,4.166,0,0,1,183.078,84.943Zm-6.487,0a2.031,2.031,0,0,0,1.98,2.272,1.967,1.967,0,0,0,1.95-2.232c0-1.187-.59-2.3-1.969-2.3C177.2,82.682,176.591,83.732,176.591,84.945Z" transform="translate(-123.604 -77.444)" fill="#fff"/>
        <path id="Path_7" data-name="Path 7" d="M186.014,88.88V82.824h-1.332V81.019h1.332v-.672c0-1.924.987-2.9,2.995-2.9a4.826,4.826,0,0,1,1.013.078v1.826a3.547,3.547,0,0,0-.485-.024c-.808,0-1.024.291-1.024,1.024v.671h1.621v1.805h-1.621V88.88Z" transform="translate(-123.604 -77.444)" fill="#fff"/>
        <path id="Path_8" data-name="Path 8" d="M190.8,81.019h1.41V78.7h2.5v2.317h1.82v1.805h-1.82v3.312c0,.669.14.976.9.976a3.237,3.237,0,0,0,.672-.049v1.7a6.049,6.049,0,0,1-1.576.176c-1.935,0-2.5-.84-2.5-2.373V82.824H190.8Z" transform="translate(-123.604 -77.444)" fill="#fff"/>
        <path id="Path_9" data-name="Path 9" d="M200.776,81.019c.948,3.9,1.191,5.067,1.323,5.928h.016c.224-.979.482-2.035,1.577-5.928h2.336c1.128,4.072,1.368,5.152,1.505,5.876h.015c.145-.821.4-2.149,1.358-5.876h2.434l-2.462,7.861H206.2c-.788-2.758-1.168-4.069-1.426-5.1h-.016c-.211.844-.749,2.784-1.491,5.1h-2.719L198.2,81.019Z" transform="translate(-123.604 -77.444)" fill="#fff"/>
        <path id="Path_10" data-name="Path 10" d="M220.922,86.677c0,1.022.046,2.034.063,2.2h-2.349a5.4,5.4,0,0,1-.091-.888c-.422.68-1.328,1.1-2.806,1.1-2.15,0-3.018-1.31-3.018-2.566,0-2.065,1.807-2.637,4.124-2.637h1.647v-.248c0-.637-.277-1.152-1.431-1.152-1.074,0-1.311.4-1.413.853h-2.486c.066-.969.751-2.537,3.861-2.537,3.414,0,3.9,1.607,3.9,2.921Zm-2.43-1.215c-.181-.013-.723-.013-1.6-.013-1.264,0-1.761.332-1.761.952,0,.511.413.925,1.315.925,1.363,0,2.049-.624,2.049-1.742Z" transform="translate(-123.604 -77.444)" fill="#fff"/>
        <path id="Path_11" data-name="Path 11" d="M223.82,83.155c0-.712,0-1.425-.015-2.136h2.429c.042.278.072,1.148.072,1.571a2.949,2.949,0,0,1,3.031-1.771v2.262c-1.779-.029-3.031.685-3.031,2.927V88.88H223.82Z" transform="translate(-123.604 -77.444)" fill="#fff"/>
        <path id="Path_12" data-name="Path 12" d="M233.452,85.554a1.786,1.786,0,0,0,1.931,1.692,1.681,1.681,0,0,0,1.668-.77h2.486c-.475,1.393-1.656,2.617-4.18,2.617-3.218,0-4.379-2.135-4.379-4.133a4.034,4.034,0,0,1,4.36-4.154,3.96,3.96,0,0,1,4.294,4.154c0,.2,0,.342-.014.594Zm3.658-1.523a1.552,1.552,0,0,0-1.774-1.485c-1.306,0-1.78.712-1.854,1.485Z" transform="translate(-123.604 -77.444)" fill="#fff"/>
        <path id="Path_13" data-name="Path 13" d="M124.887,96.422h4.844c3.611,0,5.586,2.343,5.586,5.17a5.37,5.37,0,0,1-5.641,5.545h-4.789Zm2.6,8.7h1.845c2.1,0,3.229-1.181,3.229-3.459a2.916,2.916,0,0,0-3.2-3.239h-1.878Z" transform="translate(-123.604 -77.444)" fill="#fff"/>
        <path id="Path_14" data-name="Path 14" d="M140.007,103.811a1.786,1.786,0,0,0,1.931,1.692,1.679,1.679,0,0,0,1.668-.77h2.486c-.474,1.393-1.656,2.617-4.18,2.617-3.218,0-4.379-2.135-4.379-4.133a4.034,4.034,0,0,1,4.36-4.154,3.961,3.961,0,0,1,4.294,4.154c0,.2,0,.342-.014.594Zm3.658-1.522a1.553,1.553,0,0,0-1.774-1.486c-1.306,0-1.78.712-1.854,1.486Z" transform="translate(-123.604 -77.444)" fill="#fff"/>
        <path id="Path_15" data-name="Path 15" d="M150.1,99.276c1.076,3.032,1.747,4.735,2.023,5.708h.028c.288-.98.83-2.5,2-5.708h2.529l-3.251,7.861h-2.772l-3.231-7.861Z" transform="translate(-123.604 -77.444)" fill="#fff"/>
        <path id="Path_16" data-name="Path 16" d="M160.455,103.811a1.786,1.786,0,0,0,1.931,1.692,1.679,1.679,0,0,0,1.668-.77h2.486c-.475,1.393-1.656,2.617-4.18,2.617-3.218,0-4.379-2.135-4.379-4.133a4.034,4.034,0,0,1,4.36-4.154,3.961,3.961,0,0,1,4.294,4.154c0,.2,0,.342-.014.594Zm3.658-1.522a1.553,1.553,0,0,0-1.774-1.486c-1.306,0-1.78.712-1.854,1.486Z" transform="translate(-123.604 -77.444)" fill="#fff"/>
        <path id="Path_17" data-name="Path 17" d="M168.975,107.137V95.81h2.486v11.327Z" transform="translate(-123.604 -77.444)" fill="#fff"/>
        <path id="Path_18" data-name="Path 18" d="M182.88,103.2c0,2.419-1.673,4.15-4.591,4.15a4.073,4.073,0,0,1-4.425-4.148c0-2.157,1.55-4.139,4.526-4.139A4.166,4.166,0,0,1,182.88,103.2Zm-6.486,0a2.031,2.031,0,0,0,1.979,2.272,1.967,1.967,0,0,0,1.95-2.232c0-1.187-.59-2.3-1.969-2.3C177.006,100.939,176.394,101.989,176.394,103.2Z" transform="translate(-123.604 -77.444)" fill="#fff"/>
        <path id="Path_19" data-name="Path 19" d="M187.784,106.372v4.079H185.3v-9.245c0-.639,0-1.291-.015-1.93h2.442a8.338,8.338,0,0,1,.059,1.01,3.061,3.061,0,0,1,2.74-1.223,3.792,3.792,0,0,1,3.69,3.988,4.039,4.039,0,0,1-4.008,4.3A2.929,2.929,0,0,1,187.784,106.372Zm3.874-3.185a1.976,1.976,0,0,0-1.936-2.193c-1.444,0-1.995.925-1.995,2.225,0,1.349.675,2.173,1.964,2.173A1.934,1.934,0,0,0,191.658,103.187Z" transform="translate(-123.604 -77.444)" fill="#fff"/>
        <path id="Path_20" data-name="Path 20" d="M196.619,101.305c0-.681,0-1.348-.015-2.029h2.377c.044.306.059.645.071.929a2.8,2.8,0,0,1,2.393-1.142,2.336,2.336,0,0,1,2.371,1.287,2.984,2.984,0,0,1,2.648-1.287c1.646,0,2.942.982,2.942,3.326v4.748H206.96v-4.689c0-.685-.239-1.508-1.271-1.508-.892,0-1.434.561-1.434,1.856v4.341H201.8v-4.7c0-.777-.281-1.5-1.272-1.5-1.008,0-1.446.727-1.446,1.863v4.334h-2.459Z" transform="translate(-123.604 -77.444)" fill="#fff"/>
        <path id="Path_21" data-name="Path 21" d="M214.282,103.811a1.786,1.786,0,0,0,1.931,1.692,1.679,1.679,0,0,0,1.668-.77h2.486c-.474,1.393-1.656,2.617-4.18,2.617-3.218,0-4.379-2.135-4.379-4.133a4.034,4.034,0,0,1,4.36-4.154,3.96,3.96,0,0,1,4.294,4.154c0,.2,0,.342-.013.594Zm3.658-1.522a1.553,1.553,0,0,0-1.774-1.486c-1.305,0-1.78.712-1.853,1.486Z" transform="translate(-123.604 -77.444)" fill="#fff"/>
        <path id="Path_22" data-name="Path 22" d="M222.818,101.26c0-.666,0-1.42-.015-1.984h2.428c.031.222.059.7.073,1.015a3.18,3.18,0,0,1,5.691,2v4.849h-2.513v-4.452c0-.9-.348-1.691-1.466-1.691-1.159,0-1.7.8-1.7,2.221v3.922h-2.5Z" transform="translate(-123.604 -77.444)" fill="#fff"/>
        <path id="Path_23" data-name="Path 23" d="M232.925,99.276h1.41V96.959h2.5v2.317h1.82v1.805h-1.82v3.312c0,.669.139.976.9.976a3.18,3.18,0,0,0,.673-.049v1.705a6.106,6.106,0,0,1-1.576.175c-1.936,0-2.5-.84-2.5-2.373v-3.746h-1.41Z" transform="translate(-123.604 -77.444)" fill="#fff"/>
        <path id="Path_24" data-name="Path 24" d="M135.258,121.992c-.5,1.881-1.99,3.63-5.353,3.63a5.305,5.305,0,0,1-5.676-5.575,5.465,5.465,0,0,1,5.816-5.6c3.282,0,4.919,1.825,5.232,3.616h-2.633a2.453,2.453,0,0,0-2.628-1.6c-2,0-3.045,1.526-3.045,3.481,0,1.974.951,3.67,3.06,3.67a2.414,2.414,0,0,0,2.611-1.627Z" transform="translate(-123.604 -77.444)" fill="#fff"/>
        <path id="Path_25" data-name="Path 25" d="M146.29,121.457c0,2.42-1.672,4.15-4.591,4.15a4.073,4.073,0,0,1-4.425-4.148c0-2.156,1.55-4.139,4.526-4.139A4.166,4.166,0,0,1,146.29,121.457Zm-6.486,0a2.031,2.031,0,0,0,1.979,2.272,1.968,1.968,0,0,0,1.951-2.232c0-1.187-.591-2.3-1.97-2.3C140.416,119.2,139.8,120.247,139.8,121.459Z" transform="translate(-123.604 -77.444)" fill="#fff"/>
        <path id="Path_26" data-name="Path 26" d="M148.7,119.562c0-.681,0-1.348-.015-2.029h2.376a9.264,9.264,0,0,1,.071.93,2.8,2.8,0,0,1,2.393-1.143,2.338,2.338,0,0,1,2.372,1.287,2.982,2.982,0,0,1,2.647-1.287c1.646,0,2.942.982,2.942,3.326v4.748h-2.446v-4.689c0-.685-.239-1.507-1.27-1.507-.893,0-1.434.56-1.434,1.855v4.341h-2.459v-4.7c0-.777-.281-1.5-1.273-1.5s-1.445.726-1.445,1.862v4.334H148.7Z" transform="translate(-123.604 -77.444)" fill="#fff"/>
        <path id="Path_27" data-name="Path 27" d="M166.88,124.629v4.079h-2.486v-9.245c0-.639,0-1.291-.015-1.93h2.442a8.338,8.338,0,0,1,.059,1.01,3.059,3.059,0,0,1,2.74-1.223,3.792,3.792,0,0,1,3.69,3.988,4.04,4.04,0,0,1-4.008,4.3A2.929,2.929,0,0,1,166.88,124.629Zm3.874-3.185a1.976,1.976,0,0,0-1.936-2.193c-1.444,0-2,.925-2,2.225,0,1.349.676,2.173,1.965,2.173A1.934,1.934,0,0,0,170.754,121.444Z" transform="translate(-123.604 -77.444)" fill="#fff"/>
        <path id="Path_28" data-name="Path 28" d="M183.434,123.191c0,1.022.046,2.034.063,2.2h-2.349a5.4,5.4,0,0,1-.091-.888c-.422.68-1.328,1.1-2.806,1.1-2.15,0-3.018-1.31-3.018-2.566,0-2.064,1.807-2.637,4.124-2.637H181v-.248c0-.637-.277-1.151-1.431-1.151-1.074,0-1.311.4-1.413.853h-2.486c.066-.97.751-2.538,3.861-2.538,3.414,0,3.9,1.607,3.9,2.922ZM181,121.976c-.18-.013-.723-.013-1.6-.013-1.264,0-1.761.332-1.761.952,0,.511.413.925,1.315.925,1.363,0,2.049-.624,2.049-1.742Z" transform="translate(-123.604 -77.444)" fill="#fff"/>
        <path id="Path_29" data-name="Path 29" d="M186.319,119.517c0-.666,0-1.419-.015-1.984h2.429c.03.222.058.7.072,1.015a3.18,3.18,0,0,1,5.691,2v4.849h-2.513v-4.452c0-.9-.348-1.691-1.466-1.691-1.159,0-1.7.8-1.7,2.221v3.922h-2.5Z" transform="translate(-123.604 -77.444)" fill="#fff"/>
        <path id="Path_30" data-name="Path 30" d="M198.924,117.533c1.353,3.41,1.936,5.307,2.089,5.873h.042c.211-.785.825-2.867,1.886-5.873h2.534l-2.625,6.74c-1.356,3.5-1.769,4.648-4.454,4.648a7.8,7.8,0,0,1-1.217-.089v-2a7.7,7.7,0,0,0,.788.036c1.073,0,1.319-.34,1.73-1.17l-3.5-8.161Z" transform="translate(-123.604 -77.444)" fill="#fff"/>
      </g>
    </g>
  </g>
</svg>
