<svg xmlns="http://www.w3.org/2000/svg" width="845.493" height="396.451" viewBox="0 0 845.493 396.451">
  <g id="Group_353" data-name="Group 353" transform="translate(-238 -284)">
    <g id="Group_351" data-name="Group 351" transform="translate(238 284)">
      <path id="Path_275" data-name="Path 275" d="M-6284.656-17.417H-6307.8V-30.122h62.166v12.705h-23.059v53.04h-15.967Z" transform="translate(6307.796 30.122)"/>
      <path id="Path_276" data-name="Path 276" d="M-6220.3-30.122h15.956V-5.405h30.256V-30.122h15.955V35.623h-15.955V7.3h-30.256V35.623H-6220.3Z" transform="translate(6297.338 30.122)"/>
      <path id="Path_277" data-name="Path 277" d="M-6072.131,7.883h-36.691V22.847h40.8l-1.837,12.776h-54.915V-30.122h54.627v12.777h-38.673V-4.894h36.691Z" transform="translate(6285.919 30.122)"/>
    </g>
    <g id="Group_352" data-name="Group 352" transform="translate(238.001 390.903)">
      <path id="Path_278" data-name="Path 278" d="M-5998.05,15.744c1.885,5.675,6.424,9.4,17.337,9.4,10.218,0,13.174-3.12,13.174-7.361,0-4.532-3.028-7.085-16.882-9.437-22.815-3.9-26.963-11.311-26.963-20.13,0-13.129,12.64-19.838,28.18-19.838,22.564,0,28.688,11.6,29.435,19.241h-15.977c-.929-3.256-3.117-7.615-13.961-7.615-7.6,0-11.453,2.419-11.453,6.666,0,3.8,2.707,5.711,15.05,7.925,24.98,4.484,28.889,12.024,28.889,21.56,0,11.4-8.943,20.6-30.993,20.6-20.567,0-29.831-9.179-31.825-21.019Z" transform="translate(6014.04 31.701)" fill="#e61c3c"/>
      <path id="Path_279" data-name="Path 279" d="M-5855.663,2.333c0,18.22-12.152,34.5-36.066,34.5-22.294,0-35.03-15.237-35.03-34.43,0-18.082,13.486-34.116,35.77-34.116C-5868.032-31.712-5855.663-15.6-5855.663,2.333Zm-54.275-.127c0,12.432,6.3,22.168,19.114,22.168,13.238,0,18.34-11.168,18.34-21.855,0-11.649-5.677-21.773-18.983-21.773C-5904.265-19.253-5909.938-8.874-5909.938,2.206Z" transform="translate(6003.607 31.712)"/>
      <path id="Path_280" data-name="Path 280" d="M-5825.792-30.122h54.106v12.695h-38.151V-2.474h35.585V10.314h-35.585V35.623h-15.955Z" transform="translate(5991.539 31.522)"/>
      <path id="Path_281" data-name="Path 281" d="M-5727.32-17.417h-23.141V-30.122h62.166v12.705h-23.059v53.04h-15.966Z" transform="translate(5982.534 31.522)"/>
      <path id="Path_282" data-name="Path 282" d="M-5648.217,35.623l-18.7-65.745h16.74c3.863,15.181,10.47,39.529,11.952,51.39h.095c2.161-12.114,8.928-36.1,13.39-51.39h15.189c4.137,14.464,11.441,41.295,13.23,50.885h.175c1.912-11.979,8.339-36.155,12.144-50.885h16.047l-19.873,65.745h-17.266c-4.22-14.5-10.927-39.529-13.067-48.983h-.093c-1.986,11.18-8.156,32.854-12.815,48.983Z" transform="translate(5972.547 31.522)"/>
      <path id="Path_283" data-name="Path 283" d="M-5530.984,20.7l-5.737,14.92h-16.41l26.479-65.745h20.46l27.834,65.745h-17.255l-6.11-14.92Zm24.8-12.788c-6.118-15.067-9.1-22.748-10.674-27.77h-.093c-1.472,4.918-4.961,14.917-9.9,27.77Z" transform="translate(5958.947 31.522)"/>
      <path id="Path_284" data-name="Path 284" d="M-5437.269,10.287V35.623h-15.79V-30.122h35.8c15.161,0,23.838,7.48,23.838,18.782,0,8.487-4.933,13.486-11.44,15.551,2.691,1.06,9.749,3.643,9.749,15.454v3.282c0,4.51-.083,9.569.829,12.675h-16.377c-1.1-2.893-1.228-6.78-1.228-13.759V19.706c0-6.645-2.438-9.418-12.022-9.418Zm0-11.966h16.442c7.747,0,11.1-2.793,11.1-8.336,0-5.2-3.438-8.142-10.964-8.142h-16.581Z" transform="translate(5946.985 31.522)"/>
      <path id="Path_285" data-name="Path 285" d="M-5312.087,7.883h-36.691V22.847h40.8l-1.837,12.776h-54.916V-30.122h54.627v12.777h-38.672V-4.894h36.691Z" transform="translate(5936.428 31.522)"/>
    </g>
    <g id="Group_177" data-name="Group 177" transform="translate(238 501.918)">
      <g id="Group_350" data-name="Group 350">
        <path id="Path_286" data-name="Path 286" d="M-6298.858,97.1h29.719c22.154,0,34.273,14.38,34.273,31.723,0,21.047-15.477,34.022-34.613,34.022h-29.379Zm15.955,53.38h11.322c12.86,0,19.812-7.245,19.812-21.225,0-12.163-6.36-19.708-19.607-19.872H-6282.9Z" transform="translate(6298.858 -95.701)" fill="#e61c3c"/>
        <path id="Path_287" data-name="Path 287" d="M-6153.34,135.106h-36.691V150.07h40.8l-1.838,12.777h-54.915V97.1h54.627v12.777h-38.673V122.33h36.691Z" transform="translate(6287.757 -95.701)" fill="#231f20"/>
        <path id="Path_288" data-name="Path 288" d="M-6103.634,162.847-6130.426,97.1h17.653l11.577,31.3c4.364,11.843,6.215,18.205,7.358,22.4h.187c1.027-3.8,1.94-6.581,8.107-23.592l11.19-30.109h17.068l-27.26,65.746Z" transform="translate(6278.725 -95.701)" fill="#231f20"/>
        <path id="Path_289" data-name="Path 289" d="M-5980.531,135.106h-36.691V150.07h40.8l-1.837,12.777h-54.915V97.1h54.628v12.777h-38.674V122.33h36.691Z" transform="translate(6267.102 -95.701)" fill="#231f20"/>
        <path id="Path_290" data-name="Path 290" d="M-5949.953,97.1h15.943v52.958h36.807l-2.1,12.788h-50.654Z" transform="translate(6257.154 -95.701)" fill="#231f20"/>
        <path id="Path_291" data-name="Path 291" d="M-5807.954,129.556c0,18.22-12.154,34.5-36.066,34.5-22.3,0-35.031-15.237-35.031-34.43,0-18.082,13.487-34.116,35.771-34.116C-5820.324,95.511-5807.954,111.626-5807.954,129.556Zm-54.275-.127c0,12.432,6.3,22.169,19.113,22.169,13.239,0,18.341-11.168,18.341-21.855,0-11.649-5.678-21.773-18.982-21.773C-5856.557,107.97-5862.229,118.349-5862.229,129.429Z" transform="translate(6248.679 -95.511)" fill="#231f20"/>
        <path id="Path_292" data-name="Path 292" d="M-5778.1,97.1h34.016c15.286,0,25.451,7.729,25.451,20.664,0,13.446-9.573,21.493-25.7,21.493h-17.729v23.589H-5778.1Zm16.037,29.769h16.494c6.757,0,11.03-2.318,11.03-8.847,0-5.323-3.273-8.616-11.03-8.616h-16.494Z" transform="translate(6236.612 -95.701)" fill="#231f20"/>
        <path id="Path_293" data-name="Path 293" d="M-5631.548,137.663c0-11.332.082-23.126.456-30.411h-.093c-3.267,12.144-9.447,31.428-17.191,55.595h-14.046c-6.022-21.191-12.933-43.126-16.42-55.583h-.094c.488,7.642,1.086,20.42,1.086,31.621v23.962h-14.371V97.1h23.054c6.6,20.36,12.669,38.218,14.629,47.218h.093c2.786-10.37,8.719-27.645,15.117-47.218h23.158v65.746h-15.379Z" transform="translate(6226.348 -95.701)" fill="#231f20"/>
        <path id="Path_294" data-name="Path 294" d="M-5528.364,135.106h-36.691V150.07h40.8l-1.837,12.777h-54.914V97.1h54.628v12.777h-38.674V122.33h36.691Z" transform="translate(6213.054 -95.701)" fill="#231f20"/>
        <path id="Path_295" data-name="Path 295" d="M-5497.786,162.847V97.1h18.894c18.47,28.191,25.84,38.449,29.962,46.265h.187c-.643-6.9-.548-19.207-.548-30.024V97.1h14.618v65.746h-17.71c-6.2-9.792-27.234-42.469-31.146-49.981h-.187c.549,8.117.549,17.462.549,29.142v20.839Z" transform="translate(6203.106 -95.701)" fill="#231f20"/>
        <path id="Path_296" data-name="Path 296" d="M-5386.049,109.806h-23.142V97.1h62.166v12.705h-23.059v53.04h-15.966Z" transform="translate(6192.517 -95.701)" fill="#231f20"/>
      </g>
    </g>
    <g id="Group_176" data-name="Group 176" transform="translate(238 611.906)">
      <path id="Path_297" data-name="Path 297" d="M-6235.775,269c-3.051,11.542-12.207,22.278-32.841,22.278-23.489,0-34.825-16.25-34.825-34.21s12.489-34.336,35.68-34.336c20.139,0,30.183,11.2,32.1,22.191h-16.154c-1.35-3.761-4.9-9.814-16.123-9.814-12.294,0-18.684,9.363-18.684,21.361,0,12.107,5.837,22.513,18.778,22.513,9.351,0,13.462-3.635,16.019-9.983Z" transform="translate(6303.441 -222.734)" fill="#e61c3c"/>
      <path id="Path_298" data-name="Path 298" d="M-6140.64,256.779c0,18.22-12.153,34.5-36.066,34.5-22.295,0-35.03-15.238-35.03-34.43,0-18.082,13.486-34.116,35.77-34.116C-6153.01,222.734-6140.64,238.849-6140.64,256.779Zm-54.275-.127c0,12.432,6.3,22.168,19.114,22.168,13.237,0,18.34-11.167,18.34-21.855,0-11.648-5.677-21.772-18.983-21.772C-6189.242,235.193-6194.916,245.572-6194.916,256.652Z" transform="translate(6292.48 -222.734)"/>
      <path id="Path_299" data-name="Path 299" d="M-6050.107,264.886c0-11.332.082-23.127.455-30.412h-.094c-3.266,12.143-9.447,31.428-17.19,55.594h-14.046c-6.021-21.191-12.935-43.126-16.421-55.583h-.093c.488,7.643,1.086,20.42,1.086,31.621v23.962h-14.371V224.324h23.055c6.6,20.36,12.668,38.217,14.628,47.217h.093c2.786-10.37,8.72-27.645,15.118-47.217h23.159v65.745h-15.379Z" transform="translate(6280.413 -222.924)"/>
      <path id="Path_300" data-name="Path 300" d="M-5999.57,224.324h34.017c15.286,0,25.451,7.729,25.451,20.664,0,13.446-9.573,21.492-25.7,21.492h-17.73v23.589h-16.037Zm16.037,29.769h16.494c6.757,0,11.03-2.318,11.03-8.847,0-5.323-3.273-8.616-11.03-8.616h-16.494Z" transform="translate(6267.12 -222.924)"/>
      <path id="Path_301" data-name="Path 301" d="M-5907.88,275.148l-5.737,14.921h-16.41l26.479-65.745h20.459l27.834,65.745h-17.255l-6.11-14.921Zm24.8-12.788c-6.118-15.068-9.1-22.748-10.674-27.77h-.093c-1.471,4.917-4.961,14.916-9.9,27.77Z" transform="translate(6258.807 -222.924)"/>
      <path id="Path_302" data-name="Path 302" d="M-5830.047,290.069V224.324h18.894c18.47,28.191,25.84,38.449,29.962,46.264h.186c-.642-6.9-.548-19.207-.548-30.023V224.324h14.618v65.745h-17.71c-6.2-9.792-27.233-42.469-31.146-49.981h-.187c.55,8.117.55,17.463.55,29.143v20.838Z" transform="translate(6246.856 -222.924)"/>
      <path id="Path_303" data-name="Path 303" d="M-5717.362,290.069V266.551a3.348,3.348,0,0,0-.807-2.14l-27.192-40.087h18.964c6.44,10.305,14.54,22.815,17.693,29.017,3.349-6.131,11.606-18.712,18.057-29.017h17.371l-27.665,40.744a2.625,2.625,0,0,0-.385,1.741v23.26Z" transform="translate(6236.734 -222.924)"/>
    </g>
  </g>
</svg>
