<svg xmlns="http://www.w3.org/2000/svg" width="14.324" height="9.575" viewBox="0 0 14.324 9.575">
  <g id="Group_30" data-name="Group 30" transform="translate(0 0)">
    <g id="Group_29" data-name="Group 29">
      <path id="Path_310" data-name="Path 310" d="M949.481,299.885v5.135a.23.23,0,0,1-.23.23H946.6a.23.23,0,0,1-.23-.23v-4.776c0-1.256-.449-2.115-1.575-2.115a1.7,1.7,0,0,0-1.6,1.137,2.135,2.135,0,0,0-.1.758v4.995a.23.23,0,0,1-.23.23h-2.65a.229.229,0,0,1-.23-.23c.006-1.271.033-7.442.006-8.893a.229.229,0,0,1,.23-.232h2.645a.23.23,0,0,1,.23.23v1.1c-.006.011-.015.021-.02.031h.02v-.031a3.089,3.089,0,0,1,2.8-1.545c2.046,0,3.581,1.337,3.581,4.21Zm-14.094,5.365h2.65a.23.23,0,0,0,.23-.23v-8.9a.23.23,0,0,0-.23-.23h-2.65a.23.23,0,0,0-.23.23v8.9A.23.23,0,0,0,935.387,305.25Z" transform="translate(-935.157 -295.675)" fill="#2e2e32"/>
    </g>
  </g>
</svg>
