<svg id="Group_493" data-name="Group 493" xmlns="http://www.w3.org/2000/svg" width="141.412" height="124.711" viewBox="0 0 141.412 124.711">
  <path id="Path_14320" data-name="Path 14320" d="M725.99,192.124H710.745v-3.152h13.5l14.372-22.912h44.972l10.321,4.946-1.363,2.842-9.675-4.636H740.362Z" transform="translate(-710.745 -154.323)"/>
  <rect id="Rectangle_213" data-name="Rectangle 213" width="8.749" height="3.152" transform="translate(8.748 44.856)"/>
  <path id="Path_14321" data-name="Path 14321" d="M814.846,276.008h-47.1V244.345l-12.761-10.566,2.011-2.428,13.9,11.512v29.992h40.8V258.067h19.788v-23.9l13.882-4.96-9.569-17.382.079-.527c.234-1.576,5.354-38.734-30.244-50.765a44.554,44.554,0,0,0-27.774-.51c-6.32,1.986-11.157,5.067-14.378,9.159L761,167.228c3.62-4.6,8.973-8.037,15.911-10.217a47.672,47.672,0,0,1,29.728.531c35.706,12.068,32.962,48.731,32.418,53.67l10.854,19.715-15.277,5.456v24.836H814.846Z" transform="translate(-708.499 -154.89)"/>
  <path id="Path_14322" data-name="Path 14322" d="M730.911,200.475l14.76-21.065h18.714v3.152H747.311L737,197.278l26.107-.188.023,3.152Z" transform="translate(-709.721 -153.645)"/>
  <path id="Path_14323" data-name="Path 14323" d="M806.721,218.728H744.444l-13.521-19.19,2.578-1.815,12.579,17.853h60.641Z" transform="translate(-709.72 -152.715)"/>
  <path id="Path_14324" data-name="Path 14324" d="M773.992,218.021l-2.633-1.734,12.264-18.616,11.6.228-.062,3.151-9.865-.193Z" transform="translate(-707.667 -152.717)"/>
  <path id="Path_14325" data-name="Path 14325" d="M795.1,235.262H784.961L773.343,216.63l2.674-1.669,10.692,17.148H795.1Z" transform="translate(-707.567 -151.84)"/>
  <path id="Path_14326" data-name="Path 14326" d="M794.167,181.856a6.54,6.54,0,1,1,6.539-6.54A6.546,6.546,0,0,1,794.167,181.856Zm0-9.928a3.388,3.388,0,1,0,3.387,3.388A3.391,3.391,0,0,0,794.167,171.928Z" transform="translate(-706.841 -154.185)"/>
  <path id="Path_14327" data-name="Path 14327" d="M766.592,187.472a6.539,6.539,0,1,1,6.54-6.539A6.546,6.546,0,0,1,766.592,187.472Zm0-9.926a3.387,3.387,0,1,0,3.388,3.387A3.391,3.391,0,0,0,766.592,177.546Z" transform="translate(-708.242 -153.899)"/>
  <path id="Path_14328" data-name="Path 14328" d="M766.337,203.813a6.54,6.54,0,1,1,6.54-6.539A6.547,6.547,0,0,1,766.337,203.813Zm0-9.927a3.387,3.387,0,1,0,3.388,3.388A3.391,3.391,0,0,0,766.337,193.886Z" transform="translate(-708.254 -153.07)"/>
  <path id="Path_14329" data-name="Path 14329" d="M798,206.366a6.539,6.539,0,1,1,6.539-6.539A6.547,6.547,0,0,1,798,206.366Zm0-9.927a3.387,3.387,0,1,0,3.387,3.388A3.391,3.391,0,0,0,798,196.439Z" transform="translate(-706.647 -152.94)"/>
  <path id="Path_14330" data-name="Path 14330" d="M806.933,222.451a6.54,6.54,0,1,1,6.54-6.539A6.547,6.547,0,0,1,806.933,222.451Zm0-9.927a3.387,3.387,0,1,0,3.388,3.388A3.391,3.391,0,0,0,806.933,212.524Z" transform="translate(-706.193 -152.123)"/>
  <path id="Path_14331" data-name="Path 14331" d="M798.507,239.175a6.539,6.539,0,1,1,6.54-6.54A6.547,6.547,0,0,1,798.507,239.175Zm0-9.927a3.387,3.387,0,1,0,3.388,3.387A3.391,3.391,0,0,0,798.507,229.248Z" transform="translate(-706.621 -151.274)"/>
  <g id="Group_481" data-name="Group 481" transform="translate(11.915 82.814)">
    <path id="Path_14332" data-name="Path 14332" d="M738.312,274.291a1.143,1.143,0,0,0,1.142,1.142H746.6a1.143,1.143,0,0,0,1.142-1.142v-2.215a17.891,17.891,0,0,0,4.287-1.777l1.564,1.564a1.141,1.141,0,0,0,1.616,0l5.048-5.052a1.143,1.143,0,0,0,0-1.615l-1.561-1.562a17.876,17.876,0,0,0,1.777-4.287h2.206a1.142,1.142,0,0,0,1.143-1.142v-7.142a1.143,1.143,0,0,0-1.143-1.143h-2.207a17.858,17.858,0,0,0-1.776-4.286l1.553-1.553a1.143,1.143,0,0,0,0-1.617l-5.053-5.048a1.143,1.143,0,0,0-1.615,0l-1.551,1.552a17.892,17.892,0,0,0-4.287-1.777V235a1.142,1.142,0,0,0-1.142-1.142h-7.143A1.142,1.142,0,0,0,738.312,235v2.194a17.885,17.885,0,0,0-4.286,1.777l-1.552-1.552a1.143,1.143,0,0,0-1.615,0l-5.052,5.049a1.143,1.143,0,0,0,0,1.616l1.554,1.553a17.841,17.841,0,0,0-1.777,4.286h-2.2a1.143,1.143,0,0,0-1.142,1.142l0,7.143a1.141,1.141,0,0,0,1.142,1.142h2.207a17.832,17.832,0,0,0,1.777,4.287L725.8,265.2a1.143,1.143,0,0,0,0,1.615l5.049,5.052a1.142,1.142,0,0,0,.808.335h0a1.144,1.144,0,0,0,.808-.335l1.563-1.564a17.909,17.909,0,0,0,4.287,1.777Zm-3.84-6.394a1.142,1.142,0,0,0-1.427.151l-1.391,1.391L728.22,266l1.39-1.39a1.143,1.143,0,0,0,.151-1.428,15.613,15.613,0,0,1-2.164-5.221,1.143,1.143,0,0,0-1.117-.9h-1.962l0-4.858h1.96a1.143,1.143,0,0,0,1.117-.9,15.614,15.614,0,0,1,2.164-5.221,1.143,1.143,0,0,0-.151-1.428l-1.381-1.381,3.436-3.434,1.38,1.38a1.143,1.143,0,0,0,1.427.152,15.635,15.635,0,0,1,5.222-2.165,1.141,1.141,0,0,0,.9-1.116v-1.951h4.859v1.95a1.141,1.141,0,0,0,.9,1.117,15.663,15.663,0,0,1,5.222,2.164,1.142,1.142,0,0,0,1.427-.151l1.38-1.38,3.436,3.434-1.38,1.381a1.142,1.142,0,0,0-.152,1.428,15.635,15.635,0,0,1,2.164,5.221,1.143,1.143,0,0,0,1.117.9h1.963v4.858H759.57a1.143,1.143,0,0,0-1.117.9,15.613,15.613,0,0,1-2.164,5.221,1.142,1.142,0,0,0,.152,1.428L757.831,266l-3.434,3.436-1.39-1.39a1.143,1.143,0,0,0-1.428-.151,15.672,15.672,0,0,1-5.222,2.164,1.142,1.142,0,0,0-.9,1.117v1.971H740.6v-1.971a1.143,1.143,0,0,0-.9-1.117A15.672,15.672,0,0,1,734.472,267.9Z" transform="translate(-722.076 -233.694)"/>
    <path id="Path_14333" data-name="Path 14333" d="M746.6,275.6h-7.143a1.3,1.3,0,0,1-1.3-1.3V272.2a18.128,18.128,0,0,1-4.1-1.7l-1.477,1.478a1.334,1.334,0,0,1-1.84,0l-5.048-5.052a1.3,1.3,0,0,1,0-1.839l1.476-1.476a18.146,18.146,0,0,1-1.7-4.1h-2.087a1.3,1.3,0,0,1-1.3-1.3l0-7.141a1.3,1.3,0,0,1,1.3-1.3h2.083a18.146,18.146,0,0,1,1.7-4.1L725.7,244.2a1.314,1.314,0,0,1-.381-.92,1.3,1.3,0,0,1,.381-.919l5.052-5.048a1.306,1.306,0,0,1,1.839,0l1.466,1.466a18.115,18.115,0,0,1,4.1-1.7V235a1.3,1.3,0,0,1,1.3-1.3H746.6a1.3,1.3,0,0,1,1.3,1.3v2.075a18.154,18.154,0,0,1,4.1,1.7l1.466-1.466a1.288,1.288,0,0,1,.918-.381h0a1.293,1.293,0,0,1,.919.381l5.053,5.048a1.3,1.3,0,0,1,0,1.84l-1.469,1.468a18.081,18.081,0,0,1,1.7,4.1h2.088a1.3,1.3,0,0,1,1.3,1.3v7.143a1.3,1.3,0,0,1-1.3,1.3H760.6a18.085,18.085,0,0,1-1.7,4.1l1.476,1.476a1.3,1.3,0,0,1,0,1.839l-5.048,5.052a1.3,1.3,0,0,1-1.839,0l-1.478-1.478a18.071,18.071,0,0,1-4.1,1.7V274.3A1.3,1.3,0,0,1,746.6,275.6Zm-12.6-5.488.1.06a17.749,17.749,0,0,0,4.249,1.762l.118.03V274.3a.983.983,0,0,0,.984.984H746.6a.983.983,0,0,0,.984-.984v-2.336l.118-.03a17.727,17.727,0,0,0,4.249-1.762l.1-.06,1.651,1.649a1.01,1.01,0,0,0,1.391,0l5.049-5.053a.983.983,0,0,0,0-1.391l-1.649-1.648.061-.105a17.753,17.753,0,0,0,1.762-4.249l.03-.117h2.327a.985.985,0,0,0,.984-.985v-7.143a.985.985,0,0,0-.984-.984h-2.328l-.03-.117a17.773,17.773,0,0,0-1.761-4.249l-.061-.105,1.639-1.638a.987.987,0,0,0,0-1.393l-5.053-5.048a.974.974,0,0,0-.7-.29h0a.978.978,0,0,0-.695.289l-1.638,1.637-.1-.06a17.8,17.8,0,0,0-4.249-1.761l-.118-.03V235a.984.984,0,0,0-.984-.984h-7.143a.984.984,0,0,0-.984.984v2.317l-.118.03a17.785,17.785,0,0,0-4.249,1.761l-.1.06-1.637-1.636a.984.984,0,0,0-1.392,0l-5.052,5.048a.974.974,0,0,0-.289.7.987.987,0,0,0,.289.7l1.638,1.638-.061.105a17.826,17.826,0,0,0-1.761,4.249l-.03.117h-2.323a.985.985,0,0,0-.984.984l0,7.142a.981.981,0,0,0,.984.986h2.327l.03.117a17.844,17.844,0,0,0,1.761,4.249l.061.105-1.648,1.648a.985.985,0,0,0,0,1.391l5.049,5.052a1.006,1.006,0,0,0,1.392,0Zm11.613,3.2h-5.174v-2.129a.992.992,0,0,0-.778-.964,15.776,15.776,0,0,1-5.273-2.185h0a.988.988,0,0,0-1.232.131l-1.5,1.5-.111-.111-3.544-3.548,1.5-1.5a.987.987,0,0,0,.131-1.23A15.79,15.79,0,0,1,727.451,258a.99.99,0,0,0-.963-.778h-2.119l0-5.174h2.117a.99.99,0,0,0,.963-.777A15.79,15.79,0,0,1,729.637,246a.987.987,0,0,0-.131-1.23l-1.491-1.492.11-.111,3.548-3.545,1.491,1.491a.992.992,0,0,0,1.232.131,15.785,15.785,0,0,1,5.273-2.186.99.99,0,0,0,.778-.963v-2.109h5.174V238.1a.99.99,0,0,0,.778.964,15.787,15.787,0,0,1,5.273,2.185.991.991,0,0,0,1.232-.13l1.491-1.491.111.11,3.547,3.546-1.491,1.492a.986.986,0,0,0-.13,1.229,15.819,15.819,0,0,1,2.185,5.276.989.989,0,0,0,.964.777H761.7v5.174h-2.119a.99.99,0,0,0-.964.778,15.784,15.784,0,0,1-2.185,5.274.989.989,0,0,0,.13,1.232l1.5,1.5-.11.112L754.4,269.67l-1.5-1.5a.986.986,0,0,0-1.232-.131,15.788,15.788,0,0,1-5.273,2.185.992.992,0,0,0-.778.964ZM740.762,273h4.544v-1.814a1.308,1.308,0,0,1,1.027-1.271,15.484,15.484,0,0,0,5.169-2.141,1.307,1.307,0,0,1,1.625.173l1.279,1.279,3.211-3.214-1.279-1.278a1.306,1.306,0,0,1-.171-1.624,15.476,15.476,0,0,0,2.142-5.169,1.308,1.308,0,0,1,1.271-1.029h1.8v-4.541h-1.8a1.306,1.306,0,0,1-1.271-1.028,15.5,15.5,0,0,0-2.142-5.17,1.305,1.305,0,0,1,.171-1.625l1.27-1.268-3.214-3.211-1.267,1.269a1.311,1.311,0,0,1-1.625.171,15.485,15.485,0,0,0-5.169-2.141,1.306,1.306,0,0,1-1.027-1.271V236.3h-4.544V238.1a1.306,1.306,0,0,1-1.027,1.27,15.492,15.492,0,0,0-5.169,2.143,1.308,1.308,0,0,1-1.626-.172l-1.267-1.269-3.214,3.211,1.27,1.268a1.3,1.3,0,0,1,.172,1.625,15.483,15.483,0,0,0-2.143,5.17,1.307,1.307,0,0,1-1.27,1.028h-1.8l0,4.541h1.8a1.307,1.307,0,0,1,1.27,1.029,15.5,15.5,0,0,0,2.143,5.17,1.3,1.3,0,0,1-.172,1.623l-1.278,1.278,3.21,3.214,1.279-1.28a1.311,1.311,0,0,1,1.626-.172h0a15.472,15.472,0,0,0,5.169,2.141,1.308,1.308,0,0,1,1.027,1.271Z" transform="translate(-722.084 -233.702)"/>
  </g>
  <g id="Group_482" data-name="Group 482" transform="translate(23.267 94.166)">
    <path id="Path_14334" data-name="Path 14334" d="M751.916,254.094a9.439,9.439,0,1,0-9.439,9.439A9.449,9.449,0,0,0,751.916,254.094Zm-16.593,0a7.154,7.154,0,1,1,7.154,7.155A7.162,7.162,0,0,1,735.323,254.094Z" transform="translate(-732.88 -244.497)"/>
    <path id="Path_14335" data-name="Path 14335" d="M742.485,263.7a9.6,9.6,0,1,1,9.6-9.6A9.607,9.607,0,0,1,742.485,263.7Zm0-18.877a9.281,9.281,0,1,0,9.281,9.282A9.291,9.291,0,0,0,742.485,244.821Zm0,16.594A7.312,7.312,0,1,1,749.8,254.1,7.322,7.322,0,0,1,742.485,261.415Zm0-14.309a7,7,0,1,0,7,7A7,7,0,0,0,742.485,247.106Z" transform="translate(-732.888 -244.505)"/>
  </g>
</svg>
