<svg xmlns="http://www.w3.org/2000/svg" width="18.918" height="17.345" viewBox="0 0 18.918 17.345">
  <g id="Group_86" data-name="Group 86" transform="translate(-3041.972 606.206)">
    <path id="Path_4540" data-name="Path 4540" d="M3256.83-590.848h-1.637v-7.192c0-.211,0-.211-.218-.211-.815,0-1.63,0-2.446,0-.122,0-.166-.028-.164-.158q.012-.667,0-1.334c0-.137.045-.167.173-.166.82.005,1.641,0,2.461.006.155,0,.2-.045.2-.2a6.045,6.045,0,0,0-.115-1.5,3.853,3.853,0,0,0-2.246-2.557,4.532,4.532,0,0,0-1.8-.405c-.036,0-.073-.007-.121-.012V-606.2c.162,0,.324-.012.484,0a5.993,5.993,0,0,1,3.982,1.842,4.942,4.942,0,0,1,1.446,3.5q0,4.923,0,9.846Z" transform="translate(-202.307)" fill="#2e2e32"/>
    <g id="Group_85" data-name="Group 85" transform="translate(3041.972 -606.204)">
      <path id="Path_4541" data-name="Path 4541" d="M3043.608-590.777h-1.625c0-.051-.009-.1-.009-.143q0-4.924,0-9.847a4.942,4.942,0,0,1,1.238-3.269,5.877,5.877,0,0,1,3.364-1.956,6.079,6.079,0,0,1,1.312-.129v1.422c0,.208,0,.2-.2.213a4.339,4.339,0,0,0-3.441,1.812,3.3,3.3,0,0,0-.634,1.929c0,.254,0,.508-.006.762,0,.131.039.173.171.172.821-.005,1.641,0,2.462-.006.156,0,.2.047.193.2-.01.429-.008.858,0,1.286,0,.125-.034.163-.161.162-.826-.005-1.652,0-2.478-.006-.145,0-.187.039-.187.186q.007,3.5,0,7Z" transform="translate(-3041.972 606.122)" fill="#2e2e32"/>
      <path id="Path_4542" data-name="Path 4542" d="M3483.449-216.116a2.031,2.031,0,0,1,2.052,2.072,2.041,2.041,0,0,1-2.079,2.033,2.047,2.047,0,0,1-2.027-2.1A2.04,2.04,0,0,1,3483.449-216.116Zm1.549,2.06a1.561,1.561,0,0,0-1.544-1.567,1.579,1.579,0,0,0-1.563,1.557,1.566,1.566,0,0,0,1.544,1.554A1.554,1.554,0,0,0,3485-214.056Z" transform="translate(-3467.433 228.506)" fill="#2e2e32"/>
      <path id="Path_4543" data-name="Path 4543" d="M3210.865-216.225a2.166,2.166,0,0,1-1.264-.587c-.074-.068-.025-.27-.032-.41.081.012.181,0,.239.04a1.977,1.977,0,0,0,.813.4,1.509,1.509,0,0,0,1.333-.428,1.722,1.722,0,0,1,.195-.185.241.241,0,0,1,.185-.032c.039.014.067.094.075.149a.333.333,0,0,1-.086.288,1.888,1.888,0,0,1-.966.625C3211.192-216.316,3211.029-216.27,3210.865-216.225Z" transform="translate(-3204.235 229.778)" fill="#2e2e32"/>
      <path id="Path_4544" data-name="Path 4544" d="M3587.913-108.983l.6-.6c.263.26.582.559.879.879a.4.4,0,0,1-.044.561.415.415,0,0,1-.576.021C3588.463-108.415,3588.168-108.725,3587.913-108.983Z" transform="translate(-3570.569 125.357)" fill="#2e2e32"/>
      <path id="Path_4545" data-name="Path 4545" d="M3512.972-155.612c-.121-.023-.244-.037-.362-.071a1.167,1.167,0,0,1-.881-1.043.707.707,0,0,1,.087-.23,1.124,1.124,0,0,1,.219.128.376.376,0,0,1,.1.18,1.355,1.355,0,0,0,.647.828c.074.047.146.1.219.148Z" transform="translate(-3496.804 171.226)" fill="#2e2e32"/>
    </g>
  </g>
</svg>
