<svg id="Group_28" data-name="Group 28" xmlns="http://www.w3.org/2000/svg" width="15.82" height="13.03" viewBox="0 0 15.82 13.03">
  <g id="Group_23" data-name="Group 23">
    <path id="Path_305" data-name="Path 305" d="M949,221.7a6.494,6.494,0,0,1-1.6.457c.258-.043.637-.509.789-.7a2.928,2.928,0,0,0,.532-.969c.014-.028.024-.063,0-.084a.091.091,0,0,0-.085.007,8.151,8.151,0,0,1-1.9.727.127.127,0,0,1-.131-.035,1.588,1.588,0,0,0-.166-.17,3.367,3.367,0,0,0-.919-.563,3.2,3.2,0,0,0-1.41-.227,3.368,3.368,0,0,0-1.338.378,3.453,3.453,0,0,0-1.08.882,3.311,3.311,0,0,0-.645,1.291,3.493,3.493,0,0,0-.034,1.363c.01.076,0,.087-.066.076a10.138,10.138,0,0,1-6.523-3.32c-.076-.087-.117-.087-.18.007a3.307,3.307,0,0,0,.563,3.908c.128.121.26.242.4.353a3.311,3.311,0,0,1-1.259-.353c-.076-.048-.114-.02-.121.066a1.969,1.969,0,0,0,.021.374,3.344,3.344,0,0,0,2.061,2.666,1.939,1.939,0,0,0,.418.128A3.712,3.712,0,0,1,935.1,228c-.09-.017-.124.028-.09.114a3.473,3.473,0,0,0,2.594,2.172c.117.02.235.02.353.048-.007.01-.014.01-.021.021a4.112,4.112,0,0,1-1.771.939,6.345,6.345,0,0,1-2.69.344c-.145-.021-.175-.02-.214,0s-.005.059.041.1c.183.121.37.229.56.332a8.874,8.874,0,0,0,1.8.72,9.579,9.579,0,0,0,9.3-2.174,9.757,9.757,0,0,0,2.574-7.118c0-.1.121-.159.192-.213a6.263,6.263,0,0,0,1.26-1.316.383.383,0,0,0,.078-.252V221.7C949.059,221.659,949.064,221.672,949,221.7Z" transform="translate(-933.239 -220.139)" fill="#2e2e32"/>
  </g>
  <g id="Group_24" data-name="Group 24" transform="translate(4.698 12.974)">
    <path id="Path_306" data-name="Path 306" d="M942.686,246.228Z" transform="translate(-942.686 -246.228)" fill="#2e2e32" fill-rule="evenodd"/>
  </g>
  <g id="Group_25" data-name="Group 25" transform="translate(4.577 12.974)">
    <path id="Path_307" data-name="Path 307" d="M942.564,246.228c-.021,0-.261,0,0,0Z" transform="translate(-942.443 -246.228)" fill="#2e2e32" fill-rule="evenodd"/>
  </g>
  <g id="Group_26" data-name="Group 26" transform="translate(5.231 12.976)">
    <path id="Path_308" data-name="Path 308" d="M943.757,246.244c0-.026.281,0,0,0C943.757,246.23,943.791,246.244,943.757,246.244Z" transform="translate(-943.757 -246.232)" fill="#2e2e32" fill-rule="evenodd"/>
  </g>
  <g id="Group_27" data-name="Group 27" transform="translate(10.761 0.019)">
    <path id="Path_309" data-name="Path 309" d="M954.943,220.177a.056.056,0,0,1-.066,0Z" transform="translate(-954.877 -220.177)" fill="#2e2e32" fill-rule="evenodd"/>
  </g>
</svg>
